{"glyphs":{"0":{"ha":635,"x_min":54,"x_max":588,"o":"m 558 733 l 565 717 l 569 700 l 574 683 l 578 667 l 579 650 l 583 633 l 585 617 l 585 599 l 588 582 l 585 565 l 586 549 l 586 532 l 585 515 l 586 499 l 582 482 l 582 465 l 579 449 l 578 433 l 575 417 l 572 400 l 572 383 l 568 367 l 563 351 l 560 335 l 554 319 l 550 303 l 544 288 l 540 272 l 535 256 l 526 242 l 522 225 l 515 210 l 507 196 l 499 181 l 490 167 l 483 151 l 475 136 l 467 122 l 456 110 l 447 94 l 436 82 l 428 68 l 415 56 l 406 43 l 394 29 l 383 18 l 372 4 l 361 -8 l 361 -8 l 353 -10 l 336 -10 l 321 -6 l 304 -4 l 288 -1 l 271 0 l 256 6 l 240 11 l 225 19 l 210 25 l 196 33 l 182 42 l 169 53 l 156 63 l 142 72 l 131 85 l 119 97 l 110 111 l 99 124 l 90 139 l 85 154 l 75 168 l 69 185 l 64 200 l 63 217 l 57 233 l 56 250 l 54 267 l 56 283 l 58 300 l 57 317 l 57 332 l 57 349 l 58 365 l 57 382 l 57 397 l 57 414 l 56 431 l 56 446 l 56 463 l 56 479 l 56 494 l 56 511 l 54 528 l 54 543 l 57 560 l 58 576 l 65 592 l 72 607 l 78 622 l 86 636 l 96 650 l 103 664 l 114 676 l 122 690 l 132 703 l 143 714 l 154 726 l 163 740 l 174 751 l 185 764 l 197 775 l 208 786 l 221 797 l 232 811 l 244 822 l 258 832 l 271 844 l 283 854 l 294 867 l 308 878 l 321 889 l 333 900 l 346 910 l 361 919 l 363 922 l 376 917 l 392 910 l 407 903 l 421 894 l 436 888 l 449 878 l 463 867 l 475 857 l 486 844 l 497 832 l 508 821 l 518 806 l 526 792 l 535 778 l 544 764 l 551 749 l 558 733 m 400 156 l 403 172 l 401 189 l 403 204 l 403 221 l 406 238 l 404 254 l 403 271 l 404 288 l 404 304 l 406 319 l 403 336 l 403 353 l 406 369 l 403 385 l 403 401 l 401 418 l 404 435 l 401 451 l 401 467 l 400 483 l 400 500 l 403 517 l 401 533 l 401 549 l 401 549 l 403 565 l 401 581 l 399 596 l 394 611 l 388 625 l 381 640 l 372 653 l 361 665 l 350 678 l 339 688 l 324 697 l 310 707 l 296 715 l 279 721 l 264 729 l 247 735 l 231 739 l 231 722 l 229 706 l 232 689 l 231 671 l 231 654 l 231 638 l 229 621 l 229 604 l 232 588 l 232 571 l 232 554 l 231 538 l 231 521 l 229 504 l 232 488 l 232 471 l 231 454 l 231 438 l 231 421 l 231 404 l 231 388 l 231 388 l 232 371 l 232 354 l 232 339 l 238 322 l 239 307 l 242 290 l 246 275 l 251 258 l 260 244 l 268 231 l 276 217 l 286 204 l 297 190 l 310 179 l 324 171 l 338 161 l 351 153 l 367 146 l 383 143 l 400 139 l 400 156 z "},"1":{"ha":504,"x_min":31,"x_max":454,"o":"m 454 174 l 447 158 l 438 143 l 428 129 l 418 115 l 408 101 l 399 86 l 389 74 l 378 60 l 368 46 l 357 33 l 344 21 l 331 11 l 318 0 l 304 -10 l 288 -17 l 288 -17 l 288 -14 l 268 -7 l 247 -1 l 232 6 l 217 11 l 200 18 l 185 26 l 168 28 l 151 33 l 135 35 l 118 33 l 103 29 l 89 19 l 86 19 l 86 21 l 86 21 l 72 35 l 74 36 l 74 36 l 85 47 l 97 58 l 111 67 l 122 79 l 133 89 l 146 100 l 156 113 l 167 124 l 176 136 l 186 149 l 193 163 l 199 178 l 196 194 l 196 211 l 196 228 l 194 243 l 193 260 l 194 276 l 194 293 l 192 310 l 190 325 l 193 342 l 193 358 l 193 375 l 193 392 l 190 408 l 192 425 l 193 440 l 192 457 l 192 474 l 193 490 l 192 507 l 192 522 l 194 539 l 196 556 l 194 572 l 194 588 l 193 604 l 196 621 l 194 638 l 194 653 l 196 669 l 194 686 l 196 701 l 183 711 l 168 718 l 153 722 l 136 726 l 121 729 l 106 725 l 92 717 l 83 701 l 71 692 l 61 679 l 49 668 l 47 667 l 31 676 l 31 679 l 32 681 l 43 693 l 53 707 l 61 721 l 72 733 l 82 747 l 94 758 l 104 772 l 115 785 l 125 797 l 135 811 l 144 825 l 156 838 l 165 850 l 178 863 l 188 876 l 197 889 l 210 900 l 222 913 l 239 918 l 254 917 l 268 911 l 282 906 l 297 901 l 311 894 l 325 889 l 340 883 l 353 874 l 367 867 l 379 857 l 388 842 l 388 825 l 388 808 l 390 792 l 389 775 l 389 758 l 390 742 l 390 725 l 390 708 l 389 692 l 390 675 l 389 658 l 389 642 l 392 625 l 393 608 l 392 592 l 392 575 l 393 558 l 390 542 l 390 525 l 392 508 l 393 492 l 393 475 l 393 458 l 393 442 l 392 425 l 392 408 l 393 393 l 393 376 l 392 360 l 392 343 l 393 326 l 392 310 l 392 293 l 392 276 l 390 260 l 392 243 l 392 226 l 392 210 l 389 193 l 389 176 l 390 172 l 404 168 l 419 171 l 433 175 l 449 179 l 449 178 l 454 175 l 454 174 z "},"2":{"ha":686,"x_min":39,"x_max":650,"o":"m 650 211 l 650 207 l 640 194 l 632 179 l 619 168 l 611 153 l 600 142 l 590 129 l 579 115 l 569 101 l 560 89 l 547 79 l 536 67 l 524 56 l 513 44 l 501 32 l 489 22 l 478 11 l 463 4 l 450 -4 l 433 -8 l 419 -14 l 403 -11 l 383 -10 l 364 -1 l 349 3 l 333 6 l 318 10 l 301 13 l 286 17 l 269 19 l 254 21 l 238 25 l 222 25 l 206 28 l 189 25 l 174 26 l 157 24 l 140 21 l 125 17 l 110 11 l 96 4 l 83 -7 l 71 -18 l 58 -28 l 57 -28 l 56 -29 l 39 -19 l 39 -17 l 39 -15 l 50 -3 l 63 10 l 72 24 l 85 35 l 96 47 l 107 60 l 118 72 l 129 86 l 140 99 l 151 110 l 163 124 l 175 135 l 185 147 l 197 160 l 208 172 l 219 185 l 231 197 l 242 210 l 251 224 l 261 236 l 272 249 l 285 260 l 297 271 l 307 285 l 319 297 l 329 310 l 340 322 l 351 335 l 363 347 l 374 360 l 382 374 l 392 386 l 401 400 l 408 415 l 414 431 l 425 444 l 428 461 l 435 476 l 436 493 l 440 510 l 442 526 l 443 543 l 440 560 l 435 576 l 429 593 l 421 608 l 411 622 l 399 636 l 385 646 l 374 658 l 358 668 l 343 676 l 329 686 l 317 692 l 304 697 l 292 708 l 275 715 l 260 721 l 244 729 l 228 733 l 213 738 l 194 739 l 179 733 l 164 725 l 150 717 l 139 703 l 126 689 l 113 679 l 101 665 l 90 653 l 88 653 l 88 654 l 75 660 l 65 671 l 65 671 l 64 674 l 75 685 l 88 697 l 100 708 l 111 722 l 124 733 l 135 746 l 149 756 l 158 768 l 171 781 l 183 792 l 193 806 l 204 818 l 215 831 l 229 840 l 240 854 l 253 865 l 264 876 l 265 876 l 276 885 l 289 896 l 304 901 l 318 908 l 335 913 l 350 913 l 367 908 l 381 903 l 396 894 l 410 883 l 425 876 l 439 867 l 454 857 l 469 850 l 483 839 l 499 832 l 514 822 l 528 814 l 542 804 l 557 794 l 572 788 l 572 788 l 583 776 l 590 763 l 597 749 l 604 735 l 610 719 l 613 704 l 611 688 l 613 671 l 608 654 l 604 639 l 600 622 l 593 608 l 588 593 l 578 579 l 572 564 l 561 551 l 553 538 l 543 525 l 533 511 l 521 499 l 511 486 l 500 474 l 489 460 l 478 447 l 468 433 l 458 421 l 446 410 l 435 397 l 424 385 l 414 371 l 403 358 l 392 346 l 382 333 l 371 321 l 361 307 l 349 296 l 340 281 l 329 268 l 318 256 l 306 244 l 296 231 l 283 219 l 272 207 l 263 193 l 282 199 l 303 200 l 319 203 l 336 204 l 353 201 l 369 201 l 386 201 l 403 200 l 419 197 l 436 193 l 453 192 l 469 189 l 485 185 l 501 181 l 517 179 l 533 178 l 550 179 l 567 179 l 582 185 l 597 190 l 611 197 l 625 207 l 638 217 l 642 217 l 650 211 z "},"3":{"ha":774,"x_min":-15,"x_max":740,"o":"m 640 528 l 651 517 l 664 507 l 676 496 l 686 482 l 696 469 l 703 456 l 711 442 l 717 425 l 724 411 l 728 396 l 731 379 l 738 365 l 740 347 l 740 331 l 739 314 l 738 296 l 732 281 l 728 264 l 721 247 l 714 232 l 706 218 l 696 203 l 683 192 l 675 176 l 663 164 l 653 149 l 642 136 l 631 124 l 619 110 l 607 97 l 594 86 l 583 74 l 569 63 l 557 50 l 544 39 l 529 31 l 515 21 l 503 11 l 488 3 l 474 -6 l 458 -15 l 442 -18 l 426 -24 l 410 -29 l 393 -31 l 376 -33 l 356 -29 l 342 -26 l 326 -24 l 311 -19 l 297 -14 l 282 -10 l 265 -3 l 249 1 l 232 6 l 215 10 l 200 15 l 182 18 l 165 22 l 149 24 l 132 25 l 114 25 l 96 25 l 79 22 l 63 21 l 46 14 l 31 6 l 17 -6 l 7 -19 l 4 -21 l 1 -19 l -15 -4 l -14 -1 l -14 0 l -4 13 l 8 24 l 17 38 l 29 49 l 39 61 l 51 74 l 61 86 l 71 100 l 83 110 l 93 124 l 103 136 l 114 149 l 125 161 l 138 172 l 138 171 l 150 182 l 165 190 l 181 197 l 197 204 l 215 204 l 232 208 l 249 207 l 265 207 l 283 207 l 300 203 l 317 200 l 333 196 l 350 189 l 365 183 l 382 178 l 396 169 l 411 164 l 426 158 l 442 153 l 458 153 l 475 149 l 490 146 l 507 144 l 522 146 l 539 146 l 554 151 l 571 154 l 565 172 l 563 189 l 558 204 l 553 221 l 547 236 l 542 253 l 535 268 l 526 283 l 517 297 l 510 313 l 499 326 l 488 339 l 475 350 l 463 361 l 450 372 l 436 382 l 419 388 l 404 394 l 389 403 l 372 406 l 354 407 l 338 410 l 321 408 l 304 406 l 288 403 l 272 399 l 258 389 l 243 381 l 233 368 l 221 357 l 210 346 l 208 344 l 207 344 l 189 360 l 190 363 l 189 364 l 200 376 l 214 386 l 224 400 l 235 413 l 247 424 l 258 436 l 269 449 l 282 458 l 293 471 l 303 485 l 315 496 l 325 508 l 336 521 l 349 532 l 360 544 l 371 556 l 382 568 l 394 579 l 406 590 l 417 603 l 429 614 l 439 626 l 453 638 l 463 650 l 474 663 l 458 667 l 444 675 l 431 682 l 415 688 l 401 694 l 386 700 l 372 708 l 358 717 l 344 724 l 328 731 l 314 740 l 297 743 l 281 743 l 263 743 l 246 738 l 232 729 l 217 721 l 203 710 l 189 699 l 178 686 l 167 674 l 164 674 l 146 690 l 143 692 l 144 693 l 157 706 l 168 718 l 181 731 l 194 740 l 206 754 l 217 767 l 231 778 l 242 790 l 256 801 l 267 814 l 279 826 l 290 840 l 301 853 l 314 864 l 325 874 l 336 883 l 347 896 l 360 903 l 375 907 l 390 914 l 407 914 l 422 917 l 439 914 l 454 911 l 469 906 l 485 899 l 501 890 l 518 882 l 535 872 l 547 864 l 563 858 l 576 851 l 590 846 l 604 840 l 619 835 l 635 832 l 650 835 l 651 832 l 663 825 l 664 824 l 663 822 l 651 810 l 640 796 l 628 785 l 618 771 l 604 761 l 594 747 l 582 735 l 571 722 l 557 711 l 546 699 l 536 685 l 524 674 l 513 661 l 501 649 l 490 635 l 476 625 l 467 610 l 454 600 l 444 586 l 432 575 l 422 561 l 436 564 l 453 567 l 468 568 l 485 571 l 500 571 l 517 569 l 533 569 l 550 565 l 565 560 l 581 556 l 597 550 l 611 543 l 626 538 l 640 528 z "},"4":{"ha":771,"x_min":31,"x_max":738,"o":"m 738 490 l 736 489 l 729 474 l 718 461 l 708 446 l 699 432 l 690 417 l 679 404 l 669 389 l 660 375 l 649 361 l 640 346 l 631 332 l 621 318 l 621 301 l 618 285 l 621 267 l 619 250 l 621 233 l 621 215 l 622 199 l 624 182 l 629 165 l 631 149 l 632 149 l 643 142 l 653 144 l 656 146 l 658 144 l 661 132 l 663 131 l 651 115 l 640 103 l 631 89 l 619 75 l 607 64 l 599 49 l 585 38 l 576 24 l 564 11 l 554 -3 l 542 -15 l 531 -28 l 531 -28 l 529 -28 l 514 -19 l 500 -7 l 489 7 l 479 22 l 469 38 l 463 54 l 456 69 l 447 85 l 443 101 l 438 118 l 435 136 l 431 151 l 429 168 l 428 185 l 425 201 l 425 219 l 426 236 l 428 253 l 426 269 l 429 288 l 411 286 l 394 286 l 378 286 l 361 285 l 344 285 l 328 286 l 311 286 l 293 286 l 276 285 l 260 286 l 243 286 l 226 288 l 210 286 l 193 285 l 176 285 l 160 286 l 143 285 l 126 288 l 108 285 l 92 286 l 75 288 l 58 285 l 42 286 l 31 292 l 33 307 l 40 321 l 50 335 l 60 349 l 69 363 l 81 375 l 92 388 l 103 400 l 113 414 l 122 429 l 132 442 l 144 454 l 156 468 l 165 482 l 175 496 l 185 510 l 197 521 l 208 535 l 217 549 l 228 563 l 239 575 l 250 588 l 260 603 l 271 614 l 281 628 l 292 640 l 301 654 l 313 667 l 324 678 l 333 692 l 344 703 l 357 715 l 365 729 l 376 742 l 388 754 l 400 765 l 408 779 l 419 790 l 432 801 l 442 815 l 453 828 l 465 839 l 475 851 l 486 864 l 500 874 l 513 885 l 522 897 l 538 904 l 550 914 l 551 914 l 569 914 l 588 913 l 603 903 l 614 889 l 618 872 l 621 856 l 624 839 l 621 822 l 624 806 l 622 790 l 621 774 l 621 757 l 622 740 l 624 724 l 624 708 l 621 692 l 622 675 l 621 658 l 622 642 l 621 626 l 621 610 l 622 593 l 624 576 l 622 561 l 621 544 l 624 528 l 621 511 l 624 496 l 624 479 l 622 463 l 638 465 l 653 468 l 668 474 l 682 478 l 697 483 l 710 492 l 724 500 l 726 499 l 736 490 l 738 490 m 411 726 l 400 714 l 390 700 l 381 688 l 368 675 l 357 663 l 349 649 l 336 638 l 328 624 l 315 611 l 306 599 l 296 585 l 285 572 l 274 560 l 263 547 l 253 535 l 243 521 l 232 508 l 224 494 l 213 482 l 229 482 l 244 482 l 261 482 l 276 483 l 293 483 l 308 481 l 325 482 l 342 481 l 357 482 l 374 481 l 389 482 l 406 482 l 419 483 l 421 499 l 422 515 l 419 531 l 422 547 l 421 563 l 421 579 l 422 596 l 421 611 l 422 628 l 421 644 l 421 660 l 421 676 l 419 692 l 419 708 l 421 724 l 422 742 l 411 726 z "},"5":{"ha":776,"x_min":24,"x_max":758,"o":"m 758 896 l 757 894 l 751 879 l 744 864 l 736 849 l 731 833 l 721 818 l 715 803 l 707 788 l 700 772 l 694 756 l 685 742 l 678 726 l 669 711 l 661 697 l 660 694 l 643 699 l 626 700 l 610 701 l 594 701 l 578 706 l 561 704 l 544 706 l 528 708 l 511 708 l 494 707 l 479 711 l 463 708 l 446 710 l 429 711 l 413 713 l 396 708 l 381 710 l 364 710 l 347 707 l 331 707 l 314 704 l 297 706 l 282 703 l 265 701 l 260 685 l 253 669 l 246 654 l 239 639 l 233 622 l 226 608 l 219 593 l 214 576 l 207 561 l 201 544 l 194 529 l 188 515 l 182 499 l 174 485 l 167 468 l 160 453 l 154 439 l 164 451 l 178 461 l 186 475 l 199 488 l 211 500 l 221 515 l 235 526 l 246 539 l 258 551 l 271 564 l 286 572 l 301 581 l 317 589 l 332 593 l 349 594 l 365 597 l 382 597 l 397 593 l 414 593 l 429 589 l 446 586 l 463 582 l 476 575 l 493 571 l 508 565 l 524 558 l 538 550 l 553 544 l 568 536 l 583 529 l 596 518 l 608 507 l 621 496 l 633 485 l 643 471 l 654 458 l 661 443 l 671 429 l 674 414 l 676 397 l 679 381 l 681 364 l 679 347 l 676 332 l 671 315 l 668 300 l 668 299 l 658 286 l 650 272 l 639 260 l 629 246 l 619 233 l 610 219 l 603 206 l 593 192 l 582 178 l 571 167 l 563 151 l 554 138 l 543 125 l 535 111 l 524 99 l 514 85 l 504 72 l 496 58 l 483 47 l 474 36 l 463 24 l 449 15 l 435 8 l 422 -1 l 407 -6 l 392 -12 l 376 -15 l 361 -19 l 346 -18 l 329 -19 l 313 -17 l 297 -12 l 281 -10 l 265 -7 l 249 -3 l 235 4 l 218 7 l 203 11 l 188 19 l 169 21 l 153 25 l 136 26 l 119 29 l 101 28 l 86 22 l 69 18 l 54 8 l 43 -4 l 40 -3 l 26 6 l 24 6 l 25 8 l 33 22 l 44 35 l 54 49 l 65 63 l 75 75 l 86 89 l 97 101 l 106 115 l 118 126 l 129 140 l 135 147 l 147 160 l 157 172 l 169 185 l 183 196 l 199 203 l 215 206 l 232 211 l 249 208 l 267 206 l 283 206 l 300 200 l 315 194 l 333 192 l 350 185 l 367 179 l 383 178 l 400 172 l 418 172 l 435 171 l 451 167 l 469 167 l 486 167 l 503 171 l 521 169 l 525 171 l 528 188 l 532 204 l 528 222 l 524 239 l 517 254 l 508 269 l 500 283 l 490 299 l 476 310 l 465 322 l 453 333 l 439 344 l 426 356 l 411 363 l 397 374 l 382 382 l 367 390 l 351 397 l 336 406 l 321 413 l 306 417 l 289 421 l 274 425 l 258 428 l 242 431 l 226 429 l 210 426 l 192 424 l 176 417 l 163 406 l 150 394 l 136 383 l 125 369 l 117 354 l 114 354 l 113 354 l 99 363 l 97 364 l 104 379 l 108 394 l 115 410 l 121 426 l 129 440 l 133 456 l 139 472 l 144 488 l 153 501 l 158 517 l 164 532 l 172 547 l 176 563 l 183 578 l 188 594 l 196 608 l 200 625 l 207 639 l 213 654 l 219 669 l 225 685 l 232 699 l 236 715 l 243 731 l 250 744 l 256 761 l 261 776 l 268 790 l 272 807 l 281 821 l 286 836 l 290 853 l 299 867 l 304 882 l 310 897 l 317 913 l 318 913 l 335 917 l 351 917 l 368 919 l 386 919 l 403 922 l 419 922 l 438 921 l 454 922 l 471 919 l 489 921 l 506 921 l 522 919 l 539 917 l 557 918 l 574 915 l 590 915 l 607 913 l 624 911 l 640 910 l 657 910 l 674 906 l 690 907 l 707 901 l 724 900 l 740 901 l 757 899 l 758 896 z "},"6":{"ha":619,"x_min":29,"x_max":588,"o":"m 526 556 l 533 542 l 542 529 l 551 517 l 560 503 l 564 488 l 571 474 l 578 460 l 581 443 l 586 428 l 588 411 l 588 394 l 586 379 l 586 363 l 583 346 l 581 331 l 575 315 l 569 300 l 563 285 l 554 271 l 546 256 l 536 242 l 531 225 l 522 210 l 513 196 l 503 182 l 494 167 l 485 153 l 475 139 l 467 125 l 457 110 l 447 97 l 436 83 l 426 69 l 414 57 l 404 42 l 392 29 l 378 19 l 367 6 l 350 -1 l 335 -10 l 318 -10 l 301 -11 l 286 -10 l 269 -10 l 254 -8 l 239 -3 l 222 1 l 208 7 l 193 11 l 178 18 l 164 26 l 150 35 l 139 46 l 125 54 l 115 67 l 104 78 l 93 90 l 85 103 l 74 115 l 67 129 l 63 146 l 54 160 l 50 176 l 44 193 l 42 210 l 38 226 l 36 243 l 35 260 l 35 276 l 32 293 l 31 310 l 31 326 l 29 344 l 31 361 l 31 378 l 31 394 l 31 411 l 33 428 l 33 444 l 35 461 l 38 478 l 38 494 l 42 511 l 42 528 l 47 544 l 47 561 l 53 576 l 57 592 l 65 607 l 72 621 l 81 636 l 89 649 l 97 664 l 108 675 l 117 690 l 128 703 l 135 718 l 144 731 l 154 744 l 164 758 l 175 769 l 183 783 l 194 796 l 203 810 l 214 822 l 222 836 l 233 849 l 240 863 l 251 875 l 261 889 l 272 901 l 282 914 l 297 922 l 314 919 l 328 910 l 342 901 l 356 893 l 371 886 l 385 876 l 400 872 l 415 867 l 429 857 l 446 854 l 461 849 l 478 849 l 494 847 l 510 849 l 522 857 l 532 864 l 533 867 l 536 867 l 547 856 l 549 854 l 538 840 l 531 825 l 519 813 l 510 799 l 500 785 l 490 771 l 481 757 l 471 743 l 460 732 l 451 717 l 442 703 l 432 690 l 419 679 l 419 678 l 403 671 l 385 672 l 368 671 l 350 672 l 333 679 l 315 682 l 300 689 l 283 696 l 268 704 l 250 708 l 235 717 l 219 726 l 207 732 l 194 738 l 185 724 l 181 708 l 175 693 l 175 676 l 174 660 l 172 643 l 168 628 l 168 611 l 167 594 l 165 578 l 167 561 l 165 546 l 165 529 l 165 513 l 167 496 l 167 481 l 167 464 l 169 447 l 168 432 l 181 443 l 192 454 l 203 467 l 213 479 l 225 492 l 236 504 l 250 514 l 261 526 l 272 538 l 285 549 l 296 563 l 307 575 l 318 586 l 331 597 l 342 611 l 353 622 l 365 633 l 378 644 l 388 657 l 390 656 l 407 650 l 422 642 l 436 633 l 451 624 l 465 614 l 478 603 l 492 593 l 503 579 l 515 567 l 526 556 m 190 321 l 196 306 l 206 292 l 214 278 l 221 263 l 232 251 l 243 239 l 256 228 l 269 219 l 283 210 l 299 204 l 314 199 l 331 194 l 346 189 l 363 188 l 379 186 l 396 185 l 413 188 l 429 189 l 446 192 l 447 197 l 446 213 l 446 229 l 444 244 l 442 260 l 440 275 l 439 292 l 435 307 l 429 322 l 421 336 l 415 350 l 407 365 l 400 379 l 389 393 l 379 406 l 368 418 l 356 428 l 342 438 l 328 447 l 314 457 l 300 464 l 285 471 l 271 479 l 256 486 l 244 472 l 231 461 l 219 447 l 208 433 l 196 421 l 185 408 l 172 397 l 174 381 l 178 367 l 181 351 l 185 336 l 190 321 z "},"7":{"ha":672,"x_min":25,"x_max":649,"o":"m 649 947 l 647 944 l 638 931 l 626 917 l 615 904 l 603 892 l 594 878 l 582 865 l 569 853 l 560 840 l 549 826 l 538 814 l 528 800 l 518 786 l 506 774 l 494 760 l 483 747 l 475 733 l 464 721 l 454 707 l 443 696 l 436 681 l 425 669 l 419 654 l 411 640 l 404 625 l 396 611 l 390 596 l 385 581 l 378 567 l 371 551 l 368 536 l 363 518 l 360 499 l 374 496 l 392 493 l 410 492 l 426 490 l 444 486 l 463 488 l 479 488 l 497 490 l 513 497 l 526 508 l 539 519 l 542 521 l 549 515 l 550 514 l 547 514 l 538 500 l 529 488 l 519 474 l 511 460 l 499 449 l 490 435 l 478 424 l 468 411 l 460 396 l 447 385 l 436 372 l 422 361 l 406 354 l 389 350 l 372 346 l 356 346 l 353 329 l 354 313 l 351 296 l 351 279 l 350 261 l 350 244 l 349 228 l 349 211 l 350 193 l 349 176 l 353 171 l 374 175 l 376 175 l 388 168 l 389 165 l 376 151 l 367 138 l 356 124 l 347 110 l 336 96 l 328 82 l 317 68 l 306 56 l 296 40 l 286 28 l 276 14 l 268 -1 l 258 -15 l 246 -28 l 246 -28 l 244 -29 l 229 -24 l 218 -10 l 211 6 l 207 22 l 201 38 l 196 54 l 192 69 l 189 86 l 188 104 l 183 119 l 181 136 l 181 154 l 179 171 l 178 188 l 176 204 l 176 221 l 175 238 l 174 256 l 176 272 l 174 289 l 174 306 l 175 325 l 174 339 l 176 353 l 176 368 l 158 367 l 142 363 l 124 358 l 107 353 l 92 346 l 75 339 l 63 328 l 49 317 l 35 307 l 33 304 l 32 307 l 25 314 l 25 315 l 35 328 l 44 340 l 54 353 l 63 365 l 74 378 l 81 392 l 93 403 l 103 417 l 114 429 l 125 442 l 138 453 l 151 463 l 164 472 l 178 483 l 193 489 l 208 494 l 225 500 l 229 501 l 231 501 l 244 500 l 253 517 l 265 528 l 274 543 l 285 556 l 296 568 l 307 581 l 319 592 l 329 606 l 340 618 l 353 631 l 364 643 l 376 656 l 386 667 l 399 678 l 408 690 l 418 704 l 429 715 l 440 728 l 450 740 l 461 753 l 471 765 l 454 767 l 438 767 l 421 767 l 404 765 l 388 768 l 371 767 l 354 768 l 338 768 l 321 768 l 304 771 l 288 771 l 271 769 l 256 771 l 239 772 l 222 772 l 206 771 l 189 774 l 172 771 l 156 774 l 140 772 l 124 768 l 110 758 l 93 750 l 82 738 l 68 725 l 57 711 l 54 710 l 38 721 l 36 724 l 44 739 l 56 753 l 64 768 l 75 783 l 83 799 l 94 813 l 104 828 l 114 842 l 124 854 l 133 867 l 143 879 l 154 892 l 168 901 l 176 915 l 190 924 l 203 933 l 217 942 l 232 946 l 232 949 l 249 947 l 265 946 l 282 947 l 299 949 l 315 946 l 332 947 l 349 947 l 365 946 l 382 949 l 399 947 l 415 947 l 432 947 l 449 946 l 465 946 l 481 947 l 497 949 l 514 949 l 531 947 l 547 947 l 564 949 l 581 947 l 597 946 l 613 946 l 629 947 l 646 949 l 649 947 z "},"8":{"ha":629,"x_min":36,"x_max":596,"o":"m 581 718 l 569 704 l 557 693 l 544 681 l 536 665 l 524 653 l 511 642 l 499 631 l 489 617 l 478 604 l 467 592 l 453 579 l 469 572 l 482 563 l 497 556 l 510 547 l 522 538 l 536 529 l 547 518 l 557 507 l 569 496 l 578 482 l 585 467 l 590 451 l 592 435 l 594 419 l 594 403 l 594 388 l 592 371 l 590 356 l 585 339 l 582 324 l 578 308 l 572 293 l 567 276 l 561 260 l 551 246 l 543 231 l 536 215 l 528 200 l 521 185 l 510 172 l 501 157 l 492 142 l 482 128 l 475 115 l 465 101 l 457 88 l 443 76 l 433 64 l 419 53 l 406 43 l 392 33 l 378 25 l 364 15 l 350 7 l 333 1 l 318 -3 l 303 -10 l 286 -11 l 269 -17 l 253 -19 l 236 -21 l 219 -21 l 218 -19 l 201 -22 l 185 -18 l 167 -17 l 151 -11 l 135 -6 l 121 6 l 107 14 l 93 24 l 82 38 l 71 50 l 64 65 l 56 81 l 50 97 l 44 113 l 42 131 l 40 147 l 39 164 l 36 181 l 39 197 l 40 215 l 47 231 l 54 246 l 63 260 l 71 275 l 81 289 l 90 303 l 101 315 l 114 326 l 124 342 l 136 353 l 147 365 l 160 376 l 174 388 l 185 400 l 197 411 l 211 422 l 225 432 l 238 443 l 221 449 l 204 456 l 188 461 l 171 465 l 154 471 l 138 478 l 122 483 l 107 488 l 90 492 l 78 500 l 63 506 l 53 518 l 44 531 l 36 544 l 36 561 l 36 578 l 39 596 l 44 611 l 51 626 l 60 642 l 67 658 l 76 672 l 88 685 l 100 697 l 111 710 l 122 722 l 132 736 l 142 750 l 153 763 l 163 776 l 175 788 l 185 800 l 196 814 l 206 828 l 215 840 l 226 854 l 238 867 l 249 878 l 258 893 l 271 903 l 286 908 l 301 913 l 317 914 l 333 914 l 350 913 l 365 910 l 381 903 l 396 899 l 413 896 l 426 889 l 443 883 l 457 878 l 472 871 l 488 867 l 501 857 l 518 853 l 526 849 l 540 842 l 553 833 l 567 825 l 576 814 l 585 801 l 590 788 l 594 769 l 596 751 l 590 733 l 581 718 l 581 718 m 426 611 l 422 629 l 417 649 l 407 661 l 394 672 l 381 679 l 367 688 l 353 696 l 338 701 l 324 710 l 307 713 l 293 718 l 278 724 l 261 726 l 246 731 l 229 732 l 214 735 l 197 736 l 194 739 l 179 733 l 174 717 l 176 700 l 189 686 l 201 675 l 215 665 l 232 660 l 246 650 l 263 646 l 279 638 l 294 632 l 311 626 l 328 622 l 344 617 l 361 613 l 381 606 l 382 606 l 396 604 l 410 599 l 424 592 l 426 611 m 169 301 l 171 283 l 175 267 l 178 249 l 183 232 l 192 217 l 201 201 l 211 189 l 222 178 l 236 169 l 250 161 l 264 154 l 279 149 l 296 143 l 314 140 l 331 140 l 349 140 l 367 142 l 383 146 l 401 147 l 415 151 l 431 157 l 443 165 l 457 172 l 468 182 l 478 193 l 486 208 l 488 226 l 490 243 l 489 260 l 483 276 l 476 292 l 467 306 l 454 318 l 443 331 l 432 343 l 418 354 l 403 361 l 389 372 l 374 381 l 360 389 l 344 397 l 328 403 l 314 413 l 297 418 l 282 426 l 265 432 l 256 424 l 247 414 l 233 403 l 221 390 l 207 379 l 196 365 l 186 350 l 176 336 l 171 319 l 169 301 z "},"9":{"ha":603,"x_min":22,"x_max":579,"o":"m 444 876 l 457 867 l 469 857 l 483 847 l 493 835 l 504 824 l 514 811 l 524 799 l 532 786 l 540 772 l 547 757 l 551 742 l 558 725 l 563 710 l 565 693 l 569 676 l 572 660 l 572 642 l 575 625 l 575 608 l 576 592 l 578 575 l 576 558 l 579 540 l 576 524 l 578 507 l 575 490 l 575 474 l 574 457 l 575 440 l 572 424 l 571 407 l 568 390 l 564 375 l 564 357 l 560 342 l 557 325 l 551 310 l 543 296 l 535 282 l 526 268 l 518 254 l 511 239 l 500 226 l 492 213 l 482 199 l 474 185 l 463 172 l 454 158 l 443 146 l 436 131 l 425 118 l 415 106 l 406 93 l 397 78 l 386 67 l 376 53 l 365 40 l 356 28 l 347 14 l 336 3 l 328 -11 l 308 -21 l 296 -17 l 282 -8 l 268 0 l 254 10 l 239 15 l 225 25 l 210 29 l 194 38 l 179 42 l 165 50 l 149 53 l 132 53 l 117 54 l 100 51 l 88 46 l 79 36 l 78 35 l 75 36 l 63 46 l 61 49 l 72 61 l 81 76 l 90 90 l 100 103 l 111 117 l 121 131 l 131 143 l 139 158 l 149 172 l 160 185 l 168 199 l 181 210 l 190 224 l 192 224 l 207 231 l 225 233 l 242 231 l 260 229 l 276 225 l 293 219 l 310 214 l 326 206 l 342 200 l 358 194 l 374 185 l 390 178 l 401 169 l 414 165 l 422 179 l 429 193 l 431 210 l 433 226 l 436 242 l 436 258 l 439 275 l 440 292 l 440 307 l 442 324 l 443 340 l 440 357 l 444 372 l 443 389 l 440 406 l 443 422 l 440 438 l 442 454 l 440 471 l 429 460 l 418 446 l 407 435 l 396 422 l 382 413 l 371 400 l 361 386 l 350 374 l 338 363 l 326 350 l 315 339 l 301 328 l 290 315 l 279 304 l 267 293 l 256 281 l 246 268 l 232 258 l 222 244 l 218 243 l 203 251 l 188 258 l 174 269 l 158 278 l 146 289 l 131 297 l 118 310 l 107 322 l 94 335 l 86 347 l 78 360 l 67 372 l 61 388 l 53 400 l 44 414 l 39 428 l 33 443 l 29 458 l 25 475 l 22 490 l 24 507 l 22 524 l 24 539 l 28 556 l 31 571 l 38 586 l 42 601 l 47 617 l 57 631 l 65 644 l 71 661 l 81 674 l 88 689 l 97 701 l 104 717 l 115 729 l 121 744 l 133 757 l 142 771 l 150 785 l 161 797 l 168 813 l 178 825 l 189 838 l 201 849 l 211 861 l 221 875 l 233 886 l 244 897 l 260 904 l 275 911 l 275 911 l 290 911 l 307 914 l 322 911 l 339 910 l 354 908 l 371 907 l 386 901 l 401 896 l 415 889 l 431 883 l 444 876 m 435 521 l 431 536 l 429 551 l 425 567 l 417 581 l 413 597 l 406 611 l 394 624 l 386 638 l 375 650 l 365 663 l 351 672 l 339 682 l 325 692 l 310 697 l 294 703 l 279 710 l 263 711 l 247 715 l 231 715 l 214 714 l 197 715 l 181 714 l 165 710 l 164 704 l 165 689 l 164 674 l 167 658 l 165 642 l 171 626 l 171 610 l 175 594 l 182 581 l 186 565 l 196 551 l 204 538 l 211 524 l 219 508 l 231 496 l 243 486 l 256 475 l 269 465 l 281 453 l 296 446 l 310 438 l 324 429 l 339 424 l 354 415 l 367 428 l 378 442 l 388 456 l 401 468 l 413 481 l 425 492 l 436 506 l 435 521 z "},"\u0000":{"ha":0,"x_min":0,"x_max":0,"o":""},"\r":{"ha":347,"x_min":0,"x_max":0,"o":""}," ":{"ha":286,"x_min":0,"x_max":0,"o":""},"A":{"ha":982,"x_min":47,"x_max":1011,"o":"m 217 676 l 204 688 l 204 689 l 213 703 q 214 704 213 704 l 226 715 l 236 728 q 239 728 236 731 l 253 719 l 265 707 l 278 696 q 279 695 279 696 q 278 694 279 694 l 268 681 l 256 668 l 246 654 l 244 653 l 244 653 l 243 653 l 229 664 l 217 676 m 229 383 l 215 393 l 204 406 l 204 408 l 215 421 l 225 435 l 236 449 l 238 449 l 239 449 l 251 436 l 265 428 l 267 428 l 276 415 l 276 413 l 267 400 l 256 386 l 246 374 q 244 372 244 372 q 243 374 243 372 l 229 383 m 215 114 l 203 126 l 203 129 l 225 156 l 236 167 l 239 167 l 253 158 l 265 147 l 276 135 q 278 133 278 133 l 267 119 l 257 107 l 244 94 l 243 94 l 243 94 l 229 103 l 215 114 m 82 -161 l 68 -169 l 65 -169 l 60 -165 l 60 -162 l 69 -149 l 81 -136 l 93 -124 l 104 -111 l 115 -97 l 131 -86 l 142 -74 l 156 -61 l 168 -49 l 183 -39 l 199 -29 l 215 -21 l 231 -12 l 247 -7 l 264 -4 l 272 11 l 275 31 l 281 49 l 281 67 l 283 86 l 281 101 l 281 119 l 279 136 l 282 154 l 279 169 l 281 188 l 279 201 l 263 207 l 244 210 l 208 215 l 190 221 l 174 218 l 157 214 l 143 203 l 131 192 l 122 175 q 121 174 122 174 q 119 175 119 174 l 111 181 q 111 183 110 182 l 119 199 l 129 213 l 139 228 l 147 243 l 158 257 l 168 272 l 179 286 l 192 299 l 201 313 l 201 314 l 215 325 l 228 336 l 228 336 l 244 343 l 261 347 l 275 350 l 275 367 l 276 385 l 276 404 l 276 422 l 275 440 l 274 458 l 274 475 l 258 478 l 242 481 l 224 485 l 207 488 l 190 492 l 172 492 l 157 485 l 143 474 l 131 463 l 122 449 l 119 449 l 111 453 l 111 453 q 111 454 110 454 l 119 469 l 128 485 l 147 515 l 160 528 l 168 543 l 179 557 l 192 571 l 203 585 l 215 596 l 228 607 l 228 607 l 243 615 l 260 621 l 260 621 l 275 621 l 275 638 l 278 657 l 278 672 l 281 689 l 282 725 l 285 742 l 285 743 l 292 758 l 297 775 l 299 776 l 304 782 l 292 778 l 292 778 l 274 776 l 254 778 l 236 779 l 218 783 l 200 786 l 181 788 l 163 792 l 144 794 l 126 799 l 110 800 l 94 793 l 79 783 l 69 769 l 60 756 l 57 756 l 49 761 q 49 763 47 763 l 57 778 l 68 792 l 76 807 l 90 819 l 99 835 l 108 849 l 119 863 l 129 878 l 140 892 l 151 906 l 164 917 l 181 925 l 181 926 l 197 929 l 215 932 l 233 931 l 233 931 l 250 925 l 267 922 l 283 918 l 300 915 l 350 910 l 368 910 l 385 911 l 417 919 l 432 926 l 447 933 l 461 943 l 475 954 q 476 954 476 954 l 482 949 q 482 946 485 949 l 471 933 l 458 921 l 449 907 l 438 893 l 428 879 l 421 864 l 414 847 l 410 832 l 407 813 l 408 775 l 410 757 l 410 739 l 410 721 l 408 685 l 408 667 l 408 650 l 410 632 l 408 614 l 408 596 l 410 578 l 408 560 l 410 543 l 408 525 l 408 507 l 407 489 l 408 472 l 408 454 l 410 436 l 408 418 l 410 400 l 407 382 l 410 364 l 410 346 l 408 328 l 410 310 l 407 292 l 407 275 l 410 257 l 410 239 l 407 221 l 408 203 l 408 185 l 408 150 l 404 133 l 401 115 l 396 99 l 389 83 l 379 69 l 368 56 l 358 40 l 358 40 l 343 31 l 331 18 l 317 7 l 307 -3 l 322 -3 l 340 0 l 340 0 l 358 -4 l 414 -7 l 419 -8 l 424 6 l 429 21 l 433 38 l 436 53 l 436 69 l 439 103 l 436 121 l 438 138 l 438 156 l 439 172 l 439 190 l 436 207 l 439 225 l 439 243 l 438 260 l 438 278 l 438 296 l 438 313 l 436 331 l 439 349 l 439 365 l 438 383 l 436 435 l 439 453 l 438 488 l 436 504 l 438 522 l 436 557 l 439 575 l 438 592 l 438 610 l 438 626 l 439 644 l 436 661 l 438 679 l 438 696 l 438 713 l 440 729 l 439 746 l 443 763 l 444 779 l 451 814 l 460 829 l 465 844 l 475 860 l 483 875 l 506 901 l 529 928 l 542 940 l 553 954 l 565 965 l 579 976 l 590 990 l 601 1003 l 628 1028 l 629 1028 l 631 1026 l 635 1019 l 635 1018 l 622 1004 l 611 990 l 601 975 l 589 961 l 582 944 l 574 929 l 567 913 l 565 894 l 564 876 l 565 865 l 575 878 l 586 894 l 588 910 l 589 928 l 589 928 l 592 933 q 594 935 593 935 l 604 932 q 607 931 606 932 l 608 929 l 610 928 l 610 908 l 611 892 l 624 882 l 635 868 l 635 865 l 624 850 l 608 835 l 610 817 l 611 799 l 610 781 l 608 763 l 610 746 l 610 728 l 611 710 l 610 692 l 610 679 l 617 689 l 625 703 l 638 717 l 646 731 l 656 744 l 667 758 l 675 772 l 686 786 l 696 800 l 707 814 l 718 826 l 728 840 l 738 854 l 746 869 l 757 882 l 768 896 l 775 911 l 775 911 l 788 924 l 796 936 q 797 938 797 938 l 799 938 l 810 925 l 822 915 l 835 903 l 846 890 l 858 881 l 858 881 l 869 867 l 882 857 l 893 844 l 907 842 l 921 840 q 922 839 922 840 l 926 833 l 926 832 l 924 817 l 922 801 l 921 785 l 922 767 l 921 749 l 922 732 l 922 714 l 924 696 l 922 678 l 921 661 l 922 643 l 924 625 l 924 608 l 924 590 l 922 572 l 925 554 l 925 536 l 924 519 l 925 501 l 925 483 l 926 467 l 925 449 l 926 431 l 925 396 l 926 378 l 925 361 l 928 343 l 926 325 l 925 307 l 926 290 l 926 272 l 925 254 l 926 238 l 926 219 l 925 201 l 924 185 l 918 168 l 918 150 l 908 117 l 907 100 l 901 83 l 901 83 l 892 69 l 883 54 l 883 54 l 869 42 l 858 29 l 858 28 l 843 18 l 832 6 l 821 -3 l 831 -4 l 846 -4 l 860 -7 l 879 -10 l 897 -12 l 917 -15 l 936 -17 l 954 -17 l 972 -11 l 988 0 l 1001 13 q 1004 13 1001 15 l 1010 8 q 1011 7 1011 8 q 1010 6 1010 7 l 999 -7 l 978 -36 l 967 -49 l 958 -64 l 946 -78 l 935 -90 l 925 -104 l 911 -117 l 897 -126 l 881 -132 l 863 -136 l 863 -136 l 846 -135 l 828 -135 l 811 -132 l 793 -131 l 776 -129 l 758 -125 l 742 -124 l 725 -121 l 707 -119 l 690 -119 l 674 -119 l 657 -124 l 640 -128 l 624 -132 l 610 -140 l 596 -150 l 582 -160 l 569 -169 l 568 -171 l 567 -169 l 560 -165 l 560 -164 l 560 -162 l 571 -150 l 581 -137 l 589 -124 l 601 -112 l 610 -99 l 619 -83 l 633 -71 l 644 -58 l 658 -46 l 672 -33 l 688 -24 l 701 -14 l 701 -14 l 736 -3 l 738 -3 l 758 -4 l 779 -3 l 785 14 l 789 32 l 793 50 l 794 68 l 796 86 l 796 103 l 794 119 l 794 136 l 796 153 l 797 171 l 794 188 l 794 188 l 796 204 l 796 221 l 794 238 l 796 254 l 781 253 l 763 253 l 746 253 l 728 251 l 711 251 l 693 254 l 676 253 l 660 254 l 643 253 l 625 253 l 611 253 l 610 239 l 611 225 l 622 214 l 635 201 q 635 199 638 201 l 624 182 l 611 167 l 611 153 l 611 138 l 610 124 l 624 113 l 636 100 l 636 97 l 624 81 l 611 65 l 608 49 l 610 31 l 608 31 l 606 25 l 604 25 l 593 25 l 593 26 l 589 29 l 588 31 l 588 50 l 589 68 l 575 79 l 561 90 l 561 93 l 574 110 l 589 125 l 589 140 l 588 156 l 589 169 l 575 179 l 565 189 l 564 185 l 563 168 l 558 150 l 557 133 l 551 117 l 549 100 l 543 85 l 535 68 l 525 54 l 514 42 l 501 31 l 488 19 l 475 8 l 461 -3 l 453 -11 l 467 -12 l 485 -15 l 503 -18 l 521 -15 l 538 -14 l 553 -6 l 582 13 l 583 13 l 589 8 q 590 7 590 7 l 590 6 l 581 -7 l 568 -18 l 557 -32 l 546 -43 l 536 -57 l 524 -68 l 513 -81 l 500 -92 l 490 -104 q 489 -106 489 -104 l 475 -114 l 461 -125 l 461 -125 l 428 -135 l 410 -137 l 393 -136 l 375 -133 l 358 -133 l 342 -131 l 324 -126 l 290 -126 l 272 -122 l 256 -121 l 239 -119 l 222 -119 l 206 -118 l 190 -122 l 172 -122 l 157 -128 l 140 -131 l 125 -137 l 110 -144 l 82 -161 m 567 200 l 578 211 l 589 226 l 589 244 l 590 279 l 589 297 l 589 315 l 590 333 l 588 350 l 588 350 l 590 368 l 589 385 l 589 403 l 588 421 l 589 439 l 589 456 l 590 474 l 588 490 l 589 525 l 578 538 q 578 539 576 539 l 589 556 l 589 574 l 590 608 l 589 626 l 589 644 l 590 661 l 590 679 l 588 696 l 589 714 l 589 732 l 590 750 l 590 767 l 588 785 l 588 803 l 589 819 l 588 836 l 576 847 l 567 856 l 565 822 l 567 806 l 567 788 l 567 771 l 565 753 l 565 736 l 565 718 l 567 701 l 567 683 l 567 665 l 567 649 l 568 631 l 567 613 l 569 596 l 569 578 l 569 561 l 568 543 l 569 525 l 571 508 l 571 474 l 569 456 l 572 439 l 572 439 l 569 421 l 572 404 l 571 386 l 572 351 l 571 333 l 571 317 l 571 299 l 569 282 l 569 264 l 571 247 l 568 213 l 567 200 m 797 665 l 797 683 l 797 699 l 786 711 l 775 724 l 763 735 l 751 747 l 739 758 l 729 772 l 719 781 l 688 740 l 676 725 l 665 710 l 654 696 l 643 682 l 632 667 l 613 638 l 611 618 l 610 599 l 611 583 l 621 593 l 629 607 l 640 621 l 654 633 l 665 646 l 668 646 l 682 638 l 696 626 l 710 617 l 724 604 l 738 594 l 750 582 l 763 571 l 774 557 q 774 556 775 556 l 765 542 l 753 528 l 743 514 l 732 500 l 721 486 l 710 472 l 697 460 l 685 449 l 683 449 l 669 457 l 657 467 l 646 479 l 619 497 l 611 506 l 610 493 l 611 475 l 611 457 l 611 440 l 611 422 l 613 408 l 626 407 l 644 407 l 661 407 l 679 407 l 696 407 l 713 408 l 731 408 l 747 408 l 764 407 l 782 408 l 797 407 l 796 422 l 796 440 l 797 457 l 797 475 l 797 492 l 797 510 l 797 526 l 797 544 l 799 561 l 797 579 l 797 596 l 797 614 l 797 631 l 797 649 l 797 665 z "},"B":{"ha":954,"x_min":40,"x_max":936,"o":"m 206 676 l 193 688 q 192 689 192 689 l 201 703 l 213 715 l 224 729 q 225 731 225 731 l 226 731 l 240 718 l 254 708 l 267 696 l 267 693 l 254 681 l 243 668 l 233 654 l 232 654 l 232 654 l 231 654 l 217 664 l 206 676 m 204 393 l 193 406 q 193 408 192 407 l 201 422 l 214 433 l 224 446 q 226 447 225 447 l 240 439 l 240 438 l 253 426 l 264 415 q 265 413 265 414 l 244 386 l 233 375 l 232 374 q 231 375 231 374 l 217 382 l 204 393 m 204 114 l 192 126 l 192 129 l 201 143 l 213 156 l 224 167 q 226 168 226 168 l 239 157 l 253 147 l 267 136 l 267 133 l 254 121 l 243 107 l 233 94 l 232 94 l 231 94 l 217 103 l 204 114 m 40 761 l 40 761 l 40 763 l 51 776 l 58 792 l 69 807 l 81 819 l 92 833 l 103 849 l 111 864 l 121 878 l 132 892 l 144 904 l 156 917 q 157 918 157 918 l 172 926 l 172 926 l 190 929 l 207 932 l 208 932 l 225 928 l 243 928 l 243 928 l 260 922 l 275 918 l 292 917 l 310 914 l 326 911 l 343 911 l 360 908 l 376 913 l 393 914 l 408 919 l 424 926 l 439 933 l 453 943 l 467 953 q 469 953 467 953 l 474 949 q 475 947 475 949 l 474 946 l 461 935 l 453 921 q 451 919 451 921 l 439 908 l 431 893 l 421 879 l 413 864 l 406 847 l 403 832 l 400 813 l 400 793 l 400 775 l 401 757 l 399 739 l 401 721 l 401 703 l 403 685 l 401 667 l 401 650 l 400 632 l 400 614 l 400 561 l 401 543 l 400 525 l 401 507 l 401 489 l 401 472 l 401 454 l 401 436 l 401 418 l 400 400 l 400 382 l 401 364 l 401 346 l 401 328 l 400 310 l 400 293 l 401 275 l 401 257 l 399 239 l 401 221 l 400 203 l 401 185 l 400 167 l 399 150 l 397 133 l 393 115 l 388 100 l 382 83 l 382 82 l 371 68 l 350 42 l 349 40 l 335 31 l 321 18 l 299 -3 l 311 -4 l 328 -1 l 346 -1 l 363 -3 l 381 -1 l 397 -3 l 413 -1 l 418 15 l 424 32 l 426 50 l 431 68 l 431 86 l 431 103 l 429 121 l 431 138 l 429 156 l 432 172 l 429 190 l 431 208 l 429 225 l 429 243 l 431 260 l 429 278 l 431 296 l 431 313 l 429 331 l 429 331 l 431 349 l 429 365 l 431 383 l 429 400 l 429 418 l 431 435 l 429 453 l 431 469 l 431 488 l 431 504 l 429 522 l 429 540 l 429 557 l 431 575 l 431 592 l 431 610 l 431 626 l 429 644 l 431 661 l 429 678 l 431 696 l 431 713 l 432 729 l 433 763 l 433 764 l 438 781 l 439 797 l 439 797 l 444 813 l 449 829 l 457 846 l 467 860 l 475 875 l 488 888 l 508 915 l 521 928 l 533 940 l 546 953 l 558 965 l 569 979 l 582 990 l 594 1003 l 607 1014 l 619 1026 q 621 1028 621 1028 l 622 1026 l 628 1019 l 628 1017 l 614 1004 l 603 990 l 590 976 l 581 961 l 574 946 l 565 929 l 560 913 l 558 894 l 558 876 l 558 840 l 556 824 l 557 808 l 556 790 l 556 774 l 557 758 l 557 740 l 556 724 l 558 690 l 557 654 l 557 651 l 567 667 l 581 681 l 581 697 l 579 715 l 579 733 l 579 750 l 582 768 l 582 786 l 579 804 l 581 839 l 581 857 l 582 875 l 581 892 l 581 910 l 581 928 l 581 928 l 585 933 q 586 935 586 935 l 597 932 l 597 932 l 600 928 l 601 928 l 601 910 l 604 892 l 603 875 l 601 857 l 601 840 l 604 822 l 604 804 l 603 794 l 608 803 l 621 817 l 629 832 l 651 860 l 661 875 l 672 889 l 682 903 l 692 918 l 701 933 l 703 933 l 715 935 l 715 935 q 717 933 717 935 l 729 921 l 743 908 l 757 896 l 794 857 l 807 844 l 819 831 l 833 819 l 844 806 l 856 793 l 856 792 l 863 776 l 871 761 l 871 760 l 874 743 l 876 726 l 876 725 l 872 708 l 868 692 l 863 675 l 858 658 l 850 643 l 850 642 l 839 629 l 828 615 l 807 588 l 796 575 l 782 563 l 772 549 l 761 535 l 747 524 l 738 510 l 726 496 l 715 483 l 706 472 l 718 467 l 750 454 l 767 447 l 782 442 l 783 442 l 797 431 l 828 414 l 840 403 l 854 393 l 868 382 l 881 371 l 882 371 l 892 356 l 901 343 l 913 329 l 913 329 l 919 314 l 925 297 l 932 281 l 936 264 l 936 246 l 935 228 l 932 211 l 931 194 l 926 178 l 921 161 l 913 144 l 907 129 l 896 114 l 886 100 l 878 85 l 868 71 l 856 58 l 847 43 l 835 31 l 824 18 l 811 6 l 800 -7 l 788 -18 l 778 -31 l 767 -44 l 754 -56 l 743 -68 l 721 -92 l 708 -104 l 694 -114 l 681 -122 l 664 -128 l 647 -132 l 629 -132 l 613 -135 l 596 -135 l 578 -135 l 561 -132 l 543 -135 l 508 -131 l 492 -131 l 474 -131 l 439 -132 l 421 -129 l 404 -129 l 386 -128 l 369 -128 l 351 -126 l 317 -125 l 300 -126 l 282 -125 l 265 -124 l 249 -119 l 215 -119 l 199 -119 l 182 -121 l 165 -124 l 149 -126 l 132 -131 l 117 -137 l 103 -144 l 74 -161 l 60 -169 l 60 -169 l 58 -169 l 51 -165 q 50 -164 50 -164 l 50 -162 l 64 -150 l 74 -137 l 97 -111 l 108 -97 l 122 -86 l 135 -74 l 147 -61 l 160 -49 l 175 -37 l 207 -22 l 224 -15 l 240 -8 l 257 -6 l 264 13 l 267 31 l 271 49 l 275 67 l 275 103 l 272 119 l 274 136 l 274 153 l 271 169 l 271 171 l 272 188 l 272 203 l 254 206 l 236 210 l 218 213 l 200 217 l 182 218 l 165 219 l 149 214 l 135 203 l 124 190 l 114 176 l 111 176 l 103 179 l 101 181 l 101 182 l 111 199 l 122 213 l 131 228 l 140 242 l 150 257 l 160 272 l 172 286 l 181 300 l 193 314 l 206 325 l 221 336 l 236 343 l 253 349 l 253 349 l 269 349 l 269 367 l 267 385 l 267 403 l 268 422 l 267 458 l 267 475 l 251 478 l 233 481 l 217 483 l 182 490 l 165 492 l 150 485 l 136 474 l 124 461 l 114 449 q 111 449 113 447 l 103 451 q 101 453 103 453 q 103 454 101 454 l 111 469 l 121 485 l 129 500 l 140 515 l 150 529 l 160 543 l 171 557 l 182 571 l 193 585 l 206 597 l 221 607 l 235 615 l 251 621 l 251 621 l 267 622 l 268 639 l 268 656 l 274 689 l 275 706 l 274 721 q 275 722 274 722 l 276 725 l 278 742 l 282 758 l 290 775 l 290 776 l 296 781 l 285 778 l 283 776 l 265 779 l 247 778 l 228 778 l 210 782 l 192 785 l 174 789 l 156 792 l 138 796 l 119 799 l 103 799 l 86 793 l 74 782 l 63 769 l 51 756 q 49 756 50 754 l 40 761 m 579 506 l 579 522 l 568 533 l 560 540 l 560 528 l 560 510 l 561 493 l 563 475 l 561 457 l 561 440 l 561 424 l 561 389 l 563 371 l 561 353 l 561 333 l 561 317 l 563 300 l 563 300 l 560 283 l 563 268 l 561 250 l 561 235 l 560 218 l 560 201 l 556 185 l 554 168 l 553 150 l 547 133 l 544 117 l 539 100 l 535 85 l 528 68 l 517 54 l 517 54 l 506 42 l 492 31 l 478 19 l 467 7 l 457 -1 l 471 -3 l 489 0 l 508 -1 l 526 -3 l 544 -3 l 564 -3 l 581 -4 l 579 11 l 581 29 l 579 46 l 579 63 l 579 81 l 579 97 l 582 114 l 581 131 l 571 139 l 571 142 l 582 154 l 579 172 l 579 190 l 581 208 l 581 243 l 581 261 l 581 278 l 579 313 l 579 331 l 581 367 l 581 383 l 581 401 l 581 418 l 582 436 l 581 453 l 581 471 l 581 489 l 579 506 m 603 697 l 603 681 l 615 669 l 629 657 q 629 654 632 654 l 617 636 l 603 621 l 601 592 l 603 578 l 615 567 l 629 554 q 629 551 629 551 l 615 535 l 603 518 l 603 501 l 601 485 l 603 468 l 603 433 l 603 417 l 603 406 l 622 428 l 632 442 l 646 453 l 657 467 l 668 479 l 692 506 l 701 518 l 714 531 l 726 543 l 738 557 l 756 588 l 756 606 l 754 624 l 749 640 l 740 657 l 731 672 l 721 688 l 707 700 l 696 713 l 685 725 l 672 738 l 661 750 l 638 775 l 628 786 l 619 775 l 613 763 l 604 750 l 603 733 l 603 697 m 603 11 l 603 -4 l 617 -4 l 633 -7 l 651 -7 l 669 -11 l 689 -11 l 707 -12 l 725 -15 l 742 -14 l 758 -12 l 774 -6 l 789 3 l 801 13 l 808 28 l 817 43 l 822 60 l 824 76 l 829 94 l 831 111 l 831 128 l 829 146 l 825 163 l 819 179 l 804 211 l 796 226 l 763 265 l 749 275 l 735 288 l 722 300 l 708 308 l 693 318 l 678 328 l 663 335 l 647 344 l 632 350 l 615 357 l 603 364 l 603 349 l 601 332 l 603 315 l 601 297 l 601 281 l 603 264 l 604 246 l 603 229 l 603 194 l 603 183 l 611 193 l 622 208 l 633 222 l 646 236 l 660 249 q 660 250 660 250 q 661 249 661 250 l 675 239 l 690 229 l 704 219 l 718 207 l 729 194 l 743 185 l 756 172 l 767 160 q 768 158 768 158 l 758 143 l 747 129 l 736 115 l 726 103 l 714 89 l 703 76 l 679 49 l 676 49 l 664 60 l 650 71 l 638 81 l 624 92 l 603 111 l 601 97 l 601 81 l 603 63 l 604 46 l 604 46 l 601 28 l 603 11 m 557 619 l 558 601 l 558 583 l 560 565 l 560 553 l 568 564 l 579 578 l 582 594 l 581 610 l 579 625 l 568 636 l 557 646 l 557 638 l 557 619 z "},"a":{"ha":528,"x_min":35,"x_max":554,"o":"m 554 172 l 554 169 l 543 154 l 533 139 l 513 108 l 501 93 l 492 78 l 481 63 l 468 49 l 460 33 l 449 18 l 438 1 l 436 0 l 436 0 l 435 0 l 419 11 l 403 19 l 389 31 l 375 42 l 360 51 l 307 101 l 296 113 l 286 100 l 275 83 l 265 67 l 254 50 l 242 35 l 229 19 l 218 3 l 217 3 l 200 11 l 182 19 l 165 29 l 133 50 l 119 63 l 104 75 l 89 88 l 75 99 l 61 113 l 47 126 l 47 128 l 44 147 l 44 167 l 40 185 l 39 204 l 40 224 l 38 242 l 38 261 l 38 300 l 35 319 l 36 338 l 36 357 l 35 376 l 36 396 l 39 414 l 38 433 l 38 433 l 42 453 l 43 471 l 43 472 l 53 488 l 64 503 l 75 518 l 85 535 l 96 550 l 107 564 l 121 578 l 133 592 l 144 607 l 158 621 l 172 633 l 185 647 l 200 658 l 214 671 l 229 682 l 232 682 l 246 671 l 261 658 l 274 644 l 289 633 l 303 621 l 317 610 l 332 599 l 344 585 l 360 575 l 375 565 l 393 563 l 408 569 q 411 568 411 569 l 425 554 q 425 551 428 551 l 422 549 l 415 533 l 410 519 l 408 500 l 408 481 l 408 461 l 408 443 l 411 424 l 410 404 l 410 385 l 411 365 l 410 346 l 413 328 l 411 308 l 413 269 l 411 251 l 422 235 l 433 219 l 447 207 l 461 193 l 476 181 l 492 169 l 508 168 l 522 174 l 535 185 q 538 185 536 186 l 554 172 m 178 269 l 176 251 l 186 235 l 201 222 l 217 208 l 233 199 l 250 188 l 265 174 l 279 167 l 279 182 l 276 200 l 274 219 l 275 239 l 272 257 l 272 276 l 272 314 l 272 333 l 272 351 l 271 371 l 274 390 l 275 426 l 261 438 l 247 447 l 232 456 l 218 467 l 203 476 l 189 488 l 178 496 l 178 481 l 178 461 l 178 422 l 176 403 l 178 385 l 178 365 l 178 346 l 178 326 l 176 307 l 175 289 l 178 269 z "},"b":{"ha":447,"x_min":33,"x_max":428,"o":"m 33 364 l 36 383 l 35 403 l 36 422 l 36 440 l 35 460 l 35 479 l 35 497 l 36 517 l 38 536 l 36 554 l 36 574 l 36 593 l 39 611 l 39 631 l 38 668 l 40 688 l 40 707 l 40 725 l 42 744 l 40 764 l 42 765 l 56 779 l 68 794 l 78 810 l 90 825 l 103 839 l 115 854 l 128 869 l 139 885 l 151 899 l 164 914 q 165 915 164 915 l 172 914 q 173 913 172 913 q 174 911 174 913 l 172 893 l 171 874 l 171 854 l 171 836 l 171 817 l 169 797 l 168 778 l 169 760 l 168 740 l 169 721 l 169 683 l 169 644 l 168 631 l 179 640 l 192 653 l 204 667 l 219 679 l 233 693 l 256 707 l 258 707 l 260 707 l 265 692 l 265 690 l 254 679 l 256 665 l 268 651 l 285 640 l 300 626 l 315 613 l 329 599 l 344 588 l 360 575 l 378 567 l 396 564 l 414 565 q 415 565 414 565 l 428 553 l 428 550 l 413 536 l 413 518 l 414 499 l 414 479 l 414 461 l 414 442 l 414 422 l 414 403 l 414 385 l 413 365 l 414 346 l 413 328 l 414 308 l 413 289 l 414 271 l 414 251 l 414 250 l 404 233 l 394 218 l 386 201 l 375 186 l 368 169 l 356 154 l 344 139 l 335 124 l 322 110 l 310 96 l 297 82 l 288 67 l 274 53 l 260 40 l 247 28 l 232 17 l 219 3 q 218 1 218 1 l 217 1 l 200 11 l 183 21 l 167 29 l 151 42 l 135 53 l 106 76 l 90 86 l 75 99 l 61 113 l 50 128 q 49 129 49 128 l 46 146 l 47 147 l 44 154 l 43 154 l 43 174 l 42 192 l 39 211 l 38 231 l 38 250 l 38 268 l 38 288 l 38 307 l 36 326 l 35 344 l 33 364 m 176 289 l 178 271 l 178 253 l 186 238 l 199 222 l 213 211 l 224 196 l 240 186 l 268 161 l 281 154 l 282 168 l 282 188 l 282 206 l 279 224 l 282 261 l 281 279 l 282 299 l 279 317 l 279 336 l 279 354 l 278 372 l 279 392 l 276 410 l 276 428 l 263 439 l 246 450 l 231 461 l 217 474 l 203 488 l 188 499 l 178 508 l 178 494 l 178 475 l 179 457 l 178 438 l 178 419 l 178 400 l 178 382 l 176 363 l 178 344 l 176 325 l 178 307 l 176 289 z "},"c":{"ha":406,"x_min":25,"x_max":388,"o":"m 25 321 l 28 340 l 26 358 l 25 397 l 29 415 l 28 435 l 31 454 l 33 472 l 33 474 l 43 489 l 53 506 l 64 521 l 76 535 l 97 565 l 111 579 l 124 593 l 135 608 l 149 621 l 161 635 l 176 647 l 190 660 l 204 671 l 219 685 q 222 683 221 685 l 236 671 l 251 658 l 265 646 l 279 632 l 296 621 l 310 608 l 324 594 l 339 585 l 356 578 l 369 588 q 372 588 371 589 l 388 576 l 388 574 l 375 558 l 363 544 l 353 528 l 340 514 l 318 483 l 304 469 l 292 456 l 281 442 l 269 425 l 268 425 l 267 425 l 251 436 l 238 449 l 222 456 l 222 457 l 208 468 l 194 479 l 179 488 l 167 496 l 167 481 l 167 463 l 167 443 l 167 424 l 167 404 l 165 385 l 167 367 l 165 347 l 168 328 l 167 308 l 167 290 l 168 271 l 165 253 l 176 238 l 189 224 l 206 213 l 238 190 l 253 179 l 268 169 l 281 168 l 290 178 l 301 193 l 313 208 l 325 224 l 335 239 l 346 254 l 357 269 l 360 269 l 381 253 q 382 251 382 251 l 372 235 l 360 221 l 350 204 l 338 190 l 326 175 l 317 158 l 307 143 l 294 128 l 285 113 l 272 97 l 264 81 l 253 65 l 243 50 l 221 19 l 208 6 q 207 4 208 4 l 207 4 l 189 11 l 189 11 l 172 22 l 156 31 l 140 42 l 124 51 l 94 76 l 79 88 l 65 101 l 51 114 l 39 128 q 38 129 38 129 l 38 149 l 35 168 l 33 186 l 29 206 l 29 225 l 28 244 l 28 263 l 25 301 l 25 321 z "},"d":{"ha":449,"x_min":32,"x_max":432,"o":"m 429 583 q 429 581 432 581 l 410 565 l 413 547 l 411 528 l 411 510 l 411 490 l 414 472 l 415 454 l 413 435 l 413 417 l 415 399 l 415 379 l 415 361 l 415 342 l 413 324 l 411 306 l 413 286 l 411 268 l 410 250 l 410 249 l 400 232 l 393 215 l 382 200 l 372 183 l 363 168 l 343 136 l 332 122 l 319 108 l 308 93 l 296 79 l 282 67 l 272 51 l 258 38 l 244 26 l 231 13 l 215 3 l 215 3 l 214 3 l 197 11 l 181 19 l 149 39 l 133 51 l 117 60 l 101 74 l 88 86 l 72 97 l 58 111 l 46 126 l 46 126 l 43 146 l 43 165 l 40 185 l 35 222 l 36 242 l 33 260 l 33 279 l 33 299 l 32 318 l 33 338 l 32 356 l 33 375 l 35 394 l 35 414 l 36 432 l 36 451 l 40 471 l 40 471 l 53 486 l 64 501 l 78 514 l 89 529 l 103 543 l 115 557 l 131 568 l 143 582 l 157 593 l 144 604 l 121 631 l 108 643 l 94 654 l 72 682 l 60 694 l 51 708 l 51 711 l 57 726 l 58 726 l 69 742 l 81 757 l 92 772 l 115 801 l 126 818 l 138 832 l 151 846 l 161 860 l 163 861 l 165 861 l 181 847 l 181 846 l 176 831 l 175 815 l 181 800 l 192 785 l 206 771 l 218 757 l 244 729 l 258 717 l 288 690 l 317 665 l 329 651 l 356 625 l 368 613 l 385 604 l 400 597 l 415 599 l 418 599 l 429 583 m 279 410 l 282 429 l 281 447 l 281 465 l 278 483 l 251 507 l 238 518 l 222 529 l 197 554 l 183 565 l 172 574 l 172 560 l 171 542 l 172 524 l 174 506 l 172 468 l 174 450 l 174 432 l 172 414 l 172 396 l 174 358 l 174 340 l 174 322 l 174 304 l 175 286 l 174 268 l 174 250 l 182 233 l 194 221 l 208 207 l 222 194 l 236 183 l 251 172 l 265 160 l 278 151 l 278 167 l 276 185 l 276 204 l 279 222 l 278 242 l 278 260 l 278 279 l 279 299 l 281 317 l 279 335 l 281 354 l 279 372 l 279 392 l 279 410 z "},"e":{"ha":411,"x_min":22,"x_max":393,"o":"m 25 326 l 22 344 l 22 346 l 24 364 l 24 382 l 25 400 l 26 419 l 28 438 l 29 456 l 33 474 l 33 475 l 42 490 l 54 506 l 79 535 l 89 550 l 100 565 l 113 579 l 124 593 l 138 607 l 151 619 l 164 633 l 178 647 l 190 661 l 206 672 l 219 683 l 222 683 l 236 672 l 251 661 l 267 650 l 281 638 l 294 625 l 310 614 l 321 599 l 335 588 l 350 578 l 363 576 l 376 586 l 378 586 l 392 574 q 393 571 393 571 l 381 556 l 367 542 l 356 526 l 346 510 l 332 496 l 319 482 l 308 467 l 285 438 l 275 422 l 263 408 l 250 394 l 239 379 l 225 367 l 214 353 l 203 338 l 192 324 l 178 310 l 167 297 l 168 275 l 168 254 l 175 239 l 189 228 l 217 206 l 231 196 l 246 186 l 261 178 l 275 168 l 290 171 l 301 186 l 313 204 l 325 219 l 336 236 l 350 251 l 361 269 l 363 271 q 364 269 364 271 l 381 254 q 381 251 383 251 l 371 238 l 360 222 l 349 207 l 340 190 l 329 174 l 307 143 l 296 128 l 283 114 l 274 99 l 264 82 l 240 51 l 231 36 l 219 21 l 210 4 l 207 4 l 207 4 l 192 14 l 175 21 l 161 32 l 132 54 l 118 65 l 103 75 l 90 88 l 75 97 l 61 110 l 49 121 q 47 122 47 122 l 38 142 l 38 142 l 33 160 l 35 179 l 31 197 l 31 217 l 28 235 l 26 253 l 26 271 l 24 308 l 25 326 m 168 390 l 165 353 l 167 339 l 176 350 l 189 367 l 203 381 l 214 396 l 240 425 l 251 439 l 239 450 l 224 458 l 208 469 l 193 478 l 179 489 l 168 496 l 169 483 l 169 464 l 168 446 l 167 426 l 167 408 l 168 390 z "},"f":{"ha":440,"x_min":11,"x_max":421,"o":"m 56 340 l 15 340 l 15 340 q 14 342 14 340 l 11 344 l 11 347 l 24 361 l 38 374 l 49 388 l 58 403 l 72 417 l 81 432 l 94 444 l 103 460 l 103 461 l 115 474 l 115 492 l 114 510 l 117 529 l 115 547 l 117 567 l 117 585 l 115 603 l 117 621 l 115 640 l 115 658 l 118 678 l 125 696 l 132 714 l 140 731 l 150 747 l 161 763 l 172 778 l 185 792 l 194 808 l 207 822 l 217 838 l 228 853 l 240 868 l 253 882 l 263 897 l 276 911 l 289 925 l 303 938 l 317 950 l 318 950 l 335 956 l 336 956 l 354 954 l 354 954 l 371 947 l 371 947 l 385 935 l 396 921 l 404 904 l 411 886 l 414 867 l 418 849 l 418 847 l 417 828 l 419 810 l 419 790 l 418 750 l 419 731 l 421 713 l 418 692 l 419 674 l 418 653 l 413 635 l 404 618 l 404 618 l 392 603 l 379 589 l 367 575 l 353 563 l 340 549 l 325 536 l 311 525 l 296 514 q 294 513 294 513 l 286 515 q 285 518 285 517 l 288 536 l 286 592 l 288 611 l 285 629 l 286 649 l 285 667 l 288 685 l 285 703 l 286 722 l 285 740 l 283 758 l 274 775 l 260 788 l 249 797 l 247 782 l 249 763 l 247 743 l 249 724 l 249 724 l 246 704 l 246 685 l 246 665 l 249 646 l 244 626 l 247 608 l 246 589 l 247 569 l 246 550 l 244 531 l 247 513 l 246 492 l 247 475 l 263 476 l 282 474 l 301 474 l 321 476 l 340 475 l 360 475 l 379 474 l 390 481 l 400 492 q 401 493 401 493 l 415 485 q 417 483 417 485 l 417 482 l 411 476 l 403 460 l 392 443 l 381 426 l 367 413 l 356 397 l 342 382 l 331 367 l 317 353 l 303 338 l 301 338 l 282 340 l 263 340 l 244 339 l 246 324 l 246 304 l 246 288 l 246 269 l 246 251 l 243 233 l 243 215 l 253 194 l 267 185 l 281 176 l 293 167 l 306 156 l 319 156 l 331 164 l 332 164 l 344 154 l 346 153 q 344 151 344 153 l 332 138 l 321 121 l 310 106 l 296 93 l 285 76 l 274 61 l 258 49 l 249 32 l 236 18 l 222 4 l 221 4 l 219 4 l 204 14 l 189 26 l 174 39 l 160 53 l 144 65 l 128 76 l 114 92 l 114 93 l 113 113 l 113 131 l 111 150 l 111 169 l 113 189 l 114 207 l 113 226 l 114 246 l 114 264 l 115 322 l 115 339 l 96 338 l 76 339 l 56 340 z "},"g":{"ha":433,"x_min":3,"x_max":414,"o":"m 397 115 l 396 96 l 397 78 l 397 58 l 397 40 l 397 21 l 394 3 l 394 -17 l 393 -17 l 368 -44 l 357 -58 l 344 -72 l 331 -85 l 318 -100 l 306 -112 l 292 -126 l 278 -139 l 267 -153 l 254 -167 l 240 -181 l 228 -193 l 215 -207 l 201 -221 l 201 -221 l 186 -222 l 185 -222 l 185 -222 l 168 -212 l 151 -203 l 135 -196 l 117 -193 l 99 -190 l 81 -190 l 63 -192 l 46 -199 l 28 -204 l 14 -217 l 11 -217 l 3 -207 l 3 -204 l 17 -192 l 28 -175 l 40 -161 l 54 -149 l 67 -133 l 81 -121 l 90 -106 l 104 -90 l 132 -64 l 143 -50 l 156 -35 l 169 -22 l 183 -10 l 194 3 l 179 11 l 164 21 l 147 31 l 132 39 l 117 51 l 103 63 l 89 74 l 75 86 l 61 97 l 47 108 l 33 124 l 33 125 l 33 144 l 32 163 l 28 182 l 26 182 l 28 201 l 25 219 l 24 239 l 22 258 l 22 278 l 21 297 l 22 317 l 21 335 l 24 354 l 22 374 l 25 393 l 24 411 l 26 431 l 28 450 l 31 468 l 31 468 l 39 485 l 49 501 l 61 515 l 71 532 l 82 546 l 96 560 l 107 575 l 119 590 l 146 617 l 157 631 l 172 643 l 186 656 l 201 667 l 229 689 l 243 699 l 246 699 l 247 699 l 253 686 q 253 683 254 685 l 244 672 l 250 651 l 264 639 l 278 629 l 290 615 l 306 606 l 318 592 l 333 583 l 347 572 l 363 560 l 381 556 l 397 563 q 400 563 397 563 l 414 549 l 414 547 l 414 546 l 399 532 l 399 514 l 400 494 l 399 475 l 400 457 l 399 438 l 399 418 l 400 400 l 400 381 l 400 361 l 400 342 l 400 324 l 397 304 l 397 285 l 400 247 l 397 229 l 400 210 l 397 190 l 396 172 l 399 153 l 397 115 m 265 29 l 267 43 l 256 33 l 243 19 l 231 7 l 218 -7 l 207 -21 l 193 -33 l 182 -47 l 174 -56 l 183 -53 l 203 -50 l 203 -50 l 203 -50 l 221 -54 l 238 -56 l 239 -56 l 256 -64 l 256 -64 l 265 -72 l 264 -60 l 265 -42 l 265 -24 l 265 -6 l 265 11 l 265 29 m 267 221 l 268 239 l 267 257 l 265 276 l 267 294 l 265 313 l 265 332 l 267 350 l 264 368 l 264 388 l 263 406 l 263 424 l 247 433 l 233 447 l 218 458 l 204 471 l 174 494 l 163 506 l 163 490 l 163 471 l 163 453 l 163 433 l 164 415 l 163 396 l 164 378 l 161 358 l 164 340 l 164 322 l 161 303 l 163 285 l 164 267 l 163 249 l 172 233 l 185 219 l 197 206 l 211 194 l 225 181 l 240 171 l 254 157 l 267 150 l 268 164 l 267 183 l 268 201 l 267 221 z "},"h":{"ha":454,"x_min":18,"x_max":468,"o":"m 468 149 l 457 136 l 449 124 l 440 110 l 431 99 l 419 86 l 413 72 l 403 60 l 392 49 l 382 36 l 374 24 l 365 10 l 356 -1 l 353 0 l 339 7 l 328 17 l 315 25 l 303 33 l 292 44 l 281 56 l 271 67 l 267 81 l 265 97 l 263 113 l 264 128 l 263 143 l 260 158 l 258 174 l 260 189 l 257 204 l 258 221 l 257 236 l 256 251 l 253 267 l 253 282 l 253 297 l 253 313 l 251 328 l 253 343 l 254 358 l 253 375 l 253 390 l 253 406 l 254 421 l 256 436 l 244 447 l 233 458 l 224 471 l 210 479 l 199 490 l 188 500 l 178 488 l 165 475 l 156 463 l 147 447 l 144 432 l 147 417 l 146 401 l 146 386 l 146 369 l 147 354 l 144 339 l 147 324 l 146 308 l 146 292 l 146 276 l 146 261 l 146 246 l 146 231 l 147 214 l 149 201 l 157 190 l 168 182 l 176 171 l 188 163 l 199 154 l 210 154 l 224 167 l 226 167 l 236 157 l 238 154 l 226 143 l 219 129 l 208 119 l 200 107 l 192 93 l 182 82 l 174 71 l 164 58 l 156 46 l 147 33 l 136 22 l 129 10 l 118 -1 l 117 -1 l 117 -1 l 103 6 l 90 15 l 78 24 l 67 33 l 57 44 l 44 56 l 38 68 l 31 81 l 31 96 l 29 111 l 28 126 l 25 142 l 26 157 l 24 172 l 25 188 l 25 204 l 21 219 l 21 235 l 21 250 l 22 265 l 21 281 l 21 296 l 22 311 l 19 326 l 21 342 l 19 357 l 19 372 l 21 389 l 21 404 l 18 419 l 19 435 l 21 450 l 21 465 l 19 481 l 21 496 l 21 511 l 22 526 l 19 542 l 21 557 l 21 572 l 22 588 l 24 603 l 22 618 l 24 633 l 24 649 l 25 664 l 25 679 l 29 694 l 28 710 l 29 725 l 29 740 l 33 756 l 40 769 l 51 781 l 60 794 l 71 806 l 82 817 l 90 829 l 101 840 l 113 851 l 124 863 l 136 872 l 142 874 l 146 868 l 146 853 l 144 838 l 146 822 l 146 807 l 144 792 l 147 776 l 146 763 l 147 747 l 147 732 l 147 717 l 147 701 l 144 686 l 146 671 l 147 656 l 146 642 l 146 626 l 144 611 l 144 596 l 147 581 l 147 567 l 146 551 l 147 536 l 146 521 l 144 506 l 144 490 l 154 504 l 163 517 l 172 529 l 182 540 l 192 553 l 201 564 l 208 578 l 219 589 l 228 601 l 239 613 l 249 624 l 257 638 l 265 649 l 278 658 l 279 660 l 292 653 l 304 644 l 314 635 l 324 624 l 335 614 l 346 606 l 356 593 l 367 585 l 376 574 l 383 563 l 388 551 l 390 538 l 390 524 l 389 507 l 389 492 l 390 476 l 388 461 l 389 444 l 389 429 l 386 414 l 388 399 l 386 383 l 385 368 l 386 351 l 385 336 l 386 321 l 386 306 l 383 290 l 382 275 l 383 258 l 382 243 l 382 228 l 382 213 l 386 201 l 392 192 l 403 182 l 414 171 l 425 161 l 438 151 l 444 150 l 453 160 l 457 161 l 468 151 l 468 149 z "},"i":{"ha":265,"x_min":-6,"x_max":290,"o":"m -4 482 q -6 483 -6 483 l 6 500 l 19 513 l 31 528 l 43 542 l 53 557 l 65 572 l 78 586 l 88 601 l 100 615 l 113 629 l 122 646 l 124 646 q 125 646 125 646 l 143 635 l 161 624 l 178 613 l 194 600 l 196 599 l 207 582 l 207 581 l 207 563 l 213 544 l 213 543 l 211 524 l 214 506 l 214 486 l 213 468 l 215 449 l 215 429 l 215 411 l 215 392 l 214 372 l 215 354 l 214 335 l 214 315 l 210 278 l 213 260 l 210 240 l 210 221 l 208 203 l 208 183 l 206 165 l 222 153 l 238 139 l 256 144 l 274 157 l 276 157 l 288 146 q 288 143 290 143 l 275 129 l 264 115 l 251 103 l 238 89 l 225 76 l 213 64 l 175 24 l 164 8 l 150 -4 l 149 -4 l 147 -4 l 131 7 l 117 22 l 100 35 l 86 50 l 72 65 l 72 67 l 71 85 l 68 103 l 68 122 l 64 160 l 65 179 l 65 197 l 63 235 l 64 254 l 64 272 l 65 292 l 65 310 l 64 347 l 65 367 l 67 385 l 68 404 l 69 422 l 68 440 l 68 442 l 72 460 l 71 476 l 60 486 l 49 496 l 29 493 l 18 483 l 8 472 l 8 471 q 6 472 7 471 l -4 482 m 32 750 q 31 753 31 753 l 43 767 l 51 782 l 60 797 l 72 811 l 82 826 l 92 840 l 104 853 l 118 864 l 121 864 l 136 857 l 151 849 l 165 836 l 181 828 l 194 817 l 207 803 l 219 790 l 232 779 l 232 776 l 222 760 l 208 744 l 199 726 l 186 710 l 171 696 l 160 681 l 146 665 l 144 665 l 143 665 l 129 674 l 100 694 l 86 706 l 72 717 l 58 726 l 44 738 l 32 750 z "},"j":{"ha":281,"x_min":-32,"x_max":251,"o":"m 51 750 q 50 751 50 750 q 51 751 50 751 l 61 767 l 69 782 l 81 796 l 92 810 l 101 825 l 114 838 l 125 850 l 138 863 q 139 864 139 864 l 156 856 l 169 844 l 185 838 q 186 836 186 838 l 199 824 l 213 815 q 214 814 214 814 l 225 801 l 239 790 l 250 778 q 251 775 251 776 l 242 758 l 229 742 l 215 726 l 203 711 l 190 694 l 179 679 l 165 664 l 164 664 l 163 664 l 147 671 l 132 682 l 118 692 l 104 704 l 90 714 l 78 726 l 51 750 m -32 -308 l -32 -307 l -32 -306 l -18 -292 l -6 -278 l 6 -262 l 29 -232 l 40 -217 l 49 -200 l 60 -185 l 67 -168 l 75 -151 l 81 -133 l 86 -115 l 88 -97 l 88 -79 l 90 -60 l 89 -42 l 90 -22 l 89 -4 l 90 15 l 88 33 l 89 53 l 88 71 l 86 90 l 85 108 l 85 128 l 86 146 l 83 165 l 83 183 l 86 203 l 83 221 l 83 221 l 85 240 l 86 258 l 83 278 l 83 296 l 85 315 l 86 333 l 86 353 l 86 371 l 86 390 l 88 408 l 88 428 l 88 446 l 88 482 l 76 493 l 64 501 l 47 500 l 36 489 l 25 476 q 24 475 24 475 l 22 475 l 11 486 q 11 489 8 489 l 21 504 l 33 519 l 47 533 l 57 549 l 57 549 l 71 561 l 81 576 l 92 592 l 104 607 l 117 619 l 128 635 l 140 650 l 142 650 l 158 643 l 158 643 l 172 632 l 186 624 l 201 615 l 215 603 l 215 603 l 222 586 l 224 586 l 221 567 l 224 549 l 222 529 l 225 510 l 225 510 l 224 490 l 226 472 l 225 453 l 226 435 l 225 415 l 225 396 l 224 378 l 225 358 l 225 339 l 225 321 l 224 301 l 225 283 l 224 244 l 224 226 l 222 207 l 221 169 l 221 151 l 224 133 l 222 114 l 224 96 l 221 76 l 219 58 l 218 40 l 219 22 l 219 21 l 217 3 l 214 -15 l 210 -33 l 206 -51 l 196 -67 l 189 -85 l 178 -100 l 168 -115 l 158 -131 l 146 -144 l 136 -160 l 124 -174 l 113 -189 l 100 -204 l 88 -217 l 63 -243 l 51 -258 l 40 -272 l 25 -285 l 14 -299 l 0 -311 l -11 -324 l -12 -325 q -14 -324 -14 -325 l -32 -308 z "},"k":{"ha":482,"x_min":22,"x_max":475,"o":"m 22 268 l 25 288 l 22 325 l 25 344 l 24 363 l 24 382 l 24 400 l 26 419 l 24 438 l 25 456 l 26 493 l 26 513 l 28 531 l 28 550 l 29 568 l 31 588 l 29 606 l 31 624 l 32 643 l 31 661 l 33 699 l 33 700 l 46 715 l 58 729 l 69 744 l 82 757 l 94 771 l 104 788 l 104 788 l 118 801 l 129 815 l 140 831 l 151 846 l 154 846 l 161 843 q 163 842 163 842 l 164 822 l 161 804 l 163 786 l 161 767 l 163 749 l 161 731 l 161 711 l 160 693 l 160 675 l 161 657 l 161 638 l 158 601 l 160 583 l 157 564 l 157 517 l 176 542 l 190 557 l 201 572 l 213 588 l 224 604 l 236 618 l 249 635 l 260 650 l 271 665 l 271 667 l 279 674 l 289 686 q 290 688 289 688 l 292 688 l 301 675 q 303 674 303 675 l 301 654 l 314 640 l 328 628 l 340 614 l 353 600 l 365 585 l 375 567 l 375 565 l 364 550 l 351 538 l 343 521 l 343 521 l 329 508 l 321 493 l 308 478 l 299 464 l 290 450 l 304 442 l 319 429 l 338 421 l 353 408 l 367 396 l 383 386 l 385 385 l 397 371 l 411 357 l 411 356 l 413 336 l 414 317 l 414 296 l 411 276 l 413 257 l 413 238 l 410 217 l 408 197 l 411 179 l 419 164 l 433 156 l 447 161 l 458 172 q 461 172 458 175 l 474 164 q 475 163 475 163 l 475 161 l 464 146 l 456 129 l 444 115 l 435 100 l 425 83 l 415 68 l 406 51 l 393 38 l 383 22 l 375 6 l 374 6 q 372 6 372 6 l 356 15 l 326 38 l 314 51 l 301 64 l 301 65 l 292 81 l 292 82 l 288 100 l 286 119 l 286 139 l 286 158 l 286 178 l 288 197 l 289 217 l 288 236 l 288 256 l 278 271 l 264 282 l 250 293 l 233 300 l 217 310 l 201 317 l 193 303 l 183 288 l 174 274 l 163 260 l 153 249 l 154 247 l 154 246 l 149 231 l 153 215 l 164 203 l 176 192 l 189 179 l 203 169 l 215 168 l 225 175 q 228 175 226 176 l 240 167 l 240 165 l 231 147 l 218 132 l 208 115 l 196 100 l 176 67 l 164 50 l 154 33 l 142 18 l 132 1 l 131 0 l 131 0 q 129 1 129 0 l 114 11 l 97 18 l 97 19 l 83 31 l 69 42 l 54 51 l 54 51 l 42 64 l 42 65 l 33 81 l 33 82 l 32 100 l 28 138 l 26 156 l 25 175 l 26 193 l 25 213 l 25 231 l 24 250 l 22 268 m 157 360 l 156 340 l 153 321 l 153 301 l 154 288 l 163 299 l 174 315 l 185 332 l 194 347 l 207 364 l 218 379 l 228 396 l 240 411 l 250 428 l 260 443 l 251 457 l 240 472 l 231 488 l 218 501 l 206 514 l 192 521 l 182 506 l 168 490 l 158 475 l 156 457 l 157 438 l 156 418 l 156 379 l 157 360 z "},"l":{"ha":276,"x_min":36,"x_max":281,"o":"m 36 438 l 36 457 l 36 475 l 38 494 l 39 513 l 38 532 l 38 550 l 40 569 l 40 588 l 40 607 l 39 625 l 39 626 l 43 644 l 40 663 l 43 682 l 42 700 l 44 719 l 43 738 l 44 757 l 46 775 l 46 794 l 46 813 l 49 831 l 49 832 l 58 849 l 58 849 l 71 863 l 83 876 l 94 892 l 106 907 l 118 921 l 129 936 l 142 950 l 154 964 l 164 979 q 165 981 165 981 l 176 976 q 178 975 178 975 l 176 956 l 176 938 l 175 918 l 176 900 l 174 881 l 176 863 l 174 843 l 175 825 l 174 806 l 172 788 l 174 750 l 172 731 l 174 713 l 172 693 l 171 674 l 172 656 l 169 618 l 169 599 l 172 581 l 171 561 l 169 543 l 172 524 l 172 524 l 169 506 l 171 486 l 172 468 l 172 449 l 171 431 l 169 411 l 171 393 l 171 374 l 174 318 l 174 300 l 175 281 l 174 261 l 175 243 l 175 225 l 183 210 l 196 196 l 208 183 l 224 172 l 238 163 l 251 161 l 264 168 q 267 168 264 171 l 279 158 q 281 157 281 157 l 281 156 l 276 151 l 267 135 l 267 135 l 253 121 l 242 106 l 231 90 l 221 74 l 221 74 l 208 60 l 197 44 l 188 29 l 188 28 l 174 14 l 164 -1 l 163 -1 l 161 -1 l 146 8 l 132 22 l 103 46 l 89 58 l 76 72 l 63 83 l 63 85 l 53 100 l 46 117 l 46 118 l 44 136 l 42 154 l 42 174 l 39 192 l 39 211 l 39 231 l 38 249 l 38 268 l 36 286 l 39 306 l 36 324 l 38 343 l 38 363 l 36 381 l 36 400 l 38 419 l 36 438 z "},"m":{"ha":772,"x_min":15,"x_max":742,"o":"m 176 3 q 176 1 176 1 q 175 3 175 1 l 157 14 l 142 29 l 126 43 l 110 57 l 97 74 l 97 75 l 94 94 l 90 113 l 90 114 l 92 133 l 89 153 l 90 172 l 89 192 l 88 211 l 86 231 l 86 251 l 88 271 l 86 290 l 89 310 l 89 329 l 88 349 l 89 368 l 89 388 l 90 426 l 94 447 l 94 465 l 94 485 l 94 503 l 69 524 l 53 522 l 43 508 l 29 497 l 26 497 l 17 508 q 15 511 15 508 l 29 525 l 40 542 l 53 557 l 65 572 l 75 588 l 89 603 l 100 618 l 113 633 l 125 649 l 138 664 l 149 679 q 151 679 151 682 l 171 668 l 207 644 l 225 632 l 225 632 l 235 613 l 235 613 l 239 593 l 242 574 l 243 554 l 242 535 l 243 521 l 253 531 l 265 546 l 275 561 l 286 576 l 299 592 l 311 606 l 324 619 l 333 635 l 346 650 l 360 664 l 371 678 l 374 678 l 392 668 l 410 657 l 429 647 l 429 646 l 444 632 l 457 614 l 457 613 l 461 593 l 463 574 l 463 554 l 464 536 l 465 521 l 472 532 l 486 546 l 497 561 l 508 576 l 543 621 l 568 649 l 590 679 l 593 679 l 613 669 l 631 658 l 649 647 l 664 631 l 676 614 l 678 613 l 678 593 l 683 574 l 683 572 l 682 553 l 683 533 l 685 514 l 685 493 l 685 474 l 686 454 l 686 435 l 686 414 l 685 394 l 685 356 l 683 335 l 682 315 l 682 296 l 682 276 l 681 256 l 679 236 l 678 217 l 676 197 l 675 178 l 692 165 l 708 153 l 726 157 q 728 156 728 157 l 742 142 l 742 139 l 728 124 l 713 110 l 699 94 l 686 78 l 672 63 l 660 47 l 646 32 l 633 17 l 618 3 q 615 3 615 0 l 583 29 l 551 57 l 536 74 l 536 75 l 533 94 l 531 133 l 528 153 l 529 172 l 528 192 l 526 211 l 529 231 l 528 250 l 528 271 l 528 290 l 528 310 l 529 329 l 528 349 l 531 368 l 531 388 l 532 407 l 532 426 l 532 446 l 533 465 l 536 486 l 538 504 l 515 521 l 492 518 l 478 506 l 467 490 l 467 472 l 465 453 l 465 433 l 465 413 l 465 393 l 467 374 l 464 354 l 465 335 l 465 333 l 463 314 l 464 294 l 464 294 l 461 275 l 461 256 l 461 236 l 458 217 l 458 197 l 456 178 l 474 165 l 489 150 l 507 151 l 508 151 l 522 143 l 522 140 l 522 139 l 507 124 l 494 108 l 479 93 l 467 78 l 451 64 l 439 47 l 426 32 l 410 18 l 399 1 l 397 1 l 397 1 l 396 1 l 379 14 l 346 42 l 331 57 l 317 74 l 317 75 l 314 94 l 311 114 l 311 133 l 310 153 l 311 172 l 308 192 l 307 211 l 308 232 l 307 251 l 310 271 l 308 290 l 307 310 l 311 329 l 308 349 l 310 368 l 311 388 l 313 407 l 313 426 l 313 446 l 315 467 l 317 485 l 317 503 l 293 521 l 274 517 l 258 501 l 244 486 l 246 467 l 246 447 l 244 428 l 243 408 l 244 389 l 244 369 l 244 350 l 244 331 l 243 313 l 240 293 l 242 274 l 242 274 l 239 254 l 240 235 l 240 215 l 238 196 l 236 179 l 254 164 l 272 149 l 288 151 l 289 151 l 299 143 q 300 140 300 140 l 288 124 l 272 110 l 260 93 l 246 78 l 231 64 l 219 47 l 206 32 l 190 17 l 176 3 z "},"n":{"ha":543,"x_min":17,"x_max":529,"o":"m 526 147 q 526 144 529 144 l 513 128 l 499 113 l 485 97 l 472 82 l 458 65 l 443 51 l 431 36 l 403 4 l 401 4 l 400 4 l 383 19 l 367 33 l 350 46 l 333 60 l 319 78 l 319 78 l 315 118 l 313 157 l 311 176 l 314 197 l 311 217 l 311 236 l 311 256 l 313 275 l 313 294 l 311 314 l 313 335 l 314 354 l 313 374 l 314 393 l 315 413 l 318 432 l 318 451 l 317 471 l 319 490 l 319 510 l 308 519 l 296 528 l 278 526 l 264 507 l 249 489 l 250 471 l 250 451 l 249 432 l 249 413 l 249 393 l 246 374 l 247 356 l 247 336 l 247 317 l 244 297 l 244 278 l 242 258 l 244 240 l 242 221 l 240 201 l 240 183 l 256 171 l 269 157 l 290 158 l 292 158 l 304 147 l 304 144 l 292 128 l 278 113 l 261 99 l 250 82 l 236 67 l 221 53 l 207 38 l 194 21 l 181 7 q 178 6 179 6 l 144 32 l 129 47 l 113 60 l 111 60 l 99 78 l 99 79 l 94 97 l 93 118 l 92 138 l 93 157 l 92 176 l 90 196 l 90 217 l 90 236 l 92 256 l 89 275 l 89 275 l 92 296 l 90 314 l 90 335 l 93 354 l 92 374 l 92 393 l 93 413 l 96 432 l 97 451 l 96 471 l 96 490 l 99 510 l 86 518 l 74 528 l 56 526 l 46 514 l 32 503 l 29 503 l 17 514 l 17 515 l 17 517 l 31 532 l 44 546 l 54 564 l 65 579 l 79 593 l 90 610 l 104 624 l 117 639 l 128 654 l 142 668 l 151 686 l 153 688 l 154 688 l 174 675 l 193 664 l 226 636 l 226 636 l 239 619 q 240 618 240 618 l 243 599 l 244 579 l 244 560 l 247 540 l 247 525 l 256 538 l 268 551 l 281 565 l 292 582 l 303 597 l 315 611 l 326 626 l 351 656 l 363 671 l 375 685 q 376 686 375 686 q 376 685 376 686 l 414 664 l 433 653 l 433 653 l 447 636 l 460 619 l 461 618 l 464 599 l 467 579 l 468 560 l 469 539 l 468 519 l 469 500 l 469 460 l 471 440 l 471 419 l 468 400 l 469 381 l 468 360 l 467 340 l 467 321 l 465 300 l 467 281 l 465 261 l 463 242 l 463 221 l 461 201 l 461 183 l 475 171 l 489 158 l 508 161 l 510 161 l 526 147 z "},"o":{"ha":429,"x_min":24,"x_max":422,"o":"m 386 557 l 406 563 l 407 563 l 421 551 q 422 550 422 551 q 421 549 422 549 l 408 536 l 400 515 l 400 496 l 401 478 l 401 458 l 401 440 l 401 421 l 401 401 l 400 383 l 403 365 l 403 364 l 400 346 l 401 326 l 400 308 l 401 290 l 401 271 l 400 253 l 400 251 l 393 235 l 383 218 l 374 203 l 365 186 l 353 171 l 344 156 l 333 139 l 321 125 l 311 110 l 299 96 l 275 68 l 261 56 l 235 28 l 222 15 l 207 3 q 206 1 207 1 l 206 3 l 188 11 l 172 22 l 156 32 l 139 42 l 124 54 l 107 63 l 107 63 l 93 76 l 79 89 l 64 100 l 50 114 l 38 129 l 38 129 l 35 149 l 32 168 l 31 186 l 31 206 l 28 225 l 28 244 l 26 263 l 24 282 l 25 301 l 25 321 l 26 340 l 25 358 l 26 378 l 25 397 l 28 417 l 28 435 l 29 454 l 29 474 l 31 474 l 40 490 l 53 506 l 61 521 l 74 536 l 85 551 l 99 565 l 108 581 l 122 593 l 135 607 l 147 621 l 161 635 l 175 647 l 188 661 l 188 661 l 203 672 l 218 683 l 233 693 l 246 706 l 247 706 l 249 706 l 261 688 q 260 685 261 686 l 249 672 l 250 660 l 263 646 l 278 636 l 292 624 l 306 611 l 319 599 l 333 586 l 347 574 l 367 565 l 386 557 m 164 253 l 175 238 l 188 224 l 199 210 l 213 197 l 226 185 l 242 174 l 257 164 l 269 154 l 269 169 l 271 188 l 269 206 l 269 225 l 268 243 l 269 263 l 268 281 l 267 318 l 267 336 l 268 354 l 265 372 l 265 392 l 264 410 l 264 428 l 249 439 l 235 451 l 221 464 l 206 476 l 192 488 l 178 501 l 164 508 l 165 476 l 164 457 l 167 439 l 167 419 l 167 401 l 167 382 l 164 364 l 165 346 l 167 308 l 165 289 l 165 271 l 164 253 z "},"p":{"ha":497,"x_min":-22,"x_max":476,"o":"m 182 -253 l 171 -265 l 169 -267 l 168 -267 l 151 -256 l 151 -256 l 136 -240 l 121 -228 l 106 -212 l 92 -197 l 90 -196 l 89 -178 l 86 -160 l 88 -140 l 86 -122 l 86 -104 l 83 -85 l 85 -67 l 83 -47 l 82 -29 l 83 -10 l 83 8 l 83 26 l 82 46 l 82 61 l 68 57 l 50 49 l 36 38 l 4 17 l -7 4 q -8 3 -8 3 q -10 4 -10 3 l -21 15 q -22 18 -22 15 l -11 35 l 3 49 l 15 64 l 28 78 l 42 92 l 54 106 l 71 118 l 85 129 l 83 149 l 83 168 l 85 186 l 85 206 l 85 224 l 86 243 l 85 261 l 86 281 l 85 299 l 88 318 l 86 336 l 88 356 l 86 374 l 90 411 l 89 431 l 90 486 l 90 504 l 79 515 l 67 524 l 50 521 l 38 510 l 26 497 l 25 497 l 25 497 l 24 497 l 13 508 l 13 511 l 25 525 l 47 557 l 61 571 l 72 586 l 85 600 l 96 615 l 108 629 l 121 644 l 133 660 l 143 675 q 144 676 144 676 l 146 676 l 164 664 l 183 656 l 183 656 l 200 640 l 215 628 l 229 611 l 229 610 l 231 590 l 233 553 l 235 533 l 233 514 l 235 501 l 243 513 l 256 526 l 268 542 l 293 571 l 306 585 l 317 601 l 331 615 l 342 631 l 356 644 l 365 661 l 379 674 q 382 675 379 675 l 399 664 l 417 654 l 435 642 l 450 628 l 450 626 l 461 610 l 461 610 l 467 592 l 472 553 l 471 533 l 474 514 l 474 494 l 475 476 l 476 438 l 474 418 l 474 399 l 476 379 l 476 360 l 475 340 l 475 322 l 472 303 l 474 283 l 474 264 l 469 226 l 471 207 l 469 188 l 468 168 l 468 150 l 465 131 l 465 129 l 453 115 l 442 101 l 429 88 l 415 76 l 401 64 l 389 51 l 389 50 l 374 40 l 358 31 l 344 19 l 328 10 l 311 3 l 310 3 l 294 14 l 278 24 l 263 35 l 247 46 l 232 50 l 231 35 l 232 17 l 231 -3 l 231 -21 l 231 -40 l 231 -58 l 231 -78 l 229 -94 l 240 -107 l 254 -117 l 272 -111 l 289 -97 q 292 -99 292 -97 l 307 -112 q 307 -115 310 -115 l 296 -131 l 283 -143 l 271 -158 l 258 -172 l 246 -185 l 235 -200 l 221 -212 l 208 -226 l 197 -240 l 182 -253 m 238 418 l 235 399 l 238 379 l 238 360 l 236 319 l 238 301 l 236 281 l 236 261 l 238 242 l 235 222 l 235 204 l 251 207 l 271 207 l 290 204 l 310 200 l 325 197 l 328 214 l 329 233 l 328 253 l 329 272 l 332 292 l 333 311 l 331 331 l 333 350 l 333 369 l 331 389 l 331 389 l 332 408 l 331 428 l 331 447 l 328 467 l 328 486 l 325 503 l 307 517 l 286 514 l 272 501 l 261 485 l 249 469 l 236 456 l 236 438 l 238 418 z "},"q":{"ha":444,"x_min":24,"x_max":410,"o":"m 408 256 l 410 238 l 410 218 l 410 200 l 407 181 l 410 163 l 410 143 l 408 106 l 407 88 l 407 69 l 407 50 l 407 32 l 407 13 l 404 -6 l 404 -25 l 403 -43 l 404 -61 l 401 -81 l 403 -99 l 400 -118 l 401 -137 l 400 -139 l 360 -178 l 344 -189 l 331 -201 l 318 -215 l 303 -228 l 292 -242 l 276 -254 l 275 -254 l 275 -254 l 269 -251 q 268 -250 268 -250 l 268 -231 l 268 -212 l 268 -194 l 268 -176 l 269 -157 l 265 -140 l 265 -121 l 268 -103 l 267 -85 l 267 -65 l 267 -47 l 267 -29 l 268 -11 l 267 7 l 267 25 l 268 44 l 267 61 l 267 63 l 268 81 l 267 99 l 267 110 l 260 100 l 233 74 l 224 58 l 211 44 l 200 29 l 188 15 l 175 1 l 174 1 l 157 8 l 142 21 l 125 31 l 108 42 l 93 51 l 78 64 l 63 76 l 47 88 l 33 101 l 32 103 l 31 121 l 28 139 l 29 158 l 26 176 l 28 196 l 25 214 l 26 233 l 28 253 l 24 290 l 25 308 l 25 328 l 26 346 l 29 365 l 29 383 l 28 403 l 29 421 l 29 440 l 31 458 l 31 478 l 32 496 q 33 497 32 497 l 46 511 l 60 525 l 72 540 l 83 556 l 99 568 l 110 583 l 122 597 l 147 626 l 161 639 l 175 653 l 188 668 l 200 682 l 213 696 l 215 696 l 232 690 l 249 683 l 267 676 l 285 668 l 301 660 l 318 651 l 335 642 l 350 631 l 367 621 l 367 621 l 379 607 l 392 593 l 392 592 l 399 575 l 401 557 l 403 518 l 406 500 l 406 482 l 407 463 l 406 443 l 406 425 l 407 406 l 407 388 l 410 368 l 408 331 l 408 313 l 408 293 l 408 275 l 408 256 m 267 218 l 269 238 l 265 256 l 265 256 l 268 275 l 267 293 l 267 313 l 267 331 l 269 368 l 268 386 l 268 406 l 268 424 l 267 443 l 268 461 l 251 469 l 236 481 l 219 488 l 203 499 l 189 510 l 158 525 l 158 513 l 158 493 l 157 475 l 156 457 l 154 439 l 157 421 l 156 401 l 156 383 l 154 365 l 154 347 l 154 328 l 154 310 l 153 292 l 153 274 l 154 256 l 151 236 l 153 219 l 165 208 l 179 199 l 194 189 l 208 178 l 224 168 l 239 161 l 254 151 l 268 146 l 268 163 l 268 181 l 268 200 l 267 218 z "},"r":{"ha":418,"x_min":-6,"x_max":447,"o":"m 350 675 l 365 665 l 381 656 l 394 646 l 410 636 l 426 629 l 442 619 l 442 618 l 447 606 l 447 606 l 446 593 q 444 592 446 592 l 425 560 l 413 544 l 403 529 l 390 515 l 381 499 l 371 483 l 350 451 l 339 436 l 336 436 l 321 447 l 321 449 l 331 469 l 326 488 l 313 497 l 297 506 l 283 515 l 267 522 l 254 532 l 233 529 l 225 518 l 225 518 l 214 510 l 214 492 l 214 472 l 218 454 l 217 435 l 217 397 l 217 379 l 218 360 l 218 342 l 217 322 l 217 304 l 215 285 l 215 249 l 215 229 l 217 211 l 214 192 l 214 174 l 231 161 l 246 147 l 264 154 l 279 169 l 281 169 l 281 169 l 282 169 l 293 157 l 293 154 l 268 126 l 257 113 l 243 100 l 231 86 l 219 74 l 206 60 l 194 46 l 183 32 l 171 18 l 158 4 l 157 4 l 156 4 l 139 17 l 124 29 l 108 44 l 94 58 l 79 74 l 79 75 l 76 113 l 76 131 l 75 150 l 72 168 l 69 206 l 71 224 l 71 243 l 69 261 l 68 281 l 68 299 l 68 354 l 69 374 l 69 392 l 69 411 l 68 429 l 69 447 l 68 467 l 68 485 l 69 504 l 71 521 l 60 531 l 47 538 l 28 538 l 18 525 l 6 514 l 4 514 l 3 515 l -6 525 l -6 528 l 4 543 l 17 557 l 28 572 l 42 586 l 53 600 l 75 631 l 88 644 l 99 660 l 110 674 l 121 689 q 124 690 124 690 l 142 678 l 178 657 l 194 644 l 194 643 l 203 625 l 208 608 l 210 592 l 210 575 l 213 544 l 222 556 l 233 569 l 244 585 l 256 600 l 269 614 l 281 629 l 293 643 l 307 656 l 318 669 l 332 682 q 333 683 332 683 q 333 682 333 683 l 350 675 z "},"s":{"ha":475,"x_min":18,"x_max":443,"o":"m 42 -8 l 40 -8 l 18 4 q 18 7 18 7 l 28 24 l 38 40 l 49 56 l 58 72 l 71 88 l 81 103 l 92 118 l 100 135 l 100 136 l 113 150 l 122 167 l 122 167 l 136 178 l 150 189 l 167 197 l 183 203 l 185 203 l 201 200 l 203 200 l 221 193 l 240 185 l 258 178 l 276 169 l 314 157 l 329 150 l 331 165 l 328 183 l 329 203 l 331 222 l 329 258 l 315 268 l 301 282 l 286 293 l 271 304 l 257 315 l 244 326 l 235 313 l 224 296 l 211 281 l 186 250 l 176 233 q 175 232 176 232 l 164 224 l 163 224 l 149 226 l 131 235 l 114 244 l 64 275 l 49 285 l 36 294 l 36 296 l 32 328 l 31 347 l 32 386 l 32 406 l 31 425 l 32 444 l 31 463 l 33 482 l 33 483 l 40 500 l 53 517 l 60 533 l 71 549 l 81 565 l 90 581 l 103 596 l 115 610 l 126 625 l 140 639 l 165 667 l 178 681 l 190 694 q 192 696 192 696 l 214 699 l 215 699 l 233 688 l 269 665 l 289 658 l 304 649 l 336 635 l 353 633 l 369 638 l 381 650 l 394 661 q 396 663 396 663 l 417 650 q 417 647 418 649 l 408 632 l 397 617 l 375 586 l 354 554 l 343 540 l 332 525 l 319 510 l 310 494 l 300 479 l 289 464 q 288 463 288 463 l 268 471 l 250 479 l 233 490 l 215 499 l 199 508 l 181 515 l 163 526 l 147 532 l 144 515 l 144 496 l 144 475 l 143 454 l 143 435 l 157 424 l 174 414 l 190 406 l 206 396 l 222 386 l 239 379 l 253 371 l 275 400 l 297 433 l 310 447 l 321 464 l 322 464 l 343 467 l 344 467 l 358 453 l 372 443 l 388 431 l 400 417 l 415 406 l 429 393 l 439 382 l 439 381 l 443 367 l 443 365 l 442 347 l 440 310 l 439 292 l 440 272 l 440 272 l 436 254 l 436 254 l 426 238 l 408 203 l 396 188 l 386 171 l 374 156 l 364 139 l 340 108 l 329 93 l 317 78 l 306 63 l 294 47 l 281 32 l 268 18 l 254 6 q 253 4 253 4 l 235 0 l 235 0 l 197 14 l 179 19 l 163 29 l 144 36 l 126 44 l 108 50 l 93 46 l 78 36 l 65 22 l 54 7 l 43 -7 l 42 -8 z "},"t":{"ha":318,"x_min":13,"x_max":349,"o":"m 347 710 l 349 710 l 349 707 l 340 692 l 328 679 l 317 665 l 307 650 l 294 636 l 286 621 l 274 607 l 264 593 l 254 578 q 251 576 253 576 l 233 579 l 217 579 l 215 560 l 217 542 l 217 522 l 217 503 l 214 485 l 215 465 l 214 446 l 214 428 l 213 408 l 214 390 l 213 371 l 210 351 l 210 333 l 208 314 l 208 296 l 208 276 l 208 257 l 207 239 l 207 219 l 207 201 l 203 182 l 218 172 l 244 150 l 264 154 l 281 168 q 281 169 281 169 q 282 168 282 169 l 294 157 l 296 156 q 294 154 296 154 l 282 140 l 272 126 l 258 113 l 246 100 l 235 86 l 221 74 l 211 58 l 199 44 l 185 32 l 174 18 l 161 4 l 160 4 l 160 4 l 142 15 l 126 29 l 113 44 l 97 57 l 85 74 q 83 75 83 75 l 82 93 l 81 111 l 81 131 l 78 149 l 79 168 l 79 186 l 79 206 l 78 224 l 78 243 l 79 261 l 79 281 l 79 318 l 79 338 l 79 356 l 83 375 l 83 393 l 85 431 l 88 449 l 85 468 l 85 468 l 88 486 l 90 524 l 89 542 l 92 561 l 92 576 l 75 578 l 56 578 l 36 578 l 17 576 q 15 578 15 578 l 13 583 l 13 586 l 22 603 l 35 618 l 57 649 l 69 664 l 82 679 l 92 694 l 104 710 q 107 710 107 710 l 113 725 l 114 725 l 126 739 l 138 753 l 147 768 l 158 783 l 171 797 l 179 813 l 192 826 l 201 842 q 204 843 203 843 l 211 842 q 213 839 213 842 l 213 821 l 214 801 l 217 783 l 215 764 l 217 746 l 218 710 l 235 708 l 253 713 l 272 713 l 292 711 l 310 710 l 329 710 l 347 710 z "},"u":{"ha":518,"x_min":-15,"x_max":540,"o":"m -14 517 q -15 519 -15 518 l -4 535 l 7 550 l 21 564 l 31 579 l 57 607 l 68 621 l 79 636 l 92 651 l 103 665 l 114 681 q 117 682 114 682 l 135 671 l 153 661 l 171 650 l 186 635 l 186 635 l 197 618 l 197 617 l 200 599 l 201 579 l 201 560 l 204 542 l 204 522 l 207 503 l 206 483 l 207 465 l 206 446 l 207 426 l 206 408 l 206 389 l 204 369 l 204 351 l 203 313 l 203 294 l 201 275 l 201 257 l 199 238 l 199 221 l 213 213 l 240 192 l 253 182 l 268 172 l 283 163 l 294 156 l 294 171 l 294 190 l 294 208 l 293 228 l 293 247 l 293 267 l 293 285 l 294 324 l 297 343 l 297 361 l 299 381 l 300 400 l 304 438 l 303 457 l 304 475 l 307 494 l 308 513 l 297 522 l 285 529 l 269 528 l 258 515 l 246 504 l 244 504 l 243 504 l 233 517 q 233 519 232 518 l 244 533 l 256 549 l 267 564 l 278 579 l 292 593 l 304 607 l 313 622 l 326 636 l 338 651 l 349 667 l 361 682 q 362 683 361 683 q 363 682 363 683 l 382 672 l 400 661 l 417 647 l 433 635 l 433 635 l 444 618 l 444 617 l 446 599 l 450 581 l 450 561 l 450 543 l 451 524 l 451 506 l 453 488 l 454 450 l 451 432 l 453 413 l 454 394 l 450 376 l 450 358 l 450 339 l 451 321 l 449 301 l 447 283 l 449 265 l 447 247 l 446 228 l 444 211 l 458 199 l 475 188 l 489 175 l 506 175 l 519 185 q 522 185 521 186 l 539 171 q 539 168 540 169 l 531 153 l 508 124 l 497 108 l 488 94 l 478 79 l 468 64 l 457 49 l 447 33 l 438 18 l 428 3 l 425 3 l 425 3 l 424 3 l 410 15 l 396 26 l 381 36 l 367 49 l 353 60 l 339 72 l 325 83 l 311 94 l 301 106 l 292 93 l 281 78 l 267 64 l 257 49 l 243 35 l 232 19 l 219 4 l 217 4 l 201 11 l 186 21 l 169 28 l 153 38 l 138 47 l 122 56 l 107 65 l 92 75 l 75 83 l 75 85 l 64 99 l 64 99 l 60 118 l 58 136 l 57 156 l 54 193 l 54 213 l 53 231 l 56 250 l 56 288 l 53 307 l 53 307 l 56 325 l 57 363 l 56 382 l 57 400 l 58 419 l 60 457 l 61 476 l 63 494 l 63 513 l 49 521 l 36 532 l 22 529 l 11 517 l -1 506 q -4 506 -1 503 l -14 517 z "},"v":{"ha":485,"x_min":-14,"x_max":458,"o":"m -14 674 l -14 693 l -11 713 l -8 732 l -8 732 l -1 750 l 6 767 l 15 785 l 25 800 l 36 817 l 47 832 l 58 847 l 69 863 l 83 875 l 96 889 l 107 904 l 121 918 l 124 918 l 139 906 q 140 903 140 903 l 128 886 l 121 869 l 114 850 l 108 832 l 104 813 l 103 793 l 103 774 l 106 754 l 110 735 l 118 719 l 124 703 l 138 690 l 149 675 l 164 665 l 176 653 l 188 638 l 197 622 l 197 621 l 201 603 l 201 583 l 201 564 l 206 544 l 206 544 l 203 525 l 206 506 l 206 492 l 214 501 l 226 515 l 236 532 l 272 575 l 285 589 l 296 604 l 308 618 l 319 633 l 333 646 l 343 661 l 356 675 q 357 676 356 676 l 376 682 l 378 682 l 393 671 l 410 663 l 438 639 l 438 638 l 449 622 l 449 621 l 450 603 l 453 585 l 453 565 l 454 547 l 457 529 l 458 511 l 458 492 l 457 474 l 457 456 l 458 438 l 457 418 l 456 382 l 456 363 l 453 343 l 446 303 l 432 264 l 421 247 l 411 229 l 392 207 l 379 193 l 368 178 l 344 150 l 335 136 l 321 121 l 297 90 l 282 76 l 269 61 l 258 46 l 246 31 l 233 15 l 219 1 q 218 0 219 0 l 218 0 l 201 7 l 186 18 l 169 26 l 153 33 l 136 43 l 121 54 l 106 63 l 89 72 l 74 82 l 60 96 l 60 96 l 57 115 l 57 135 l 56 153 l 53 171 l 53 190 l 51 210 l 51 228 l 50 246 l 51 265 l 49 283 l 49 303 l 49 322 l 47 340 l 50 360 l 50 378 l 49 396 l 49 415 l 49 433 l 51 453 l 50 508 l 53 526 l 36 533 l 35 533 l 22 547 l 11 564 l 1 579 l 1 581 l -7 618 l -10 636 l -11 656 l -14 674 m 201 257 l 200 238 l 199 219 l 211 210 l 226 201 l 226 201 l 239 189 l 254 181 l 269 171 l 285 161 l 297 153 l 297 169 l 297 189 l 297 208 l 299 228 l 300 247 l 303 267 l 304 285 l 303 304 l 306 343 l 307 363 l 307 382 l 308 401 l 307 419 l 307 439 l 308 458 l 308 478 l 311 497 l 311 515 l 294 526 l 281 538 l 269 525 l 256 510 l 231 479 l 218 464 l 206 450 l 207 431 l 207 411 l 206 392 l 206 372 l 204 353 l 204 314 l 200 294 l 200 276 l 201 257 z "},"w":{"ha":726,"x_min":-15,"x_max":703,"o":"m 611 172 l 599 158 l 588 144 l 576 129 l 564 115 l 525 74 l 514 60 l 503 44 l 489 32 l 478 17 l 465 3 l 463 3 l 447 14 l 433 25 l 421 39 l 407 50 l 390 60 l 376 71 l 364 85 l 350 96 l 336 108 l 322 117 l 311 103 l 297 89 l 286 72 l 272 57 l 260 42 l 247 26 l 233 11 l 221 -3 q 218 -4 219 -4 l 218 -4 l 203 4 l 186 13 l 169 22 l 154 31 l 138 39 l 106 58 l 89 67 l 74 78 l 61 92 q 60 93 60 92 l 58 111 l 56 129 l 56 149 l 50 206 l 51 225 l 49 263 l 50 281 l 49 300 l 50 318 l 49 338 l 49 356 l 47 375 l 49 394 l 49 413 l 50 432 l 50 450 l 51 469 l 49 488 l 49 489 l 53 507 l 51 525 l 36 532 l 35 532 l 22 546 l 10 561 l 10 561 l 3 579 l -4 597 l -8 617 l -10 635 l -12 654 l -15 674 l -14 693 l -11 711 l -7 731 l 0 749 l 7 767 l 14 785 l 15 785 l 26 800 l 36 817 l 47 832 l 69 863 l 83 878 l 93 893 l 107 907 l 119 921 q 122 921 119 924 l 140 906 q 140 903 143 906 l 129 886 l 121 868 l 114 850 l 110 831 l 104 813 l 104 793 l 103 772 l 111 733 l 124 701 l 135 688 l 163 664 l 176 651 l 189 639 l 190 638 l 199 621 l 199 619 l 201 601 l 201 581 l 204 563 l 204 561 l 203 542 l 206 524 l 204 503 l 207 488 l 215 500 l 228 515 l 239 531 l 251 544 l 264 558 l 276 574 l 286 590 l 299 604 l 310 619 l 336 649 l 349 664 l 361 678 l 361 678 l 372 682 l 375 682 l 408 663 l 424 650 l 439 639 q 440 638 440 638 l 450 621 l 450 619 l 453 601 l 451 581 l 454 563 l 454 543 l 454 524 l 451 504 l 450 492 l 457 501 l 469 517 l 483 529 l 507 558 l 517 575 l 540 604 l 553 618 l 564 633 l 575 647 l 588 663 l 600 676 l 601 676 l 615 679 l 617 679 l 633 669 l 667 649 l 667 649 l 679 633 l 690 619 l 690 618 l 693 599 l 694 581 l 699 563 l 700 544 l 700 525 l 701 507 l 701 488 l 703 469 l 701 451 l 701 432 l 700 414 l 699 396 l 700 376 l 697 358 l 696 338 l 694 318 l 689 297 l 674 260 l 663 243 l 654 224 l 654 224 l 643 213 l 632 201 l 622 188 l 611 172 m 556 450 l 556 469 l 557 488 l 558 506 l 546 515 l 533 526 l 522 535 l 511 519 l 496 506 l 485 489 l 471 474 l 458 458 l 447 443 l 446 424 l 444 403 l 446 382 l 444 361 l 444 342 l 443 322 l 442 304 l 439 285 l 439 267 l 439 247 l 438 229 l 453 218 l 469 210 l 485 197 l 500 186 l 515 175 l 529 163 l 543 156 l 544 169 l 543 189 l 544 208 l 544 226 l 547 246 l 549 264 l 549 282 l 549 301 l 551 321 l 554 357 l 551 376 l 553 414 l 556 432 l 556 450 m 308 457 l 310 476 l 310 496 l 311 514 l 296 525 l 281 538 l 269 522 l 258 506 l 243 492 l 232 475 l 218 460 l 206 444 l 207 425 l 207 406 l 206 386 l 207 368 l 204 349 l 206 329 l 204 310 l 203 290 l 200 272 l 200 253 l 200 233 l 197 215 l 211 206 l 226 197 l 242 188 l 256 176 l 269 167 l 285 156 l 297 150 l 300 165 l 299 185 l 300 204 l 300 224 l 303 243 l 304 263 l 303 282 l 304 301 l 307 321 l 308 360 l 306 379 l 307 418 l 310 438 l 308 457 z "},"x":{"ha":536,"x_min":25,"x_max":507,"o":"m 457 682 l 457 682 l 475 672 l 493 660 l 493 660 l 506 643 l 506 642 l 497 624 l 488 607 l 481 589 l 472 571 l 463 554 l 451 538 l 444 519 l 435 503 q 433 501 435 501 l 433 501 l 426 501 q 425 503 425 503 l 413 513 l 397 519 l 382 525 l 371 525 l 365 510 l 357 492 l 347 475 l 340 457 l 331 439 l 324 424 l 332 408 l 342 392 l 350 375 l 358 358 l 369 343 l 369 343 l 376 325 l 386 310 l 396 293 l 403 276 l 411 260 l 426 225 l 435 208 l 443 192 l 450 175 l 465 175 l 492 196 l 493 196 l 506 186 q 507 183 507 186 l 479 133 l 468 117 l 458 100 l 447 83 l 439 67 l 426 51 l 418 35 l 406 19 l 393 4 q 392 4 393 3 l 372 6 l 371 6 l 358 21 l 350 39 l 331 72 l 321 89 l 311 104 l 303 122 l 293 139 l 286 158 l 276 174 l 271 193 l 261 208 l 256 228 l 246 244 l 239 258 l 232 244 l 222 229 l 215 213 l 207 196 l 200 179 l 189 163 l 183 146 l 175 128 l 167 111 l 160 94 l 144 61 l 135 44 l 128 28 l 121 11 q 119 10 121 10 l 107 1 l 106 0 l 90 -1 l 71 -1 l 69 -1 l 53 10 l 38 24 l 25 39 l 25 42 l 35 60 l 46 75 l 57 92 l 65 110 l 74 126 l 86 143 l 96 160 l 104 178 l 107 178 l 111 178 q 113 176 113 178 l 126 164 l 144 154 l 157 150 l 164 165 l 171 183 l 181 201 l 188 219 l 199 236 l 206 254 l 214 272 l 222 289 l 214 306 l 204 322 l 194 339 l 186 357 l 179 375 l 169 392 l 160 408 l 149 425 l 132 460 l 122 476 l 114 494 l 104 511 l 96 528 l 82 529 l 68 519 l 57 506 l 49 492 l 47 490 l 44 490 l 31 506 l 31 508 l 39 525 l 39 525 l 53 540 l 61 557 l 75 572 l 85 588 l 97 603 l 106 619 l 117 636 l 129 651 l 140 667 l 154 681 l 156 682 l 176 681 l 178 681 l 194 668 l 194 668 l 204 651 l 213 635 l 221 618 l 229 600 l 239 585 l 246 567 l 257 551 l 257 551 l 264 533 l 274 518 l 283 501 l 290 483 l 300 468 l 307 454 l 314 467 l 322 485 l 332 501 l 339 519 l 347 536 l 356 554 l 364 571 l 374 588 l 382 606 l 390 622 l 400 639 l 410 656 l 415 674 q 417 675 417 674 l 435 685 l 436 685 l 457 682 z "},"y":{"ha":468,"x_min":-33,"x_max":436,"o":"m -33 522 l -33 525 l -22 540 l -10 554 l 1 569 l 14 585 l 25 599 l 36 614 l 49 628 l 72 658 l 86 672 l 96 688 q 99 689 96 689 l 117 676 l 135 668 l 151 654 l 167 640 l 181 624 l 181 622 l 182 604 l 186 585 l 186 565 l 188 547 l 189 528 l 189 508 l 189 489 l 188 471 l 189 451 l 188 432 l 189 414 l 189 394 l 188 375 l 188 356 l 186 338 l 186 318 l 185 299 l 185 281 l 183 261 l 181 242 l 181 225 l 197 217 l 214 206 l 232 196 l 249 188 l 267 179 l 281 169 l 282 204 l 281 222 l 282 260 l 285 278 l 285 315 l 283 333 l 286 371 l 288 389 l 288 444 l 290 464 l 292 482 l 292 518 l 282 528 l 269 535 l 254 533 l 242 522 l 231 510 q 229 508 229 508 l 228 508 l 214 522 q 213 524 213 524 q 214 525 213 525 l 228 539 l 240 554 l 250 569 l 275 599 l 297 628 l 308 643 l 322 657 l 332 674 l 344 688 q 347 689 344 689 l 365 678 l 383 667 l 400 656 l 417 642 l 418 642 l 428 624 l 428 622 l 432 604 l 431 585 l 433 567 l 433 547 l 433 528 l 436 489 l 433 469 l 435 451 l 435 413 l 433 393 l 435 374 l 433 354 l 431 335 l 432 315 l 431 297 l 431 278 l 429 239 l 426 219 l 428 201 l 425 182 l 426 163 l 424 143 l 424 124 l 421 104 l 419 86 l 419 67 l 418 47 l 419 28 l 417 8 l 415 8 l 406 -7 l 393 -21 l 383 -36 l 372 -51 l 361 -65 l 349 -79 l 339 -94 l 325 -108 l 315 -122 l 303 -136 l 289 -150 l 279 -164 l 278 -164 l 264 -176 l 251 -189 l 236 -199 q 235 -200 235 -200 l 218 -203 l 218 -203 l 217 -203 l 201 -193 l 185 -185 l 168 -176 l 151 -171 l 133 -167 l 115 -165 l 78 -165 l 60 -165 l 43 -171 q 40 -169 40 -171 l 38 -164 q 39 -162 38 -162 l 51 -147 l 64 -132 l 75 -117 l 88 -101 l 100 -87 l 113 -72 l 126 -58 l 138 -43 l 151 -28 l 163 -12 l 176 1 l 188 14 l 172 21 l 157 32 l 139 39 l 122 50 l 107 58 l 89 67 l 74 76 l 60 90 l 44 101 l 44 103 l 42 122 l 40 140 l 39 160 l 36 179 l 38 197 l 38 217 l 36 236 l 35 254 l 36 274 l 38 293 l 36 311 l 38 331 l 36 349 l 36 350 l 39 368 l 38 388 l 40 406 l 39 425 l 42 444 l 43 463 l 43 482 l 44 500 l 44 518 l 32 526 l 19 536 l 7 535 l -6 522 l -18 508 l -19 508 l -21 508 l -33 522 m 278 75 l 279 89 l 272 78 l 271 78 l 257 65 l 247 50 l 233 36 l 224 21 l 210 8 l 199 -6 l 189 -17 l 207 -15 l 228 -12 l 249 -14 l 249 -14 l 268 -24 l 269 -24 l 278 -35 l 281 -21 l 279 -1 l 278 18 l 279 38 l 279 57 l 278 75 z "},"z":{"ha":490,"x_min":11,"x_max":474,"o":"m 194 6 l 176 4 l 157 7 l 139 6 l 67 8 l 49 7 l 29 10 l 13 10 q 11 11 11 10 l 11 13 l 22 29 l 33 46 l 44 61 l 56 78 l 65 94 l 76 111 l 88 126 l 97 143 l 110 158 l 129 189 l 139 204 l 150 219 l 158 235 l 169 250 l 188 281 l 196 292 l 182 293 l 163 292 l 143 293 l 125 292 l 108 282 l 96 263 q 93 261 96 261 l 75 268 q 74 269 74 269 l 74 271 l 83 286 l 92 301 l 113 332 l 121 347 l 131 363 l 140 379 l 151 393 l 174 422 l 175 422 l 192 424 l 210 422 l 226 424 l 228 424 l 244 421 l 263 421 l 278 424 l 288 439 l 300 454 l 310 471 l 319 488 l 331 504 l 343 519 l 353 536 l 363 550 l 346 550 l 326 553 l 308 553 l 289 553 l 269 556 l 250 556 l 231 554 l 193 554 l 174 554 l 154 554 l 135 551 l 115 551 l 82 546 l 71 536 l 57 514 q 54 513 56 513 l 33 524 l 33 525 l 33 526 l 44 542 l 64 572 l 75 586 l 94 617 l 101 633 l 113 649 l 125 661 l 132 678 q 135 679 133 679 l 153 681 l 171 682 l 207 685 l 225 686 l 243 688 l 263 688 l 281 686 l 299 686 l 317 685 l 335 685 l 353 686 l 371 683 l 389 685 l 407 683 l 443 679 l 461 679 l 472 678 l 474 678 l 474 675 l 464 660 l 444 626 l 432 611 l 422 596 l 413 579 l 401 564 l 382 531 l 371 515 l 360 500 l 351 483 l 340 467 l 329 451 l 321 435 l 311 422 l 328 422 l 349 422 l 369 424 l 389 422 l 401 435 l 408 449 q 411 449 411 449 l 431 447 l 432 446 l 432 444 l 426 431 l 418 418 q 419 417 419 418 q 418 417 419 417 l 410 401 l 404 385 l 386 354 l 378 339 l 369 324 l 369 322 l 356 311 l 344 297 l 344 297 l 332 292 l 331 292 l 315 293 l 300 293 l 283 293 l 264 293 l 246 292 l 228 292 l 217 279 l 200 249 l 189 233 l 178 219 l 168 206 l 161 189 l 150 175 l 143 160 q 142 158 143 158 l 132 149 l 128 139 l 151 139 l 169 139 l 206 138 l 225 136 l 243 136 l 261 136 l 279 136 l 299 138 l 317 136 l 335 136 l 353 138 l 372 136 l 390 138 l 407 140 l 424 151 l 433 171 q 436 172 436 172 l 458 164 q 460 161 461 163 l 454 144 l 443 129 l 435 113 l 429 96 l 429 94 l 417 81 l 408 65 l 397 50 l 389 35 l 388 33 l 375 21 l 361 8 l 360 8 l 340 8 l 322 8 l 304 7 l 286 6 l 267 7 l 249 7 l 231 4 l 213 7 l 194 6 z "},"C":{"ha":925,"x_min":39,"x_max":915,"o":"m 356 249 l 343 261 l 343 263 l 354 276 l 365 289 l 375 301 q 378 303 376 303 l 392 293 l 406 282 l 417 269 l 417 267 l 407 253 l 394 242 l 385 228 l 383 226 l 383 226 l 382 228 l 356 249 m 403 799 l 429 776 l 429 775 l 429 774 l 418 761 l 407 747 l 396 736 l 394 735 q 393 736 393 735 l 381 746 l 367 754 l 367 756 l 356 768 l 356 769 l 365 782 l 376 794 l 388 808 q 388 810 388 810 q 389 808 389 810 l 403 799 m 224 808 l 236 822 l 264 844 l 278 856 l 293 864 l 307 874 l 321 885 l 335 896 l 351 903 l 365 914 l 382 922 l 397 931 l 413 939 l 428 949 l 460 963 l 475 971 l 492 978 l 508 985 l 510 985 l 517 974 l 517 972 q 515 971 515 972 l 500 963 l 485 953 l 469 944 l 454 933 l 442 922 l 426 913 l 411 903 l 396 892 l 381 882 l 367 872 l 353 860 l 339 850 l 326 836 l 326 836 l 311 828 l 300 814 l 286 801 l 275 789 l 265 775 l 253 761 l 243 746 l 233 732 l 225 717 l 217 700 l 210 685 l 201 668 l 196 651 l 190 635 l 188 618 l 183 600 l 179 583 l 175 565 l 174 549 l 174 531 l 172 513 l 171 496 l 174 479 l 174 461 l 174 443 l 175 426 l 179 408 l 181 392 l 185 375 l 188 357 l 192 340 l 197 324 l 204 308 l 211 292 l 221 278 l 228 261 l 238 247 l 246 232 l 258 219 l 271 207 l 281 193 l 294 182 l 308 169 l 322 160 l 336 150 l 351 142 l 382 124 l 394 118 l 410 150 l 415 167 l 417 185 l 419 203 l 419 238 l 419 256 l 421 272 l 419 288 l 419 289 l 421 306 l 421 321 l 421 338 l 406 339 l 389 342 l 372 344 l 322 353 l 306 353 l 290 347 l 276 338 l 264 326 l 254 313 q 253 311 254 311 l 251 311 l 244 317 q 244 318 243 318 l 251 333 l 261 349 l 271 363 l 281 378 l 292 392 l 300 407 l 300 407 l 313 421 l 322 435 l 335 447 l 347 460 l 361 469 l 374 478 l 389 483 l 406 485 l 419 485 l 419 500 l 421 517 l 422 535 l 421 551 l 421 567 l 406 571 l 389 572 l 372 576 l 356 576 l 354 576 l 339 582 l 322 583 l 306 585 l 290 578 l 276 568 l 264 556 l 254 540 l 254 540 l 253 540 l 243 546 q 242 547 242 546 q 243 547 242 547 l 251 564 l 263 578 l 271 593 l 282 607 l 300 636 l 313 650 l 322 665 l 335 678 l 349 689 l 361 700 l 375 710 l 375 710 l 392 714 l 408 715 l 424 715 l 425 729 l 429 746 l 432 761 l 435 778 l 435 779 l 442 794 l 449 810 l 456 825 l 465 839 l 478 853 l 488 867 l 513 892 l 524 904 l 535 918 l 547 931 l 561 942 l 572 954 l 585 968 l 597 979 l 611 990 l 613 990 l 614 990 l 617 985 l 617 982 l 606 968 l 593 954 l 582 940 l 572 925 l 561 911 l 556 893 l 551 876 l 547 858 l 549 840 l 547 822 l 546 804 l 547 788 l 547 771 l 546 753 l 547 736 l 547 718 l 549 701 l 549 683 l 547 665 l 547 649 l 547 632 l 549 614 l 550 597 l 550 579 l 551 563 l 551 544 l 550 528 l 551 511 l 553 493 l 551 476 l 554 458 l 554 458 l 550 442 l 551 424 l 551 407 l 551 390 l 553 372 l 550 356 l 550 338 l 546 321 l 543 304 l 542 288 l 539 269 l 533 253 l 531 236 l 524 221 l 517 206 l 507 190 l 494 178 l 481 165 l 468 153 l 456 140 l 440 129 l 428 117 l 415 108 l 428 104 l 443 96 l 457 92 l 472 86 l 504 78 l 519 72 l 536 71 l 568 65 l 581 65 l 581 79 l 581 96 l 581 111 l 582 128 l 581 144 l 581 160 l 571 168 l 560 178 q 560 181 557 181 l 571 194 l 582 208 l 582 225 l 582 243 l 581 261 l 582 278 l 582 296 l 582 314 l 581 332 l 582 350 l 583 367 l 581 385 l 581 403 l 583 421 l 581 438 l 582 456 l 583 474 l 582 490 l 581 508 l 581 526 l 582 544 l 582 561 l 582 578 l 568 588 l 556 600 l 556 603 l 569 618 l 582 635 l 582 654 l 582 674 l 568 683 l 557 696 q 556 699 556 697 l 568 715 l 582 731 l 581 765 l 582 783 l 581 801 l 582 819 l 583 854 l 583 872 l 583 890 l 583 892 l 586 894 l 588 894 l 599 894 l 599 894 l 603 892 l 603 890 l 604 874 l 606 857 l 603 824 l 604 807 l 604 796 l 610 806 l 621 819 l 631 833 l 640 847 l 650 861 l 660 875 l 669 889 l 681 901 l 690 915 l 701 928 l 708 943 l 718 957 l 739 983 l 740 985 q 742 983 742 985 l 756 971 l 768 956 l 782 944 l 796 931 l 822 906 l 835 892 l 847 881 l 847 879 l 856 864 l 861 847 l 861 847 l 861 829 l 861 829 l 857 813 l 851 796 l 842 781 l 833 767 l 824 753 l 814 738 l 801 726 l 790 714 l 778 703 l 764 692 l 753 679 l 740 668 l 739 668 q 738 669 738 668 l 736 672 l 736 674 l 744 689 l 751 706 l 750 722 l 747 740 l 742 756 l 731 769 l 721 783 l 707 796 l 692 806 l 678 818 l 664 826 l 654 817 l 646 803 l 635 790 l 624 778 l 614 764 l 604 751 l 604 729 l 617 718 l 631 706 q 631 703 631 703 l 615 688 l 603 671 l 603 651 l 604 633 l 617 622 l 629 610 q 629 607 631 608 l 617 590 l 604 575 l 603 558 l 606 542 l 604 524 l 603 506 l 603 489 l 603 471 l 603 454 l 604 438 l 603 419 l 604 403 l 604 385 l 603 368 l 603 350 l 603 333 l 603 317 l 606 299 l 606 282 l 604 264 l 606 247 l 604 235 l 614 244 l 624 260 l 636 274 l 650 288 l 653 288 l 667 278 l 681 268 l 694 258 l 708 247 l 721 235 l 733 224 l 746 211 l 758 199 l 758 196 l 749 183 l 738 169 l 726 156 l 718 140 l 717 140 l 704 128 l 682 101 l 669 90 l 667 90 l 654 100 l 640 110 l 626 119 l 614 132 l 604 140 l 606 128 l 604 111 l 603 94 l 604 64 l 619 65 l 636 64 l 653 65 l 671 65 l 704 72 l 721 76 l 738 81 l 753 88 l 768 93 l 785 101 l 799 110 l 828 128 l 840 138 l 854 149 l 868 158 l 879 171 l 892 183 l 903 196 l 904 196 l 914 194 l 915 194 l 915 192 l 910 175 l 904 158 l 896 143 l 890 128 l 882 113 l 872 97 l 861 83 l 851 69 l 840 57 l 806 18 l 804 18 l 790 8 l 778 -3 l 764 -14 l 735 -32 l 719 -40 l 704 -49 l 704 -49 l 686 -54 l 672 -61 l 656 -67 l 638 -69 l 622 -76 l 604 -81 l 588 -81 l 569 -83 l 553 -86 l 535 -86 l 518 -85 l 483 -85 l 467 -83 l 449 -79 l 432 -78 l 414 -74 l 397 -72 l 381 -67 l 364 -62 l 347 -56 l 331 -50 l 315 -43 l 297 -39 l 282 -31 l 267 -21 l 251 -12 l 238 -4 l 222 6 l 208 17 l 194 26 l 182 40 l 157 64 l 144 76 l 135 90 l 125 106 l 114 119 l 106 135 l 96 149 l 90 165 l 82 181 l 75 197 l 68 214 l 64 231 l 58 247 l 54 264 l 50 281 l 47 299 l 44 315 l 42 333 l 42 350 l 40 368 l 42 386 l 39 403 l 39 403 l 40 421 l 40 438 l 43 456 l 44 472 l 46 490 l 46 508 l 50 526 l 56 543 l 58 560 l 58 561 l 71 594 l 83 626 l 92 643 l 100 658 l 111 674 l 118 689 l 118 689 l 131 703 l 139 718 l 150 732 l 163 746 l 174 758 l 186 771 l 197 785 l 211 797 l 224 808 z "},"D":{"ha":939,"x_min":39,"x_max":919,"o":"m 201 681 l 189 693 q 188 694 188 693 q 189 694 188 694 l 200 708 l 211 721 l 221 735 q 224 736 224 736 l 239 725 l 263 701 q 264 699 264 701 l 251 686 l 242 672 l 231 661 l 229 660 l 228 661 l 215 671 l 201 681 m 201 399 l 190 411 q 189 414 189 413 l 199 428 l 211 440 l 221 453 l 222 454 l 224 454 l 250 432 l 264 421 l 264 418 l 243 390 l 231 378 l 229 378 l 228 378 l 215 390 l 201 399 m 203 121 l 189 132 q 188 133 188 132 l 189 135 l 200 147 l 221 174 l 222 175 l 224 175 l 238 164 l 251 154 l 251 153 l 263 140 l 263 139 l 253 125 l 243 111 l 231 99 l 229 99 l 228 99 l 214 108 l 203 121 m 39 765 l 39 767 l 39 768 l 50 782 l 60 797 l 68 813 l 79 826 l 92 840 l 100 856 l 110 869 l 122 883 l 132 897 l 144 910 l 157 922 l 171 932 q 172 933 172 932 l 189 936 l 207 936 l 225 936 l 242 932 l 258 926 l 275 924 l 292 922 l 308 918 l 325 915 l 342 917 l 360 917 l 393 919 l 408 925 l 425 931 l 439 939 l 453 949 l 467 960 q 469 960 467 963 l 474 956 l 474 953 l 461 940 l 450 928 l 439 914 l 431 899 l 421 885 l 411 869 l 404 854 l 401 838 l 401 818 l 400 799 l 400 781 l 401 763 l 400 744 l 400 726 l 400 708 l 401 692 l 401 674 l 401 656 l 401 638 l 400 619 l 400 601 l 400 583 l 399 567 l 400 549 l 400 513 l 400 496 l 400 478 l 400 460 l 401 442 l 400 424 l 401 407 l 400 388 l 400 371 l 400 351 l 401 335 l 401 317 l 401 299 l 399 281 l 401 263 l 400 244 l 401 226 l 399 190 l 400 174 l 397 139 l 392 122 l 388 106 l 381 89 l 374 74 q 372 72 372 74 l 361 61 l 347 49 l 335 35 l 322 22 l 307 13 l 299 3 l 311 3 l 328 3 l 363 3 l 381 3 l 397 4 l 414 4 l 419 19 l 425 38 l 428 56 l 429 74 l 429 92 l 428 108 l 431 126 l 431 143 l 431 161 l 431 179 l 429 196 l 431 214 l 431 231 l 431 249 l 431 265 l 429 283 l 428 301 l 431 319 l 431 336 l 431 354 l 429 371 l 428 389 l 429 406 l 431 424 l 428 440 l 429 458 l 429 475 l 431 493 l 431 511 l 429 528 l 429 546 l 431 563 l 431 581 l 428 597 l 429 615 l 429 632 l 429 650 l 431 667 l 431 683 l 429 701 l 429 718 l 431 735 l 433 751 l 433 768 l 438 786 l 440 803 l 446 818 l 450 835 l 456 851 l 456 851 l 465 865 l 475 881 l 488 893 l 497 907 l 510 921 l 521 933 l 533 946 l 546 958 l 557 972 l 571 983 l 582 996 l 594 1008 l 607 1021 l 619 1033 l 621 1033 q 622 1032 622 1033 l 626 1025 q 628 1024 628 1025 q 626 1024 628 1024 l 615 1008 l 603 996 l 592 982 l 572 951 l 565 935 l 561 917 l 556 900 l 556 882 l 557 846 l 557 829 l 557 829 l 567 843 l 582 858 l 579 876 l 579 896 l 579 915 l 581 935 l 581 936 l 585 940 l 586 940 l 596 942 q 597 940 597 942 l 601 935 l 601 935 l 601 915 l 603 896 l 603 876 l 603 858 l 617 847 l 628 835 q 628 832 631 832 l 615 815 l 601 799 l 601 782 l 603 765 l 603 749 l 601 731 l 603 714 l 601 697 l 601 686 l 618 710 l 629 722 l 638 738 l 649 750 l 660 764 l 669 778 l 678 793 l 688 807 l 700 819 l 708 833 l 719 847 l 728 861 l 739 875 l 747 889 l 758 903 l 767 917 l 778 929 l 788 944 q 789 946 789 944 q 790 944 790 944 l 803 931 l 817 919 l 829 906 l 842 894 l 854 881 l 867 867 l 879 856 l 892 843 l 904 842 l 917 847 q 918 846 918 847 q 919 844 919 846 l 915 828 l 913 810 l 914 793 l 913 776 l 913 758 l 914 724 l 915 707 l 914 689 l 914 672 l 915 656 l 917 638 l 915 621 l 917 603 l 915 586 l 917 568 l 915 533 l 917 517 l 917 500 l 917 482 l 918 465 l 918 449 l 917 431 l 919 414 l 919 396 l 918 379 l 918 363 l 919 344 l 919 328 l 917 310 l 918 293 l 919 276 l 917 258 l 917 242 l 917 225 l 917 207 l 913 190 l 911 174 l 910 157 l 906 139 l 903 122 l 897 106 l 890 90 l 885 74 l 885 74 l 874 61 l 863 47 l 849 36 l 822 13 l 810 1 l 796 -11 l 783 -22 l 769 -32 l 758 -47 l 746 -60 l 735 -74 l 721 -85 l 708 -99 l 681 -118 l 679 -118 l 663 -122 l 646 -126 l 629 -128 l 613 -128 l 596 -129 l 578 -126 l 561 -128 l 543 -128 l 508 -126 l 492 -128 l 490 -128 l 474 -125 l 457 -126 l 456 -126 l 439 -124 l 421 -125 l 404 -122 l 386 -122 l 369 -121 l 351 -122 l 335 -121 l 300 -119 l 282 -117 l 265 -118 l 247 -117 l 229 -115 l 193 -118 l 175 -121 l 157 -122 l 140 -128 l 124 -133 l 107 -140 l 89 -146 l 74 -154 l 60 -164 q 58 -165 60 -165 l 58 -164 l 50 -160 q 49 -158 49 -158 l 49 -157 l 61 -143 l 75 -132 l 85 -118 l 107 -92 l 121 -79 l 133 -67 l 147 -56 l 160 -43 l 160 -42 l 175 -33 l 190 -24 l 206 -14 l 222 -6 l 240 -3 l 256 1 l 263 18 l 268 36 l 271 54 l 275 72 l 272 92 l 274 108 l 274 125 l 271 142 l 272 158 l 271 175 l 271 193 l 269 208 l 254 213 l 236 213 l 236 214 l 218 219 l 200 222 l 182 225 l 165 224 l 149 219 l 136 208 l 122 197 l 114 181 q 113 179 114 179 q 111 181 111 179 l 103 186 l 103 189 l 113 203 l 122 218 l 132 233 l 142 247 l 150 263 l 171 292 l 182 306 l 193 319 l 219 342 l 235 351 l 235 351 l 253 354 l 269 356 l 268 372 l 268 392 l 268 410 l 267 428 l 265 446 l 267 464 l 265 481 l 250 482 l 233 486 l 217 492 l 199 493 l 182 497 l 165 496 l 149 492 l 136 481 l 125 467 l 114 454 q 111 453 113 453 l 104 458 q 103 461 103 458 l 111 475 l 119 490 l 129 506 l 140 521 l 149 535 l 160 550 l 172 563 l 182 576 l 194 590 l 219 613 l 235 621 l 236 621 l 251 625 l 267 628 l 268 644 l 268 663 l 271 678 l 272 694 l 274 711 l 274 726 l 274 728 l 275 731 l 278 747 l 281 765 l 282 765 l 290 781 l 290 782 l 296 788 l 283 783 l 283 783 l 265 785 l 246 783 l 228 785 l 210 788 l 192 790 l 172 794 l 156 799 l 138 803 l 119 806 l 101 806 l 86 800 l 72 789 l 61 775 l 51 761 q 49 760 51 760 l 39 765 m 789 689 l 788 704 l 778 717 l 765 728 l 754 740 l 743 753 l 731 763 l 721 776 l 711 785 l 701 774 l 690 758 l 678 744 l 668 729 l 656 717 l 644 703 l 635 688 l 625 672 l 613 658 l 603 644 l 601 628 l 603 611 l 603 610 l 601 593 l 601 576 l 601 558 l 601 524 l 603 511 l 610 522 l 632 549 l 643 563 l 656 575 l 658 575 l 674 567 l 688 556 l 713 532 l 726 521 l 739 508 l 751 497 l 764 486 q 764 483 767 483 l 756 468 l 744 456 l 735 440 l 724 428 l 711 414 l 699 401 l 689 388 l 689 388 l 675 376 l 674 376 l 658 386 l 643 400 l 628 411 l 613 422 l 601 433 l 601 419 l 601 401 l 603 385 l 603 367 l 603 349 l 604 331 l 603 313 l 601 294 l 603 278 l 601 264 l 611 274 l 621 288 l 632 301 l 644 314 l 656 328 l 658 328 l 688 307 l 700 296 l 740 263 l 753 250 l 765 238 l 765 236 l 756 221 l 733 194 l 724 179 l 710 168 l 700 154 l 689 140 l 675 126 l 674 126 l 657 139 l 643 151 l 629 165 l 614 178 l 601 186 l 603 174 l 603 156 l 603 138 l 601 121 l 603 103 l 601 86 l 603 69 l 601 51 l 601 1 l 617 0 l 633 -3 l 651 -3 l 707 -8 l 725 -8 l 740 -10 l 754 -6 l 768 -3 l 772 13 l 779 28 l 783 43 l 786 58 l 786 75 l 788 92 l 786 126 l 788 144 l 786 161 l 786 179 l 788 197 l 788 214 l 788 232 l 788 249 l 789 267 l 788 285 l 786 301 l 786 319 l 788 338 l 789 356 l 788 372 l 786 390 l 786 407 l 789 425 l 786 443 l 786 478 l 788 496 l 786 513 l 788 531 l 786 547 l 789 565 l 788 583 l 786 600 l 786 618 l 788 636 l 788 653 l 788 671 l 789 689 m 554 794 l 557 778 l 557 760 l 557 743 l 557 725 l 558 708 l 558 690 l 557 674 l 558 657 l 557 639 l 557 621 l 558 604 l 558 586 l 558 569 l 560 553 l 561 518 l 561 500 l 560 483 l 561 465 l 561 449 l 561 432 l 560 414 l 561 397 l 563 381 l 563 346 l 561 328 l 563 311 l 560 293 l 561 276 l 560 242 l 558 225 l 558 207 l 556 190 l 553 174 l 550 157 l 547 140 l 544 122 l 540 106 l 533 90 l 526 75 l 517 61 l 504 49 l 492 36 l 479 24 l 465 13 l 457 4 l 469 6 l 489 6 l 508 3 l 526 4 l 544 4 l 564 3 l 579 3 l 579 18 l 579 35 l 582 53 l 581 69 l 582 86 l 581 104 l 579 121 l 579 138 l 581 156 l 579 172 l 581 189 l 581 206 l 567 217 l 567 219 l 581 238 l 579 272 l 581 292 l 579 308 l 579 328 l 581 346 l 581 382 l 581 400 l 581 418 l 581 436 l 582 453 l 567 465 l 567 465 l 567 467 l 582 485 l 581 519 l 581 556 l 579 574 l 581 592 l 581 608 l 581 626 l 579 644 l 581 663 l 579 681 l 579 697 l 579 715 l 579 733 l 579 751 l 579 786 l 581 803 l 568 814 l 557 824 l 557 813 l 554 794 z "},"E":{"ha":954,"x_min":47,"x_max":963,"o":"m 364 206 l 350 215 l 350 217 l 350 218 l 363 232 l 374 244 l 383 257 q 386 257 386 260 l 400 249 l 425 225 l 425 222 l 415 210 l 404 197 l 393 183 l 392 182 q 390 183 390 182 l 376 193 l 364 206 m 425 743 l 435 732 q 435 729 436 731 l 426 717 l 417 703 l 404 690 q 403 689 404 689 l 401 690 l 389 701 l 376 711 l 364 722 q 363 724 363 724 q 364 725 363 725 l 375 738 l 385 750 l 396 764 l 397 764 l 413 756 l 425 743 m 64 219 l 57 236 l 53 271 l 50 289 l 51 306 l 49 324 l 47 340 l 47 358 l 49 376 l 49 393 l 49 411 l 50 428 l 54 446 l 54 464 l 54 464 l 58 481 l 63 499 l 65 515 q 67 517 67 515 l 74 532 l 78 549 l 86 565 l 92 582 l 101 597 l 108 614 l 118 629 l 128 643 l 138 658 l 149 672 l 158 686 l 169 701 l 182 714 l 194 726 l 207 739 l 217 753 l 218 753 l 232 764 l 246 775 l 258 786 l 272 799 l 301 819 l 314 831 l 314 832 l 329 840 l 343 851 l 343 851 l 360 858 l 375 868 l 389 878 l 421 893 l 436 903 l 453 910 l 468 917 l 483 925 l 517 939 q 518 939 518 939 l 525 929 l 525 928 q 524 926 525 926 l 507 918 l 493 907 l 479 897 l 464 888 l 433 868 l 419 857 l 404 847 l 390 836 l 376 825 l 361 815 l 347 804 l 335 792 l 319 782 l 293 758 l 283 743 l 272 729 l 261 715 l 251 701 l 240 688 l 233 671 l 224 656 l 217 640 l 210 624 l 204 607 l 197 590 l 194 574 l 189 556 l 188 539 l 183 521 l 182 504 l 182 486 l 181 468 l 181 451 l 179 433 l 179 417 l 182 399 l 183 382 l 185 364 l 189 347 l 190 329 l 197 314 l 201 296 l 204 279 l 213 264 l 219 247 l 228 232 l 235 217 l 243 201 l 256 189 l 265 174 l 278 163 l 290 150 l 303 138 l 315 125 l 329 115 l 343 104 l 374 88 l 389 79 l 403 72 l 411 88 l 415 104 l 422 122 l 425 140 l 429 158 l 426 176 l 426 178 l 429 194 l 426 243 l 428 261 l 428 276 l 426 292 l 413 294 l 396 297 l 381 300 l 364 304 l 347 306 l 332 311 l 315 308 l 299 304 l 286 293 l 274 281 l 264 267 q 261 267 261 264 l 253 271 l 251 272 q 253 274 251 274 l 263 288 l 269 304 l 279 318 l 290 332 l 308 363 l 319 378 l 331 390 l 343 403 l 357 415 l 368 425 l 382 433 l 397 439 l 414 442 l 414 442 l 428 440 l 426 456 l 429 472 l 426 489 l 428 507 l 429 522 l 413 524 l 396 528 l 381 529 l 347 536 l 332 540 l 314 540 l 299 533 l 286 522 l 274 511 l 264 497 l 261 497 l 254 501 q 253 504 253 503 l 260 518 l 272 533 l 281 547 l 290 563 l 299 578 l 308 593 l 321 606 l 331 621 l 356 646 l 356 646 l 371 654 l 383 663 l 385 664 l 400 668 l 417 671 l 431 671 l 432 685 l 436 701 l 440 717 l 443 733 l 449 750 l 456 765 l 464 781 l 472 794 l 485 808 l 497 821 l 508 833 l 521 847 l 531 861 l 531 861 l 544 872 l 556 886 l 569 897 l 581 910 l 607 933 l 617 947 l 618 947 l 619 947 l 621 947 l 626 940 l 626 938 l 600 910 l 592 896 l 579 881 l 569 865 l 565 849 l 558 832 l 556 814 l 554 796 l 554 778 l 553 760 l 553 743 l 554 726 l 556 708 l 553 692 l 556 674 l 557 674 l 554 656 l 554 639 l 557 622 l 557 604 l 556 586 l 557 569 l 557 553 l 558 535 l 557 518 l 558 500 l 558 483 l 558 465 l 560 449 l 561 432 l 558 414 l 558 397 l 560 379 l 558 363 l 560 346 l 558 328 l 558 311 l 556 276 l 553 258 l 544 225 l 543 208 l 543 208 l 538 192 l 532 176 l 524 161 l 515 146 l 515 146 l 503 133 l 489 121 l 475 110 l 461 97 l 449 85 l 424 63 l 435 57 l 450 53 l 465 46 l 496 36 l 511 35 l 513 35 l 528 28 l 543 25 l 560 25 l 575 19 l 590 19 l 590 35 l 590 51 l 589 67 l 589 83 l 590 100 l 590 115 l 579 124 l 578 124 l 569 133 l 569 136 l 578 150 l 588 164 l 589 181 l 589 199 l 590 217 l 589 233 l 590 251 l 589 269 l 590 288 l 590 306 l 589 322 l 589 340 l 588 358 l 590 376 l 589 411 l 589 429 l 589 447 l 589 464 l 589 482 l 589 518 l 590 535 l 578 544 l 565 556 q 565 558 565 558 l 576 575 l 590 589 l 589 610 l 590 631 l 578 642 l 564 651 q 563 653 563 651 l 563 654 l 589 685 l 590 701 l 590 719 l 589 738 l 589 756 l 589 774 l 590 790 l 589 808 l 589 826 l 590 844 l 590 846 l 594 850 l 596 850 l 606 850 l 607 850 l 611 846 l 613 844 l 613 828 l 610 811 l 613 794 l 611 779 l 613 763 l 611 751 l 619 761 l 628 775 l 639 788 l 649 801 l 657 817 l 657 817 l 668 829 l 686 857 l 699 869 l 708 883 l 717 897 l 728 911 l 736 925 l 736 926 l 747 939 l 749 939 l 750 939 l 776 913 l 790 900 l 803 886 l 815 874 l 829 861 l 842 847 l 854 835 l 854 835 l 863 819 l 868 803 l 868 785 l 868 785 l 864 768 l 857 751 l 851 736 l 842 721 l 832 707 l 821 694 l 810 682 l 797 671 l 785 658 l 774 646 l 761 633 l 749 624 l 746 624 l 742 628 l 742 629 l 751 646 l 756 661 l 760 678 l 756 696 l 749 711 l 739 725 l 728 739 l 714 750 l 699 760 l 683 772 l 671 782 l 660 771 l 649 754 l 636 740 l 624 725 l 611 711 l 611 697 l 611 685 l 625 674 l 638 661 l 638 658 l 626 640 l 611 625 l 613 589 l 625 578 l 638 565 q 638 563 639 564 l 626 544 l 613 529 l 611 514 l 611 499 l 613 486 l 625 489 l 640 494 l 640 494 l 657 496 l 672 493 l 689 494 l 689 493 l 706 490 l 721 490 l 739 486 l 756 486 l 772 483 l 806 475 l 839 471 l 856 471 l 872 467 l 889 467 l 906 467 l 922 468 l 939 471 l 953 481 l 954 481 l 963 476 l 963 474 l 956 458 l 946 443 l 936 428 l 918 399 l 907 385 l 894 372 l 883 360 l 871 347 l 844 325 l 843 325 l 828 318 l 810 317 l 808 317 l 790 321 l 774 321 l 754 325 l 736 326 l 718 329 l 664 333 l 646 336 l 628 336 l 611 335 l 610 319 l 610 303 l 611 269 l 611 236 l 611 219 l 611 201 l 611 190 l 619 201 l 644 229 l 657 243 l 660 243 l 675 235 l 689 224 l 701 211 l 715 201 l 728 189 l 742 179 l 743 179 l 754 165 l 765 154 q 765 151 768 154 l 744 125 l 736 110 l 736 110 l 724 97 l 713 83 l 703 69 l 689 57 l 678 44 q 675 44 676 43 l 661 54 l 649 67 l 636 78 l 622 88 l 613 96 l 610 83 l 611 67 l 613 50 l 611 33 l 613 19 l 626 19 l 644 21 l 661 21 l 678 22 l 711 28 l 728 33 l 744 38 l 761 43 l 775 51 l 790 58 l 807 64 l 821 74 l 863 103 l 876 114 l 888 125 l 899 139 l 910 151 l 913 151 l 921 149 q 922 146 922 147 l 918 131 l 913 114 l 906 99 l 896 83 l 889 68 l 881 53 l 869 39 l 858 26 l 847 13 l 838 -1 l 824 -14 l 811 -25 l 799 -36 l 786 -49 l 786 -49 l 771 -58 l 757 -68 l 743 -78 l 726 -83 l 696 -100 l 679 -106 l 663 -110 l 646 -117 l 629 -121 l 596 -128 l 578 -129 l 560 -128 l 543 -131 l 525 -129 l 508 -129 l 474 -126 l 474 -126 l 457 -124 l 439 -122 l 422 -119 l 406 -114 l 389 -110 l 371 -107 l 338 -96 l 322 -87 l 290 -75 l 275 -67 l 260 -57 l 244 -49 l 231 -37 l 215 -29 l 201 -18 l 190 -4 l 178 7 l 165 19 l 153 32 l 142 46 l 133 61 l 113 89 l 104 104 l 96 121 l 89 136 l 85 153 l 78 169 l 72 186 l 67 203 l 64 219 z "},"F":{"ha":988,"x_min":-93,"x_max":1053,"o":"m 215 660 l 204 672 q 203 673 203 672 q 204 674 203 674 l 214 686 l 235 713 q 238 714 236 714 l 265 694 l 276 681 q 278 680 278 681 q 276 679 278 679 l 267 665 l 254 653 l 244 639 q 243 638 243 638 l 243 638 q 242 639 242 638 l 229 650 l 215 660 m 215 379 l 204 390 q 204 393 203 392 l 213 406 l 235 433 l 236 433 q 238 433 238 433 l 251 422 l 264 410 l 276 400 l 276 397 l 267 383 l 256 371 l 244 358 l 243 357 q 242 358 242 357 l 215 379 m 217 101 l 203 111 q 203 114 201 113 l 213 128 l 235 151 l 238 151 l 250 142 l 265 133 l 278 121 l 278 118 l 265 104 l 257 90 l 244 78 l 243 78 l 242 78 l 228 89 l 217 101 m 1053 863 l 1053 860 l 1043 844 l 1036 829 l 1028 813 l 1018 797 l 1007 783 l 999 768 l 986 754 l 975 740 l 960 729 l 946 719 l 931 708 l 915 700 l 897 696 l 878 696 l 861 696 l 843 697 l 826 701 l 810 706 l 793 710 l 776 714 l 760 719 l 743 725 l 728 731 l 711 739 l 696 744 l 682 753 l 674 739 l 661 724 l 651 708 l 640 694 l 631 679 l 624 663 l 611 649 l 611 631 l 611 614 l 613 596 l 611 576 l 611 560 l 613 542 l 613 524 l 611 507 l 628 510 l 628 510 l 646 508 l 664 510 l 683 508 l 701 506 l 735 503 l 751 499 l 768 499 l 769 499 l 785 493 l 801 493 l 818 489 l 835 488 l 868 482 l 886 483 l 903 482 l 919 483 l 935 488 l 949 494 l 951 494 l 957 492 q 958 490 958 492 l 958 489 l 951 474 l 940 460 l 933 443 l 924 429 l 913 415 l 904 400 l 904 400 l 892 388 l 881 374 l 868 361 l 856 350 l 840 342 l 824 333 l 824 333 l 824 333 l 788 335 l 769 336 l 753 340 l 735 340 l 717 343 l 699 343 l 699 343 l 681 347 l 664 347 l 646 350 l 613 351 l 613 335 l 611 317 l 613 299 l 611 264 l 628 250 l 628 250 l 640 233 q 640 231 642 232 l 631 221 l 622 210 l 613 200 l 611 182 l 611 164 l 611 147 l 626 135 l 639 119 q 639 117 642 117 l 626 101 l 611 88 l 613 69 l 611 50 l 626 40 l 640 29 l 654 17 l 682 -7 l 694 -19 l 707 -32 q 707 -35 708 -33 l 697 -47 l 688 -62 l 676 -76 l 664 -89 l 656 -104 l 643 -117 l 632 -129 l 619 -142 l 617 -142 l 589 -121 l 575 -110 l 563 -97 l 535 -76 l 522 -64 l 508 -53 l 508 -50 l 519 -35 l 533 -22 l 544 -8 l 554 7 l 568 19 l 578 33 l 590 47 l 590 61 l 590 76 l 590 90 l 578 103 l 564 115 l 564 118 l 576 132 l 590 144 l 590 160 l 589 176 l 590 193 l 589 207 l 579 218 l 569 229 l 569 218 l 568 201 l 569 185 l 564 151 l 560 135 l 558 117 l 554 100 l 550 83 l 543 68 l 536 53 l 526 38 l 514 24 l 500 13 l 488 -1 l 474 -14 l 458 -25 l 444 -37 l 429 -49 l 417 -61 l 406 -75 l 390 -87 l 379 -101 l 368 -117 l 356 -131 l 343 -143 l 332 -158 l 319 -169 l 306 -179 l 304 -179 l 289 -185 l 272 -187 l 256 -187 l 240 -192 l 239 -192 l 224 -189 l 207 -185 l 192 -183 l 175 -183 l 158 -183 l 142 -181 l 125 -178 l 110 -175 l 93 -174 l 75 -172 l 58 -171 l 40 -174 l 24 -175 l 7 -178 l -10 -182 l -25 -189 l -40 -197 l -57 -204 l -69 -214 l -85 -225 l -85 -226 q -86 -225 -86 -226 l -93 -218 l -93 -217 l -83 -203 l -71 -192 l -60 -178 l -50 -164 l -26 -139 l -15 -126 l -1 -114 l 25 -92 l 39 -82 l 54 -74 l 71 -67 l 88 -62 l 104 -58 l 122 -57 l 139 -56 l 157 -56 l 175 -54 l 192 -57 l 210 -57 l 226 -56 l 228 -56 l 244 -60 l 253 -46 l 261 -31 l 268 -15 l 274 1 l 279 18 l 281 35 l 285 51 l 283 69 l 283 86 l 282 103 l 282 119 l 281 136 l 281 154 l 281 171 l 281 186 l 228 194 l 210 199 l 192 203 l 174 203 l 158 197 l 144 186 l 133 174 l 124 160 l 121 160 l 114 164 q 113 167 113 167 l 122 181 l 131 196 l 140 211 l 149 226 l 158 242 l 169 256 l 182 268 l 203 297 l 217 308 l 229 319 l 229 319 l 244 328 l 261 333 l 263 333 l 278 333 l 278 350 l 278 368 l 276 388 l 278 406 l 276 424 l 276 442 l 276 458 l 260 463 l 243 464 l 225 467 l 208 471 l 192 475 l 175 474 l 158 468 l 144 458 l 133 446 l 124 433 q 121 432 122 432 l 113 436 l 111 436 l 111 439 l 121 454 l 131 468 l 139 483 l 150 497 l 160 513 l 169 528 l 179 542 l 192 556 l 203 568 l 217 581 l 229 590 l 244 599 l 261 606 l 261 606 l 261 606 l 276 606 l 276 622 l 276 622 l 279 640 l 281 656 l 281 672 l 283 689 l 286 704 l 285 707 l 285 708 l 289 725 l 293 742 l 299 758 q 300 760 300 758 l 307 767 l 293 763 l 275 761 l 256 761 l 238 764 l 182 771 l 164 776 l 147 781 l 128 781 l 111 782 l 96 776 l 82 767 l 69 754 l 61 739 l 60 738 q 58 739 58 738 l 50 744 q 49 745 49 744 q 50 746 49 746 l 58 761 l 69 775 l 81 789 l 89 804 l 100 818 l 110 833 l 119 847 l 131 861 l 143 874 l 153 888 l 165 901 l 165 901 l 181 910 l 182 910 l 199 914 l 217 914 l 235 914 l 235 914 l 251 908 l 268 907 l 285 901 l 318 897 l 335 894 l 351 893 l 386 894 l 433 908 l 449 918 l 463 928 l 476 936 q 477 938 476 938 q 478 936 478 938 l 483 933 l 483 932 l 483 931 l 471 918 l 460 904 l 451 890 l 440 876 l 431 863 l 422 847 l 415 832 l 411 815 l 410 776 l 408 740 l 410 722 l 410 704 l 410 686 l 408 668 l 408 651 l 411 633 l 410 615 l 410 597 l 411 579 l 411 544 l 410 526 l 410 508 l 408 490 l 410 474 l 410 456 l 411 438 l 411 419 l 411 401 l 411 383 l 408 365 l 411 349 l 411 294 l 411 276 l 408 258 l 410 240 l 410 222 l 410 204 l 408 186 l 411 151 l 410 133 l 404 117 l 403 100 l 397 82 l 389 67 l 382 51 l 371 38 l 358 26 l 347 14 l 333 3 l 321 -8 l 294 -31 l 283 -43 l 269 -53 l 260 -61 l 276 -61 l 276 -61 l 293 -65 l 311 -64 l 311 -64 l 329 -68 l 346 -68 l 361 -67 l 376 -65 l 406 -53 l 413 -36 l 429 -4 l 432 14 l 436 33 l 438 51 l 439 69 l 440 86 l 440 103 l 440 121 l 439 138 l 439 154 l 439 172 l 440 189 l 440 206 l 438 222 l 438 240 l 439 257 l 439 275 l 440 292 l 439 308 l 439 326 l 440 343 l 440 360 l 439 378 l 439 396 l 438 414 l 439 432 l 439 450 l 438 468 l 440 503 l 438 521 l 440 539 l 440 557 l 440 575 l 439 592 l 440 610 l 438 628 l 438 628 l 440 644 l 438 661 l 439 679 l 440 696 l 442 713 l 443 729 l 444 746 l 446 764 l 451 779 l 454 796 l 461 813 l 464 829 l 465 829 l 475 844 l 485 858 l 497 871 l 507 886 l 519 899 l 531 911 l 543 924 l 554 936 l 568 949 l 579 961 l 592 974 l 604 986 l 615 999 l 629 1011 l 631 1011 l 632 1010 l 636 1003 q 638 1002 638 1003 q 636 1001 638 1001 l 624 988 l 613 974 l 603 958 l 590 944 l 582 929 l 575 913 l 568 896 l 565 878 l 567 860 l 567 853 l 576 865 l 590 878 l 592 894 l 590 911 l 590 913 l 594 918 l 596 918 l 606 918 q 607 917 607 918 l 611 913 l 611 911 l 613 894 l 613 879 l 625 867 l 639 851 q 639 849 642 851 l 626 833 l 613 821 l 611 803 l 611 785 l 611 767 l 613 747 l 613 729 l 611 711 l 613 699 l 619 708 l 626 724 l 636 739 l 646 753 l 656 768 l 664 783 l 672 799 l 683 813 l 693 826 l 699 843 l 710 857 l 719 872 l 726 888 l 736 903 l 747 917 l 749 917 l 757 919 q 758 921 757 921 q 758 919 758 921 l 774 910 l 789 901 l 804 893 l 821 885 l 836 878 l 853 869 l 869 865 l 888 863 l 906 857 l 922 854 l 940 853 l 958 851 l 976 854 l 993 856 l 1011 858 l 1028 863 l 1046 868 q 1047 867 1047 868 l 1053 863 m 565 792 l 567 775 l 565 757 l 565 742 l 567 725 l 565 707 l 565 692 l 567 675 l 568 657 l 567 639 l 569 621 l 567 603 l 569 586 l 568 568 l 569 550 l 568 532 l 571 515 l 569 499 l 589 504 l 590 521 l 589 539 l 590 557 l 592 575 l 590 592 l 590 610 l 589 628 l 590 646 l 590 664 l 590 699 l 592 717 l 592 735 l 590 753 l 589 769 l 590 788 l 592 806 l 589 822 l 578 836 l 567 847 l 567 842 l 567 825 l 567 808 l 565 792 m 579 244 l 589 256 l 589 272 l 589 289 l 590 304 l 589 321 l 589 338 l 589 351 l 571 351 l 571 338 l 571 318 l 571 300 l 572 285 l 571 267 l 569 250 l 569 235 l 569 233 l 579 244 z "},"G":{"ha":1010,"x_min":49,"x_max":996,"o":"m 469 943 l 486 950 l 501 958 l 518 965 q 521 964 519 965 l 525 954 q 524 951 525 953 l 510 943 l 494 933 l 479 925 l 465 914 l 450 903 l 435 894 l 419 885 l 406 874 l 392 861 l 376 851 l 336 818 l 324 806 l 308 796 l 297 782 l 283 769 l 274 756 l 261 742 l 253 728 l 243 713 l 235 697 l 228 681 l 219 665 l 211 649 l 206 632 l 201 615 l 194 599 l 192 582 l 189 564 l 185 547 l 186 529 l 186 529 l 182 511 l 183 494 l 181 476 l 183 460 l 182 442 l 183 424 l 185 407 l 188 389 l 192 372 l 193 354 l 199 339 l 201 321 l 215 289 l 221 272 l 228 257 l 236 242 l 247 228 l 257 213 l 268 200 l 278 185 l 292 174 l 306 163 l 318 151 l 331 140 l 346 131 l 375 111 l 406 96 l 419 129 l 422 147 l 429 165 l 428 183 l 429 203 l 429 219 l 431 236 l 429 251 l 429 268 l 429 285 l 429 301 l 429 317 l 414 319 l 397 322 l 381 324 l 364 329 l 349 333 l 332 335 l 314 336 l 299 329 l 285 318 l 272 307 l 264 293 q 261 293 261 293 l 251 296 q 250 297 250 296 l 250 299 l 261 314 l 281 343 l 300 372 l 310 388 l 321 401 l 331 415 l 343 429 l 356 440 l 369 450 l 382 460 l 383 460 l 399 464 l 415 465 l 431 464 l 431 481 l 429 497 l 429 515 l 429 532 l 431 547 l 415 549 l 414 549 l 397 554 l 382 556 l 365 560 l 347 561 l 331 564 l 314 565 l 299 558 l 285 549 l 274 536 l 264 521 l 261 521 l 251 525 q 250 526 250 526 l 250 528 l 260 544 l 271 558 l 281 574 l 290 588 l 300 603 l 310 618 l 321 632 l 332 644 l 343 658 l 356 672 l 356 672 l 371 681 l 383 690 l 385 690 l 400 696 l 401 696 l 401 696 l 418 696 l 432 696 l 435 710 l 436 726 l 440 743 l 446 758 l 450 775 l 458 790 l 465 806 l 476 819 l 488 832 l 499 846 l 511 858 l 522 872 l 533 885 l 546 899 l 557 911 l 571 922 l 582 936 l 594 947 l 608 958 l 619 971 q 621 972 621 972 l 622 971 l 626 965 l 626 965 l 640 953 l 653 940 l 667 931 l 682 924 l 699 915 l 731 901 l 747 897 l 764 892 l 782 888 l 799 885 l 817 882 l 833 879 l 851 876 l 869 876 l 886 874 l 904 874 l 922 871 l 939 871 l 957 871 l 975 871 l 993 871 q 994 869 994 871 l 996 865 q 994 864 996 864 l 981 853 l 969 840 l 954 831 l 942 819 l 929 808 l 904 785 l 889 775 l 864 753 l 850 742 l 836 731 l 824 719 l 811 707 l 796 699 l 771 676 l 758 665 l 746 653 l 731 643 l 719 632 l 706 621 l 701 615 l 707 618 l 725 621 l 742 626 l 742 626 l 742 626 l 760 626 l 776 631 l 776 631 l 794 629 l 811 626 l 828 626 l 829 626 l 846 621 l 863 615 l 878 607 l 893 601 q 894 600 894 600 l 907 589 l 919 578 l 932 565 l 942 550 l 950 535 l 958 519 l 965 503 l 971 486 l 976 469 l 981 451 l 983 433 l 985 417 l 986 399 l 986 381 l 988 364 l 988 363 l 983 328 l 981 311 l 981 293 l 976 275 l 971 258 l 967 242 l 963 225 l 956 208 l 951 192 l 944 175 l 935 160 l 929 144 l 924 128 l 924 126 l 914 113 l 907 97 l 896 83 l 886 69 l 876 56 l 840 17 l 828 6 l 815 -7 l 803 -18 l 803 -18 l 788 -26 l 775 -37 l 760 -47 l 744 -56 l 728 -62 l 713 -69 l 699 -78 l 665 -89 l 647 -92 l 631 -96 l 614 -99 l 597 -101 l 579 -104 l 563 -106 l 544 -106 l 528 -104 l 511 -106 l 493 -104 l 476 -103 l 458 -99 l 442 -97 l 424 -94 l 407 -90 l 390 -86 l 374 -81 l 357 -74 l 340 -69 l 324 -64 l 307 -57 l 292 -49 l 276 -42 l 261 -32 l 232 -14 l 218 -1 l 204 8 l 190 19 l 178 31 l 167 44 l 154 57 l 143 71 l 135 86 l 125 100 l 117 115 l 107 131 l 92 163 l 86 178 l 81 194 l 74 211 l 68 228 l 65 244 l 61 261 l 58 279 l 57 297 l 51 331 l 50 349 l 49 367 l 50 401 l 51 419 l 53 436 l 53 454 l 56 471 l 57 489 l 57 489 l 61 507 l 65 524 l 69 540 l 74 558 l 79 575 l 86 592 l 93 608 l 103 624 l 111 639 l 119 654 l 129 669 l 139 683 l 150 697 l 161 711 l 172 725 l 183 739 l 196 751 l 207 765 l 233 789 l 247 800 l 260 813 l 275 824 l 288 836 l 303 846 l 317 856 l 332 865 l 346 875 l 360 886 l 376 894 l 392 903 l 407 913 l 424 919 l 438 929 l 453 936 l 469 943 m 554 285 l 553 267 l 549 250 l 544 233 l 539 218 l 533 201 l 528 185 l 528 185 l 517 172 l 517 171 l 504 158 l 478 135 l 465 121 l 451 110 l 436 99 l 425 89 l 438 83 l 451 76 l 467 74 l 482 67 l 497 61 l 514 57 l 529 56 l 546 51 l 561 47 l 578 46 l 592 44 l 592 60 l 592 78 l 590 96 l 593 113 l 593 131 l 590 147 l 590 149 l 592 165 l 590 182 l 592 200 l 592 218 l 592 235 l 593 253 l 582 263 l 571 271 l 571 274 l 582 288 l 592 301 l 590 318 l 593 336 l 592 353 l 590 371 l 592 388 l 593 404 l 592 422 l 590 439 l 590 457 l 590 474 l 593 492 l 592 508 l 592 543 l 590 560 l 590 578 l 592 594 l 593 613 l 590 629 l 592 647 l 590 663 l 579 674 l 565 686 q 564 687 564 686 q 565 688 564 688 l 578 706 l 592 721 l 592 750 l 593 767 l 593 781 l 574 785 l 557 790 l 557 776 l 557 760 l 557 742 l 557 724 l 557 706 l 557 689 l 558 671 l 558 653 l 560 582 l 560 565 l 560 547 l 558 529 l 560 513 l 560 494 l 561 478 l 561 460 l 560 442 l 564 407 l 561 389 l 563 372 l 560 354 l 558 336 l 557 301 l 554 285 m 626 676 l 613 661 l 613 643 l 613 625 l 613 608 l 613 575 l 624 585 l 636 597 l 651 607 l 664 618 l 679 628 l 692 639 l 706 650 l 718 663 l 732 674 l 744 685 l 758 696 l 772 706 l 786 717 l 800 728 l 811 740 l 822 747 l 808 749 l 790 750 l 772 749 l 754 750 l 736 753 l 700 757 l 682 760 l 664 763 l 647 767 l 629 769 l 614 774 l 615 736 l 615 718 l 626 708 l 639 694 l 639 693 l 626 676 m 615 76 l 614 43 l 629 43 l 647 43 l 665 42 l 700 46 l 751 57 l 767 64 l 783 71 l 800 75 l 815 83 l 832 90 l 847 100 l 861 110 l 874 121 l 888 132 l 910 160 l 911 160 l 918 174 l 922 189 l 924 206 l 926 221 l 925 239 l 924 256 l 921 274 l 919 290 l 917 308 l 913 325 l 908 342 l 900 358 l 894 375 l 888 390 l 878 406 l 865 418 l 843 446 l 829 456 l 800 475 l 783 482 l 768 488 l 751 496 l 735 500 l 717 501 l 700 506 l 682 506 l 664 508 l 629 508 l 613 508 l 613 493 l 613 442 l 614 425 l 613 408 l 614 392 l 614 374 l 613 357 l 613 340 l 613 328 l 621 339 l 633 354 l 644 368 l 660 379 q 660 381 660 381 q 661 379 661 381 l 675 371 l 690 361 l 704 350 l 718 340 l 731 328 l 743 315 l 754 303 l 768 292 q 769 290 769 292 l 769 289 l 758 275 l 747 261 l 736 247 l 725 233 l 715 219 l 703 207 l 692 194 l 679 182 q 676 182 676 179 l 664 193 l 650 203 l 636 213 l 622 224 l 614 232 l 614 201 l 614 183 l 614 165 l 613 147 l 614 131 l 614 113 l 615 76 m 364 233 l 351 246 q 350 247 350 246 q 351 247 350 247 l 361 261 l 372 274 l 383 286 q 386 288 386 288 l 400 278 l 413 267 l 425 254 l 425 253 l 415 239 l 406 225 l 393 213 l 392 213 l 390 213 l 376 222 l 364 233 m 424 772 l 436 761 l 436 758 l 428 744 l 417 732 l 404 721 q 403 719 403 719 l 401 719 l 389 731 l 363 751 l 361 753 l 361 754 l 374 767 l 383 781 l 396 794 l 396 796 q 397 794 397 796 l 411 783 l 424 772 z "},"H":{"ha":981,"x_min":46,"x_max":1018,"o":"m 1017 14 l 1008 1 l 996 -10 l 988 -24 l 978 -35 l 968 -47 l 958 -60 l 950 -74 l 940 -85 l 929 -97 l 921 -108 l 910 -117 l 896 -122 l 882 -125 l 868 -128 l 851 -131 l 833 -128 l 819 -126 l 804 -124 l 790 -121 l 775 -119 l 761 -117 l 746 -114 l 732 -112 l 717 -111 l 703 -112 l 688 -111 l 672 -114 l 658 -115 l 644 -122 l 631 -125 l 618 -133 l 606 -139 l 594 -147 l 581 -154 l 572 -165 l 571 -164 l 571 -165 l 569 -165 l 564 -158 l 563 -156 l 574 -144 l 585 -132 l 593 -118 l 603 -106 l 613 -92 l 622 -81 l 632 -69 l 642 -58 l 650 -47 l 663 -39 l 672 -29 l 685 -22 l 696 -14 l 710 -7 l 722 -1 l 736 1 l 742 1 l 742 1 l 763 6 l 769 19 l 774 35 l 778 49 l 778 65 l 782 81 l 782 96 l 782 111 l 779 126 l 779 142 l 781 157 l 781 172 l 781 188 l 781 203 l 779 218 l 779 233 l 781 249 l 782 264 l 765 264 l 750 264 l 733 264 l 718 264 l 703 263 l 688 264 l 672 264 l 657 264 l 640 264 l 625 264 l 610 264 l 611 250 l 610 236 l 610 221 l 624 210 l 638 199 l 638 196 l 629 183 l 619 172 l 611 161 l 610 146 l 608 131 l 624 119 l 636 107 l 638 104 l 628 94 l 619 82 l 611 71 l 610 50 l 604 44 l 594 44 l 589 50 l 589 63 l 589 76 l 576 88 l 564 97 l 564 100 l 572 110 l 581 121 l 589 131 l 589 149 l 588 167 l 578 176 l 567 186 l 563 171 l 560 156 l 557 140 l 556 124 l 551 110 l 544 93 l 536 79 l 528 65 l 519 53 l 508 44 l 497 35 l 488 24 l 476 15 l 465 7 l 456 -3 l 467 -6 l 481 -6 l 493 -7 l 506 -8 l 521 -7 l 535 -4 l 550 -3 l 563 6 l 575 13 l 585 22 l 588 22 l 594 18 l 594 17 l 593 15 l 585 4 l 574 -6 l 564 -18 l 554 -29 l 543 -40 l 533 -53 l 522 -62 l 513 -74 l 501 -83 l 492 -96 l 481 -107 l 465 -114 l 451 -121 l 435 -125 l 419 -128 l 406 -128 l 392 -128 l 378 -125 l 363 -125 l 347 -124 l 333 -119 l 318 -118 l 303 -118 l 289 -117 l 274 -115 l 258 -111 l 243 -111 l 228 -108 l 211 -110 l 196 -111 l 181 -114 l 165 -117 l 150 -118 l 136 -125 l 121 -129 l 107 -137 l 93 -144 l 79 -153 l 67 -162 l 64 -162 l 58 -157 l 57 -156 l 57 -154 l 68 -146 l 76 -133 l 86 -122 l 96 -111 l 106 -100 l 117 -90 l 126 -79 l 136 -68 l 147 -58 l 158 -49 l 171 -40 l 182 -31 l 194 -24 l 207 -15 l 221 -10 l 233 -3 l 249 0 l 263 3 l 267 4 l 272 18 l 275 35 l 278 50 l 282 64 l 282 81 l 283 96 l 282 110 l 282 125 l 283 140 l 282 154 l 281 169 l 281 185 l 281 200 l 281 215 l 264 217 l 247 219 l 232 222 l 215 228 l 203 229 l 190 232 l 175 231 l 163 226 l 150 219 l 138 211 l 129 199 l 121 188 l 119 188 l 119 186 l 111 193 l 108 192 l 111 193 l 117 207 l 125 219 l 133 232 l 142 244 l 149 257 l 158 268 l 167 281 l 176 292 l 186 304 l 193 317 l 204 326 l 214 338 l 226 344 l 238 354 l 250 358 l 264 361 l 276 363 l 276 376 l 278 390 l 278 404 l 276 419 l 276 433 l 276 447 l 276 461 l 276 475 l 276 490 l 261 492 l 246 493 l 231 496 l 215 501 l 203 504 l 190 506 l 176 504 l 161 501 l 150 494 l 139 485 l 129 474 l 119 463 l 121 461 l 119 461 l 111 468 l 111 467 l 111 468 l 118 481 l 125 494 l 133 506 l 143 518 l 149 532 l 157 544 l 167 556 l 175 568 l 186 579 l 194 590 l 206 600 l 215 611 l 226 619 l 238 628 l 250 632 l 263 636 l 276 638 l 278 654 l 278 672 l 278 690 l 282 707 l 285 722 l 286 738 l 283 740 l 286 757 l 290 771 l 297 785 l 306 799 l 293 794 l 276 796 l 261 793 l 246 797 l 231 799 l 214 799 l 199 803 l 183 804 l 168 810 l 153 811 l 140 814 l 126 817 l 113 817 l 99 811 l 86 804 l 75 796 l 67 785 l 57 772 l 57 772 l 56 772 l 47 778 l 46 778 l 47 779 l 56 792 l 64 803 l 72 815 l 81 828 l 89 840 l 99 851 l 107 864 l 115 876 l 125 888 l 133 900 l 143 910 l 151 922 l 163 931 l 174 940 l 186 946 l 203 947 l 218 947 l 235 946 l 251 943 l 256 943 l 269 939 l 283 936 l 297 933 l 313 931 l 326 928 l 342 929 l 356 925 l 371 926 l 386 928 l 400 931 l 414 936 l 428 940 l 440 947 l 453 954 l 467 961 l 478 971 l 479 971 l 483 967 l 485 967 l 485 965 l 472 956 l 464 942 l 454 931 l 444 918 l 435 906 l 429 892 l 422 878 l 415 864 l 413 849 l 411 836 l 410 822 l 408 810 l 411 794 l 411 779 l 410 764 l 410 749 l 411 733 l 410 719 l 410 704 l 410 689 l 410 674 l 408 658 l 410 644 l 411 629 l 408 614 l 410 599 l 411 585 l 410 569 l 410 554 l 411 539 l 408 525 l 411 510 l 410 494 l 408 479 l 411 464 l 410 450 l 408 435 l 410 419 l 408 404 l 411 390 l 410 375 l 410 360 l 410 344 l 410 331 l 410 315 l 411 300 l 408 285 l 410 271 l 408 256 l 410 240 l 408 225 l 411 211 l 410 196 l 410 181 l 408 164 l 407 149 l 406 133 l 400 119 l 396 103 l 389 90 l 381 76 l 371 64 l 361 54 l 350 44 l 340 35 l 331 25 l 318 17 l 310 7 l 324 7 l 339 8 l 354 7 l 369 4 l 385 4 l 400 3 l 415 0 l 422 0 l 428 14 l 432 26 l 433 40 l 438 54 l 439 68 l 442 82 l 440 96 l 442 111 l 439 125 l 440 140 l 440 156 l 440 171 l 440 185 l 442 200 l 440 215 l 440 231 l 439 244 l 439 260 l 440 275 l 442 289 l 442 304 l 439 319 l 440 333 l 439 349 l 442 364 l 442 378 l 439 393 l 439 408 l 442 422 l 440 438 l 439 453 l 442 467 l 442 482 l 442 497 l 442 511 l 440 526 l 440 542 l 442 556 l 439 571 l 440 586 l 440 600 l 440 615 l 440 631 l 442 644 l 442 660 l 442 675 l 440 689 l 440 704 l 440 718 l 442 733 l 444 747 l 444 763 l 444 778 l 449 792 l 449 807 l 453 821 l 457 835 l 463 849 l 467 863 l 474 876 l 483 886 l 493 897 l 501 910 l 511 919 l 519 932 l 531 942 l 540 953 l 550 963 l 560 975 l 569 985 l 581 994 l 592 1004 l 601 1014 l 613 1024 l 621 1035 l 633 1044 l 635 1046 l 639 1039 l 638 1038 l 629 1025 l 618 1014 l 608 1001 l 599 990 l 590 976 l 583 963 l 578 949 l 572 933 l 569 918 l 569 903 l 568 888 l 567 875 l 568 861 l 568 846 l 568 832 l 568 817 l 568 801 l 567 788 l 568 772 l 567 758 l 568 743 l 569 728 l 569 714 l 568 699 l 569 685 l 578 697 l 589 708 l 590 724 l 589 739 l 589 753 l 588 768 l 589 783 l 589 799 l 589 813 l 588 828 l 589 843 l 589 858 l 589 872 l 588 888 l 590 903 l 588 917 l 589 932 l 588 947 l 594 954 l 604 951 l 610 947 l 611 932 l 608 917 l 610 901 l 610 888 l 610 872 l 610 857 l 610 843 l 608 828 l 611 813 l 608 797 l 610 783 l 610 768 l 608 753 l 610 739 l 611 724 l 610 708 l 624 697 l 636 683 l 638 682 l 629 671 l 618 660 l 610 649 l 611 633 l 611 619 l 624 606 l 638 594 l 636 593 l 628 582 l 619 569 l 608 558 l 608 543 l 611 526 l 608 511 l 610 496 l 611 481 l 610 465 l 608 449 l 608 433 l 610 418 l 625 418 l 642 418 l 657 418 l 672 418 l 688 417 l 703 417 l 718 417 l 735 418 l 750 418 l 765 418 l 781 418 l 781 433 l 781 449 l 779 464 l 781 479 l 781 493 l 781 508 l 782 524 l 781 539 l 782 554 l 779 569 l 781 585 l 782 600 l 779 614 l 782 629 l 781 644 l 782 660 l 781 675 l 782 689 l 781 704 l 781 718 l 782 733 l 783 749 l 785 763 l 783 778 l 789 792 l 790 806 l 793 821 l 796 835 l 801 849 l 807 863 l 814 876 l 822 886 l 831 899 l 842 910 l 850 921 l 860 932 l 871 942 l 879 954 l 890 963 l 901 974 l 910 985 l 921 994 l 931 1004 l 940 1015 l 951 1025 l 963 1035 l 972 1044 l 974 1044 l 979 1038 l 979 1036 l 968 1025 l 958 1013 l 949 1001 l 940 989 l 931 976 l 925 963 l 918 949 l 914 933 l 911 918 l 907 903 l 907 888 l 907 875 l 908 860 l 907 846 l 908 831 l 908 815 l 908 800 l 908 786 l 907 771 l 908 756 l 908 740 l 908 726 l 908 711 l 910 696 l 908 681 l 910 665 l 910 650 l 910 636 l 910 621 l 908 606 l 911 590 l 910 576 l 911 561 l 911 546 l 913 532 l 913 517 l 913 503 l 911 488 l 913 474 l 913 458 l 911 444 l 913 429 l 914 415 l 913 400 l 911 386 l 911 371 l 913 357 l 911 342 l 914 326 l 911 313 l 913 297 l 913 283 l 914 268 l 910 254 l 911 239 l 911 225 l 911 210 l 907 196 l 904 181 l 903 165 l 899 150 l 897 135 l 893 119 l 889 106 l 885 90 l 878 76 l 869 64 l 858 53 l 847 44 l 838 35 l 826 24 l 814 15 l 804 6 l 819 6 l 835 3 l 850 3 l 865 0 l 881 -3 l 896 -6 l 911 -6 l 926 -7 l 942 -10 l 947 -11 l 961 -8 l 975 -4 l 986 3 l 999 10 l 1007 21 l 1011 21 l 1017 17 l 1018 15 l 1017 14 m 579 571 l 571 579 l 569 564 l 571 550 l 572 535 l 571 519 l 569 506 l 571 490 l 572 475 l 571 461 l 572 446 l 571 432 l 572 417 l 572 401 l 574 388 l 571 372 l 574 358 l 574 343 l 574 328 l 571 314 l 572 299 l 572 283 l 571 269 l 572 254 l 571 240 l 571 225 l 571 210 l 568 196 l 576 210 l 588 221 l 589 236 l 589 251 l 588 267 l 589 281 l 588 296 l 588 311 l 590 326 l 588 340 l 589 356 l 589 371 l 589 386 l 588 400 l 588 415 l 589 431 l 590 444 l 588 460 l 589 475 l 588 489 l 589 504 l 588 519 l 588 535 l 588 549 l 588 564 l 579 571 m 569 657 l 569 643 l 569 629 l 568 615 l 571 601 l 569 596 l 578 608 l 589 618 l 588 636 l 588 654 l 578 661 l 569 671 l 569 657 m 239 665 l 226 675 l 214 688 l 201 699 l 200 701 l 213 713 l 222 726 l 232 740 l 236 740 l 249 729 l 261 718 l 275 707 l 274 706 l 263 693 l 253 679 l 242 665 l 240 665 l 239 665 m 239 381 l 225 392 l 214 403 l 200 414 l 201 417 l 211 429 l 222 443 l 232 457 l 235 454 l 249 444 l 261 433 l 275 424 l 275 421 l 265 407 l 253 394 l 240 383 l 240 381 l 239 381 m 240 100 l 225 110 l 214 122 l 200 132 l 200 135 l 213 147 l 221 161 l 232 175 l 236 175 l 249 163 l 261 153 l 274 140 l 274 140 l 264 126 l 253 113 l 242 100 l 240 99 l 240 100 z "},"I":{"ha":669,"x_min":43,"x_max":681,"o":"m 210 676 l 197 688 q 197 689 196 689 l 207 703 l 229 729 l 232 729 l 246 718 l 258 708 l 271 696 q 272 695 272 696 q 271 694 272 694 l 261 681 l 239 654 l 238 653 q 236 654 236 653 l 222 664 l 210 676 m 210 115 l 197 126 l 197 129 l 208 142 l 218 156 l 229 169 l 232 169 l 246 158 l 258 147 l 271 136 q 271 133 274 133 l 260 121 l 250 107 l 239 94 l 238 93 l 236 94 l 224 106 l 210 115 m 44 761 l 43 763 l 43 764 l 54 778 l 63 793 l 74 808 l 85 821 l 93 836 l 104 851 l 115 865 l 125 879 l 135 893 l 149 906 l 161 917 l 175 928 l 176 929 l 193 931 l 211 933 l 211 933 l 229 931 l 246 928 l 263 924 l 296 918 l 313 913 l 329 913 l 346 910 l 363 910 l 379 913 l 396 917 l 413 922 l 428 926 l 442 936 l 458 943 l 471 956 l 472 956 l 476 951 q 478 950 478 950 l 478 949 l 465 936 l 454 922 l 443 910 l 433 894 l 425 881 l 415 865 l 404 833 l 403 814 l 404 794 l 406 776 l 406 758 l 404 740 l 404 722 l 403 704 l 404 686 l 403 668 l 403 651 l 404 633 l 403 597 l 406 581 l 404 561 l 404 544 l 403 526 l 406 508 l 404 490 l 404 456 l 404 438 l 406 419 l 406 401 l 404 383 l 403 365 l 406 347 l 404 329 l 403 311 l 404 276 l 406 258 l 406 222 l 406 204 l 404 186 l 404 168 l 404 151 l 400 135 l 396 117 l 390 101 l 383 85 l 375 69 l 365 56 l 353 42 l 339 31 l 325 19 l 303 -1 l 315 -1 l 332 0 l 350 0 l 367 0 l 401 0 l 417 -1 l 422 15 l 428 33 l 432 51 l 435 69 l 433 86 l 432 104 l 432 122 l 435 139 l 432 174 l 435 192 l 432 208 l 432 244 l 433 261 l 433 314 l 435 332 l 433 349 l 433 385 l 435 401 l 433 419 l 433 436 l 432 454 l 435 471 l 432 489 l 433 507 l 432 524 l 435 542 l 433 558 l 433 576 l 433 593 l 432 611 l 433 628 l 433 646 l 435 663 l 433 679 l 435 697 l 433 714 l 433 731 l 438 747 l 436 764 q 438 765 436 765 l 440 782 l 446 797 l 447 814 l 447 815 l 454 831 l 458 847 l 460 847 l 468 863 l 492 889 l 513 917 l 525 929 l 536 942 l 563 965 l 574 979 l 586 992 l 599 1004 l 610 1017 l 624 1028 q 625 1029 624 1029 l 626 1028 l 631 1021 q 629 1019 631 1019 l 618 1006 l 607 992 l 596 978 l 585 963 l 576 947 l 568 931 l 563 914 l 563 896 l 560 876 l 560 858 l 560 843 l 558 825 l 561 810 l 561 808 l 558 792 l 560 776 l 560 758 l 558 742 l 561 726 l 563 710 l 560 693 l 561 676 l 561 660 l 561 643 l 563 626 l 561 610 l 563 597 l 572 608 l 585 625 l 586 642 l 585 658 l 586 676 l 585 693 l 585 710 l 585 728 l 583 744 l 585 763 l 583 814 l 585 831 l 586 847 l 586 865 l 583 882 l 583 882 l 586 900 l 586 917 l 586 933 l 586 935 l 589 938 q 590 939 590 938 l 600 940 q 601 939 601 940 l 606 935 l 606 933 l 606 915 l 607 899 l 606 881 l 607 864 l 606 846 l 606 828 l 606 776 l 607 758 l 607 742 l 607 724 l 607 707 l 607 689 l 606 671 l 606 654 l 606 636 l 607 621 l 619 611 l 632 599 q 632 596 635 596 l 619 579 l 606 565 l 606 547 l 607 528 l 606 508 l 606 490 l 618 481 l 631 469 q 632 467 632 467 l 606 436 l 607 418 l 607 400 l 606 382 l 607 365 l 632 343 l 632 340 l 619 325 l 608 310 l 607 293 l 606 276 l 606 258 l 606 242 l 607 225 l 607 207 l 607 190 l 606 174 l 608 156 l 606 139 l 608 122 l 607 88 l 606 71 l 608 53 l 606 36 l 606 19 l 606 1 l 606 -14 l 624 -10 l 642 -6 l 658 3 l 672 14 l 674 14 l 681 10 l 681 8 q 681 7 681 7 l 669 -4 l 660 -18 l 649 -31 l 638 -43 l 625 -54 l 614 -67 l 604 -79 l 604 -81 l 590 -90 l 581 -104 l 581 -104 l 567 -114 l 567 -115 l 550 -121 l 535 -128 l 533 -128 l 517 -129 l 500 -133 l 483 -133 l 467 -132 l 449 -133 l 431 -131 l 413 -129 l 394 -128 l 376 -128 l 358 -126 l 340 -126 l 322 -125 l 304 -124 l 286 -122 l 269 -121 l 251 -118 l 235 -118 l 218 -118 l 201 -117 l 185 -119 l 169 -122 l 153 -126 l 136 -129 l 121 -135 l 107 -143 l 92 -151 l 78 -160 l 64 -169 l 63 -169 l 61 -169 l 54 -164 l 54 -161 l 65 -147 l 78 -136 l 88 -122 l 88 -121 l 101 -110 l 114 -97 l 124 -83 l 138 -71 l 151 -60 l 164 -47 l 164 -46 l 179 -37 l 193 -26 l 210 -18 l 226 -12 l 243 -6 l 260 -3 l 267 14 l 271 32 l 275 50 l 276 104 l 275 121 l 276 138 l 275 154 l 276 172 l 274 189 l 275 204 l 258 207 l 240 210 l 222 213 l 204 217 l 185 219 l 168 221 l 153 215 l 139 204 l 128 192 l 118 176 l 117 176 l 115 176 l 108 182 q 107 185 107 183 l 115 200 l 135 229 l 143 244 l 154 258 l 175 288 l 210 326 l 210 328 l 225 336 l 239 347 l 239 347 l 256 351 l 257 351 l 272 351 l 272 368 l 272 386 l 272 406 l 271 413 l 261 399 l 250 386 l 239 374 l 238 374 l 236 374 l 224 385 l 210 393 l 197 406 l 197 408 l 207 422 l 218 435 l 231 446 q 232 446 232 447 l 260 428 l 271 415 l 269 424 l 272 442 l 271 460 l 271 478 l 254 479 l 238 483 l 219 485 l 203 489 l 186 492 l 169 490 l 153 485 l 139 475 l 126 464 l 118 449 l 117 447 q 115 449 115 447 l 107 454 q 106 456 106 456 l 115 471 l 125 486 l 133 501 l 156 529 l 165 544 l 174 560 l 186 572 l 199 585 l 211 597 l 224 608 l 239 618 l 239 618 l 256 622 l 271 624 l 271 640 l 274 657 l 274 674 l 275 690 l 278 707 l 278 722 l 278 724 l 281 726 l 282 743 l 286 760 l 294 776 l 294 776 l 301 782 l 288 779 l 288 779 l 268 781 l 250 778 l 250 778 l 232 782 l 214 783 l 194 788 l 178 792 l 158 793 l 140 797 l 124 800 l 106 799 l 90 794 l 76 783 l 64 772 l 54 758 l 53 758 l 44 761 m 558 169 l 558 168 l 554 151 l 553 135 l 547 118 l 542 103 l 538 86 l 531 71 l 521 56 l 521 56 l 510 42 l 494 31 l 482 18 l 467 8 l 457 -3 l 471 -3 l 488 -4 l 504 -7 l 536 -7 l 569 -11 l 586 -12 l 583 3 l 585 19 l 583 38 l 585 54 l 583 71 l 586 106 l 586 124 l 583 140 l 586 175 l 586 192 l 583 225 l 585 243 l 583 260 l 585 278 l 586 294 l 585 311 l 574 319 l 565 326 l 567 313 l 564 294 l 565 276 l 565 258 l 564 240 l 565 222 l 564 204 l 558 186 l 558 169 m 585 531 l 585 549 l 585 565 l 572 576 l 563 585 l 564 571 l 564 553 l 565 536 l 565 518 l 563 501 l 565 483 l 565 483 l 565 472 l 572 482 l 586 496 l 586 513 l 585 531 m 564 440 l 567 424 l 567 424 l 565 406 l 565 389 l 564 372 l 564 356 l 565 346 l 574 356 l 585 369 l 585 386 l 585 403 l 585 419 l 585 436 l 572 444 l 565 453 l 564 440 z "},"J":{"ha":658,"x_min":-211,"x_max":642,"o":"m 221 704 l 208 715 q 208 717 207 717 l 217 731 l 228 744 l 240 756 q 243 756 242 757 l 269 736 l 282 724 q 283 723 283 724 q 282 722 283 722 l 272 707 l 260 696 l 249 683 l 247 683 l 247 683 l 235 693 l 221 704 m 214 422 l 203 433 q 203 436 203 436 l 211 449 l 222 463 l 233 475 q 236 475 236 478 l 250 464 l 263 454 l 275 443 q 275 440 278 440 l 265 428 l 243 403 l 242 403 l 240 403 l 228 413 l 214 422 m 247 121 q 246 122 246 121 l 219 142 l 207 154 q 207 157 206 156 l 217 169 l 228 183 l 239 196 q 242 196 242 199 l 256 186 l 268 174 l 281 164 l 281 161 l 272 147 l 260 135 l 249 122 q 247 121 247 121 m -144 -346 l -160 -353 l -174 -361 l -189 -369 l -201 -382 l -203 -382 l -204 -381 l -210 -374 q -211 -373 -211 -374 q -210 -372 -211 -372 l -199 -360 l -186 -347 l -175 -333 l -165 -319 l -142 -293 l -126 -282 l -114 -269 l -99 -260 l -85 -247 l -71 -237 l -53 -229 l -37 -221 l -37 -221 l -19 -218 l -1 -214 l 15 -214 l 32 -211 l 50 -212 l 67 -210 l 67 -210 l 85 -212 l 101 -210 l 101 -210 l 119 -212 l 136 -211 l 153 -212 l 171 -210 l 171 -210 l 188 -214 l 204 -212 l 222 -214 l 239 -217 l 257 -218 l 275 -218 l 294 -222 l 313 -221 l 313 -221 l 331 -225 l 350 -224 l 369 -219 l 386 -212 l 401 -203 l 410 -187 l 421 -174 l 426 -158 l 432 -142 l 435 -125 l 439 -108 l 442 -92 l 440 -75 l 442 -57 l 439 -40 l 439 -40 l 442 -22 l 442 -6 l 442 13 l 440 29 l 440 47 l 440 64 l 442 82 l 442 135 l 439 151 l 440 169 l 440 186 l 439 204 l 439 221 l 440 239 l 440 257 l 439 274 l 440 292 l 440 308 l 442 326 l 442 343 l 439 361 l 440 378 l 440 396 l 439 413 l 440 431 l 442 449 l 440 465 l 440 482 l 442 500 l 440 517 l 440 535 l 439 551 l 440 569 l 440 586 l 442 604 l 440 621 l 439 639 l 439 656 l 440 674 l 440 690 l 442 707 l 440 725 l 442 742 l 443 758 l 444 775 l 444 792 l 449 808 l 453 825 l 457 842 l 463 858 l 468 874 l 476 889 l 488 903 l 508 931 l 521 944 l 532 957 l 544 969 l 557 982 l 569 994 l 581 1007 l 594 1018 l 604 1032 l 604 1032 l 618 1043 l 631 1056 q 632 1057 631 1057 l 633 1056 l 639 1049 q 639 1046 642 1049 l 625 1033 l 613 1019 l 601 1006 l 592 990 l 582 975 l 575 958 l 572 940 l 569 922 l 567 904 l 567 888 l 567 869 l 568 854 l 568 853 l 578 865 l 592 882 l 592 897 l 592 914 l 593 929 l 590 944 l 590 961 l 590 963 l 596 967 l 597 967 l 607 965 l 608 965 l 611 963 q 613 961 613 963 l 613 944 l 614 928 l 614 911 l 613 878 l 625 867 l 639 856 q 640 855 640 856 q 639 854 640 854 l 626 836 l 613 822 l 613 804 l 614 786 l 614 767 l 614 749 l 625 738 l 639 726 q 640 725 640 726 l 639 724 l 626 707 l 613 693 l 613 676 l 614 658 l 613 640 l 613 624 l 625 613 l 638 601 q 639 599 639 599 l 613 567 l 614 550 l 614 533 l 611 515 l 614 499 l 613 481 l 613 446 l 613 428 l 613 411 l 614 393 l 614 376 l 613 358 l 614 324 l 614 307 l 613 289 l 613 272 l 613 254 l 614 238 l 613 219 l 613 203 l 611 168 l 613 150 l 613 133 l 614 115 l 613 81 l 614 64 l 614 46 l 613 29 l 613 11 l 613 10 l 608 7 l 607 7 l 597 4 q 596 6 596 4 l 593 11 l 592 11 l 590 47 l 590 64 l 592 82 l 592 99 l 590 117 l 590 135 l 592 151 l 590 169 l 590 186 l 590 204 l 592 222 l 592 239 l 592 256 l 592 274 l 592 292 l 592 308 l 592 343 l 592 361 l 590 378 l 592 396 l 592 413 l 590 431 l 590 447 l 592 465 l 592 482 l 592 500 l 590 517 l 590 535 l 590 553 l 592 569 l 579 579 l 569 588 l 569 574 l 569 557 l 571 540 l 568 522 l 571 506 l 569 488 l 569 469 l 569 453 l 572 436 l 569 418 l 572 401 l 572 400 l 571 383 l 571 367 l 572 349 l 572 332 l 571 314 l 571 297 l 572 281 l 572 263 l 572 246 l 572 228 l 572 211 l 574 193 l 572 174 l 574 157 l 574 140 l 574 124 l 571 107 l 569 57 l 569 40 l 568 25 l 564 7 l 560 -26 l 556 -43 l 553 -60 l 544 -76 l 538 -92 l 529 -107 l 529 -107 l 515 -118 l 504 -131 l 490 -142 l 478 -154 l 464 -165 l 450 -175 l 436 -186 l 424 -199 l 413 -210 l 399 -222 l 388 -236 l 375 -249 l 365 -262 l 364 -262 l 351 -275 l 340 -289 l 328 -301 l 314 -312 l 303 -325 l 301 -325 l 286 -332 l 269 -339 l 269 -339 l 253 -342 l 236 -343 l 201 -343 l 183 -343 l 165 -342 l 147 -342 l 129 -342 l 111 -339 l 93 -337 l 75 -336 l 57 -336 l 39 -335 l 22 -335 l 4 -331 l -12 -331 l -29 -329 l -46 -329 l -62 -329 l -79 -331 l -96 -333 l -112 -336 l -128 -342 l -144 -346 m 571 613 l 569 600 l 579 611 l 592 626 l 592 643 l 592 661 l 590 678 l 592 694 l 579 706 l 568 715 l 567 700 l 568 683 l 569 665 l 568 649 l 569 631 l 571 613 m 590 789 l 590 807 l 590 824 l 578 835 l 567 843 l 567 819 l 568 804 l 568 786 l 568 771 l 567 753 l 568 738 l 568 725 l 578 736 l 590 753 l 590 769 l 590 789 m 133 906 l 143 921 l 143 921 l 156 933 l 167 946 l 168 946 l 183 954 l 200 960 l 200 960 l 218 960 l 236 960 l 253 956 l 269 951 l 286 947 l 303 946 l 319 942 l 336 940 l 353 940 l 371 939 l 388 939 l 403 943 l 419 950 l 435 956 l 464 972 l 478 982 l 479 982 l 485 979 l 485 978 l 485 976 l 474 964 l 461 950 l 453 936 l 440 922 l 433 907 l 424 893 l 415 878 l 414 861 l 411 842 l 413 822 l 411 786 l 413 750 l 411 732 l 411 714 l 411 696 l 411 679 l 411 661 l 410 643 l 411 625 l 410 607 l 410 590 l 411 572 l 413 554 l 411 536 l 413 519 l 413 483 l 410 465 l 413 447 l 411 429 l 411 393 l 413 375 l 413 357 l 411 339 l 411 322 l 413 304 l 411 286 l 413 250 l 411 232 l 411 196 l 408 179 l 408 163 l 408 161 l 397 129 l 393 113 l 393 111 l 383 97 l 372 83 l 361 71 l 347 60 l 336 47 l 322 36 l 310 25 l 294 15 l 283 3 l 283 3 l 268 -7 l 256 -18 l 244 -31 l 231 -42 l 229 -42 l 228 -40 l 225 -36 q 224 -35 224 -36 l 225 -33 l 238 -22 l 247 -10 l 257 4 l 265 18 l 276 50 l 279 65 l 283 82 l 285 99 l 285 115 l 283 132 l 283 149 l 283 165 l 283 182 l 283 200 l 282 217 l 282 232 l 265 235 l 247 239 l 229 240 l 211 243 l 193 247 l 176 247 l 160 243 l 146 232 l 135 219 l 125 204 l 124 204 q 122 204 122 204 l 114 210 q 114 213 113 211 l 124 226 l 132 242 l 142 257 l 151 271 l 171 301 l 182 315 l 194 328 l 217 356 l 217 356 l 232 364 l 246 374 l 264 378 l 279 379 l 278 414 l 278 432 l 278 451 l 278 469 l 276 488 l 278 504 l 261 507 l 244 510 l 226 514 l 210 517 l 193 521 l 175 519 l 160 515 l 147 503 l 136 490 l 125 476 l 122 476 l 114 482 l 114 485 l 122 499 l 131 514 l 142 529 l 150 544 l 163 558 l 172 572 l 182 586 l 193 601 l 203 615 l 217 626 l 232 635 l 246 643 q 247 644 247 644 l 263 649 l 278 650 l 278 667 l 281 686 l 281 701 l 283 718 l 285 735 l 288 754 l 289 771 l 293 788 l 293 789 l 303 803 l 310 813 l 294 808 l 276 808 l 257 808 l 239 810 l 221 811 l 149 825 l 131 829 l 114 828 l 99 821 l 83 811 l 71 800 l 63 785 q 60 785 60 785 l 51 789 l 50 790 l 50 792 l 60 807 l 69 821 l 81 835 l 92 849 l 103 864 l 113 878 l 121 893 l 133 906 z "},"K":{"ha":1015,"x_min":50,"x_max":1022,"o":"m 97 -153 l 83 -161 l 69 -171 l 69 -171 l 68 -171 l 61 -165 q 60 -164 60 -165 l 60 -162 l 72 -150 l 83 -137 l 107 -112 l 118 -100 l 131 -86 l 144 -74 l 156 -61 l 169 -49 l 185 -39 l 200 -31 l 232 -14 l 249 -7 l 265 -4 l 278 29 l 279 47 l 282 65 l 282 83 l 283 101 l 282 118 l 282 135 l 279 151 l 281 168 l 279 200 l 263 201 l 246 208 l 228 208 l 208 213 l 190 217 l 174 218 l 158 211 l 144 201 l 133 189 l 124 174 q 122 172 124 172 q 121 174 121 172 l 113 179 l 113 181 l 121 196 l 131 211 l 140 225 l 150 240 l 160 254 l 171 268 l 181 283 l 192 297 l 204 310 l 217 322 l 229 333 l 229 333 l 246 340 l 261 344 l 278 346 l 276 364 l 278 382 l 276 400 l 276 419 l 278 438 l 276 456 l 276 472 l 260 474 l 243 478 l 208 485 l 192 489 l 175 486 l 158 481 l 144 472 l 133 460 l 124 444 l 122 444 l 121 444 l 114 450 q 114 453 111 450 l 122 467 l 131 481 l 140 496 l 151 511 l 161 525 l 171 539 l 181 554 l 190 568 l 203 582 l 215 593 l 244 613 l 244 613 l 261 618 l 275 619 l 276 635 l 276 653 l 285 717 l 283 719 l 283 721 l 286 738 l 292 754 l 300 769 l 300 771 l 307 778 l 293 774 l 293 772 l 274 772 l 256 774 l 238 776 l 219 778 l 201 782 l 183 785 l 165 788 l 147 793 l 129 796 l 113 794 l 97 788 l 83 778 l 61 753 q 58 751 60 751 l 51 756 l 50 757 l 50 758 l 60 772 l 71 786 l 81 801 l 90 815 l 101 829 l 110 844 l 121 858 l 131 874 l 142 886 l 153 900 l 165 913 l 182 921 l 199 926 l 217 926 l 235 925 l 251 922 l 268 918 l 285 914 l 301 910 l 318 908 l 351 904 l 368 904 l 385 906 l 400 911 l 417 915 l 432 921 l 447 929 l 475 949 l 476 949 l 482 944 l 483 943 q 482 942 483 942 l 469 929 l 458 917 l 449 903 l 439 888 l 431 874 l 419 860 l 411 826 l 408 807 l 408 788 l 410 771 l 410 753 l 408 735 l 410 717 l 408 699 l 410 682 l 407 663 l 408 646 l 410 628 l 408 610 l 410 593 l 408 575 l 408 557 l 410 539 l 408 521 l 410 504 l 410 486 l 410 468 l 408 450 l 410 433 l 410 415 l 410 397 l 410 361 l 410 343 l 410 326 l 408 308 l 411 290 l 408 272 l 410 254 l 410 236 l 408 218 l 408 200 l 408 183 l 408 165 l 408 149 l 408 147 l 404 131 l 401 114 l 397 97 l 390 81 l 381 67 l 369 54 l 357 42 l 344 29 l 333 17 l 319 4 l 310 -3 l 340 -1 l 360 -3 l 378 -6 l 396 -6 l 414 -7 l 419 -8 l 425 4 l 429 21 l 435 36 l 438 51 l 438 68 l 439 85 l 439 101 l 438 118 l 438 136 l 439 154 l 438 171 l 438 206 l 438 224 l 439 240 l 439 258 l 436 275 l 438 293 l 439 311 l 439 328 l 436 363 l 436 381 l 438 397 l 439 415 l 439 432 l 439 450 l 438 467 l 439 485 l 439 501 l 438 519 l 439 536 l 436 554 l 438 571 l 439 589 l 439 606 l 438 640 l 439 657 l 438 692 l 439 708 l 439 725 l 442 742 l 442 758 l 442 760 l 447 775 l 449 792 l 453 808 l 458 825 l 465 840 l 474 856 l 485 869 l 494 883 l 506 897 l 518 910 l 529 922 l 540 936 l 554 947 l 567 960 l 578 972 l 601 997 l 615 1008 l 626 1021 l 628 1022 q 629 1021 629 1022 l 635 1014 l 635 1013 l 622 999 l 611 985 l 600 971 l 589 956 l 581 940 l 574 924 l 568 907 l 564 871 l 565 853 l 565 849 l 574 860 l 586 875 l 586 892 l 585 907 l 588 924 l 588 925 l 592 929 l 593 929 l 603 928 l 603 928 l 608 925 q 608 924 610 924 l 607 907 l 607 890 l 607 874 l 622 864 l 635 851 l 635 849 l 622 832 l 608 817 l 608 799 l 608 781 l 608 763 l 607 746 l 608 728 l 607 675 l 621 664 l 633 651 l 633 649 l 622 632 l 607 617 l 610 603 l 608 588 l 608 574 l 633 550 l 633 549 l 622 531 l 610 515 l 610 499 l 607 481 l 610 444 l 608 428 l 607 410 l 607 392 l 608 375 l 608 363 l 615 372 l 626 386 l 635 400 l 656 428 l 667 442 l 675 457 l 686 471 l 694 485 l 704 499 l 714 514 l 725 528 l 735 542 l 744 556 l 754 569 l 765 583 l 775 597 l 785 611 l 793 625 l 806 639 l 813 654 l 824 668 l 833 682 l 843 696 l 854 710 l 865 722 l 871 733 l 860 731 l 858 731 l 858 731 l 842 731 l 807 733 l 807 733 l 792 740 l 775 744 q 774 746 775 746 l 760 754 l 743 760 l 726 758 l 710 753 l 697 743 l 694 743 l 685 749 q 685 751 685 751 l 693 765 l 703 779 l 722 808 l 732 822 l 743 836 l 754 849 l 761 864 l 772 878 l 782 890 l 783 890 l 797 900 l 811 907 l 826 911 l 843 913 l 860 913 l 860 913 l 875 907 l 892 899 l 928 890 l 944 886 l 963 889 l 981 892 l 996 900 l 1008 914 l 1011 914 l 1021 908 q 1022 907 1022 908 l 1022 906 l 1011 892 l 1001 878 l 993 861 l 982 847 l 963 818 l 953 804 l 942 790 l 922 761 l 910 747 l 901 732 l 890 718 l 871 689 l 860 675 l 851 660 l 842 646 l 832 631 l 821 618 l 811 603 l 800 589 l 790 575 l 779 561 l 769 546 l 761 531 l 751 517 l 739 503 l 731 488 l 721 476 l 736 475 l 753 471 l 754 471 l 768 461 l 783 451 l 797 442 l 799 440 l 808 426 l 819 413 l 829 397 l 847 367 l 854 351 l 863 335 l 867 318 l 872 301 l 878 285 l 882 267 l 888 251 l 893 233 l 899 217 l 901 200 l 904 182 l 911 167 l 914 149 l 917 132 l 924 117 l 926 100 l 932 86 l 935 69 l 944 57 l 954 43 l 964 29 l 979 22 l 994 25 l 1006 38 l 1007 38 l 1007 38 l 1008 38 l 1017 25 q 1017 22 1018 24 l 1008 8 l 997 -6 l 988 -21 l 975 -35 l 963 -47 l 951 -61 l 951 -62 l 938 -74 l 926 -87 l 914 -100 l 903 -114 l 876 -139 l 875 -139 l 860 -129 l 846 -117 l 833 -103 l 822 -89 l 810 -75 l 800 -58 l 792 -43 l 783 -26 l 776 -8 l 776 -8 l 775 8 l 772 25 l 768 42 l 761 75 l 756 92 l 751 108 l 742 140 l 738 157 l 731 172 l 726 189 l 719 204 l 711 219 l 706 236 l 696 250 l 689 265 l 681 279 l 672 294 l 660 307 l 646 317 l 633 326 l 617 328 l 610 315 l 608 299 l 608 281 l 608 263 l 608 244 l 608 226 l 608 208 l 608 190 l 610 174 l 608 156 l 610 139 l 621 128 l 632 115 q 632 114 633 114 l 622 97 l 622 96 l 607 82 l 607 67 l 607 35 l 607 33 l 604 31 l 603 29 l 593 29 l 592 29 l 592 29 l 588 33 q 586 35 586 35 l 588 51 l 586 68 l 585 83 l 574 94 l 560 107 q 558 108 558 107 l 560 110 l 574 125 l 588 142 l 586 158 l 588 176 l 585 193 l 586 210 l 588 244 l 588 263 l 588 279 l 586 296 l 588 314 l 586 331 l 588 349 l 586 365 l 588 383 l 586 400 l 586 417 l 585 433 l 586 451 l 586 468 l 588 486 l 586 503 l 585 519 l 575 528 l 568 535 l 568 522 l 567 506 l 568 438 l 571 421 l 571 419 l 568 403 l 568 386 l 568 369 l 571 336 l 568 318 l 569 301 l 569 285 l 568 267 l 569 250 l 568 233 l 567 217 l 567 200 l 563 183 l 561 165 l 558 149 l 557 132 l 553 115 l 547 99 l 543 83 l 533 68 l 514 40 l 501 28 l 489 17 l 475 7 l 463 -6 l 453 -12 l 503 -17 l 521 -18 l 538 -15 l 553 -7 l 568 1 l 581 11 q 583 11 583 14 l 589 7 q 589 4 592 7 l 581 -8 l 568 -19 l 557 -32 l 547 -44 l 533 -57 l 524 -69 l 511 -81 l 501 -93 l 489 -106 l 476 -115 l 461 -124 l 444 -131 l 428 -135 l 411 -137 l 393 -136 l 376 -135 l 360 -132 l 342 -132 l 308 -128 l 290 -124 l 274 -122 l 274 -122 l 257 -119 l 240 -119 l 224 -119 l 207 -121 l 190 -122 l 174 -122 l 158 -126 l 142 -131 l 126 -136 l 113 -144 l 97 -153 m 564 783 l 564 767 l 564 749 l 565 732 l 565 697 l 567 681 l 565 663 l 567 650 l 575 661 l 585 676 l 586 693 l 588 713 l 586 729 l 586 749 l 586 767 l 585 785 l 586 803 l 588 821 l 574 831 l 564 839 l 564 836 l 564 818 l 564 801 l 564 783 m 567 611 l 567 594 l 567 563 l 567 551 l 574 563 l 586 575 l 586 590 l 588 606 l 588 621 l 575 631 l 565 639 l 565 626 l 567 611 m 208 667 l 197 678 q 197 681 196 679 l 206 694 l 218 706 l 228 719 q 231 719 231 722 l 244 710 l 257 699 l 268 688 q 269 685 269 686 l 261 671 l 249 658 l 238 646 l 236 644 l 235 646 l 222 657 l 208 667 m 210 388 l 194 397 l 194 399 l 194 400 l 207 413 l 218 425 l 228 440 q 229 442 229 440 q 231 440 231 440 l 244 429 l 269 407 l 269 404 l 261 390 l 249 378 l 238 367 q 236 365 236 365 q 235 367 235 365 l 210 388 m 208 107 l 197 119 q 197 122 196 121 l 206 135 l 228 161 l 231 161 l 244 151 l 258 142 l 269 128 l 269 126 l 260 113 l 247 100 l 238 88 l 236 86 q 235 88 235 86 l 221 97 l 208 107 z "},"L":{"ha":1069,"x_min":44,"x_max":1083,"o":"m 226 653 l 214 664 q 213 667 213 664 l 224 681 l 236 692 l 246 706 l 247 706 l 249 706 l 261 694 l 275 685 l 288 674 l 288 671 l 276 658 l 267 644 l 256 632 l 254 631 l 253 631 l 240 643 l 226 653 m 226 372 l 214 383 l 213 385 q 214 386 213 386 l 225 399 l 235 413 l 246 426 l 249 426 l 263 417 l 275 406 l 286 393 l 286 390 l 278 376 l 268 364 l 256 351 l 254 350 q 253 351 253 350 l 226 372 m 228 96 l 214 106 q 213 107 213 106 l 213 108 l 224 121 l 246 146 q 249 146 249 149 l 263 138 l 275 126 l 288 115 q 288 113 288 113 l 278 99 l 268 85 l 256 72 l 254 72 l 253 72 l 240 85 l 228 96 m 1083 106 l 1083 104 l 1083 103 l 1074 88 l 1063 75 l 1053 61 l 1043 46 l 1035 32 l 1025 17 l 1006 -11 l 994 -25 l 986 -39 l 976 -53 l 967 -67 l 954 -79 l 943 -92 l 929 -101 l 914 -110 l 899 -119 l 885 -128 l 868 -133 l 853 -140 l 836 -144 l 819 -149 l 804 -154 l 803 -154 l 786 -154 l 769 -158 l 753 -160 l 735 -158 l 718 -158 l 701 -158 l 683 -158 l 665 -158 l 649 -156 l 631 -154 l 613 -153 l 596 -153 l 578 -151 l 560 -151 l 543 -149 l 525 -149 l 507 -144 l 490 -146 l 472 -144 l 456 -143 l 438 -142 l 419 -142 l 403 -139 l 385 -137 l 368 -136 l 350 -136 l 332 -136 l 315 -133 l 297 -132 l 279 -129 l 263 -129 l 228 -126 l 210 -126 l 193 -126 l 175 -128 l 158 -132 l 140 -133 l 125 -140 l 108 -146 l 92 -153 l 78 -162 l 65 -174 l 54 -189 l 53 -189 l 53 -189 l 51 -189 l 44 -182 l 44 -179 l 75 -135 l 88 -122 l 97 -108 l 108 -93 l 122 -82 l 147 -56 l 161 -44 l 174 -32 l 174 -32 l 189 -22 l 203 -12 q 204 -11 204 -12 l 221 -6 l 238 0 l 256 4 l 272 7 l 293 6 l 296 21 l 299 38 l 301 54 l 301 71 l 301 86 l 299 103 l 300 121 l 299 138 l 300 154 l 297 171 l 297 186 l 263 192 l 244 197 l 226 199 l 210 204 l 192 204 l 176 199 l 163 188 l 142 161 q 139 161 140 160 l 132 165 q 131 167 131 165 l 131 168 l 140 182 l 150 196 l 167 226 l 178 242 l 189 254 l 199 268 l 210 282 l 219 297 l 219 297 l 233 310 l 249 318 l 263 328 l 279 333 l 279 333 l 279 333 l 296 333 l 294 350 l 293 368 l 296 388 l 294 406 l 294 424 l 293 442 l 294 458 l 278 461 l 260 464 l 243 468 l 226 469 l 208 472 l 192 472 l 176 468 l 163 458 l 150 446 l 142 431 l 140 429 l 139 429 l 131 436 q 129 437 129 436 q 131 438 129 438 l 138 453 l 147 468 l 157 482 l 178 511 l 189 525 l 197 540 l 197 540 l 210 553 l 219 568 l 219 568 l 235 579 l 249 589 l 261 599 l 261 600 l 278 604 l 279 604 l 294 604 l 293 621 l 294 639 l 297 654 l 300 671 l 300 688 l 301 703 l 301 704 l 303 707 l 304 724 l 310 740 l 317 757 l 317 757 l 325 764 l 310 761 l 292 760 l 274 758 l 236 764 l 218 767 l 200 771 l 182 774 l 164 778 l 147 781 l 129 779 l 114 775 l 100 765 l 88 753 l 79 739 q 76 738 79 738 l 67 742 l 67 743 q 67 744 67 744 l 78 758 l 86 774 l 99 788 l 108 801 l 118 817 l 128 831 l 140 843 l 149 860 l 158 874 l 172 886 l 183 899 l 183 899 l 200 906 l 217 911 l 235 913 l 251 911 l 269 908 l 286 903 l 319 897 l 336 893 l 353 892 l 369 892 l 386 892 l 418 897 l 435 900 l 450 906 l 464 915 l 479 925 l 493 935 q 494 935 494 935 l 500 931 l 500 928 l 489 915 l 478 901 l 465 889 l 456 875 l 447 860 l 438 846 l 432 829 l 429 813 l 426 793 l 426 756 l 426 739 l 426 721 l 426 703 l 428 685 l 428 667 l 428 650 l 428 632 l 426 614 l 426 596 l 428 579 l 426 561 l 428 525 l 428 508 l 428 490 l 426 472 l 425 454 l 428 438 l 426 401 l 426 383 l 428 365 l 428 347 l 426 329 l 428 313 l 428 294 l 426 276 l 428 258 l 425 240 l 425 222 l 428 204 l 426 186 l 426 169 l 426 151 l 425 135 l 424 117 l 424 117 l 418 100 l 415 83 l 414 83 l 407 68 l 399 53 l 388 39 l 375 28 l 363 15 l 351 6 l 365 6 l 381 7 l 399 6 l 415 3 l 431 1 l 446 3 l 449 18 l 453 35 l 456 53 l 457 71 l 456 88 l 457 106 l 457 122 l 456 139 l 457 175 l 456 210 l 457 226 l 456 244 l 457 261 l 454 279 l 456 297 l 454 314 l 457 332 l 456 367 l 457 383 l 456 401 l 454 418 l 456 436 l 457 453 l 456 469 l 456 488 l 454 506 l 457 522 l 456 540 l 456 557 l 454 575 l 457 592 l 457 610 l 456 626 l 456 643 l 456 661 l 457 678 l 457 694 l 458 711 l 458 728 l 464 761 l 465 778 l 465 779 l 472 794 l 475 811 l 475 811 l 483 826 l 492 842 l 500 857 l 501 857 l 514 869 l 535 896 l 547 910 l 560 921 l 571 933 l 582 947 l 596 958 l 608 969 l 621 982 l 633 994 l 644 1008 l 646 1008 l 646 1008 q 647 1007 647 1008 l 651 1000 l 651 999 l 640 985 l 629 971 l 617 957 l 607 942 l 597 926 l 590 910 l 586 893 l 582 875 l 581 857 l 583 839 l 583 833 l 592 846 l 606 861 l 606 878 l 606 893 l 604 910 q 606 911 604 911 l 610 914 l 610 914 l 619 915 l 621 915 l 626 911 q 628 910 628 910 l 626 893 l 628 876 l 628 861 l 639 849 l 650 838 q 651 835 651 836 l 639 818 l 628 803 l 626 785 l 625 767 l 625 749 l 625 732 l 625 718 l 635 726 l 644 740 l 657 753 l 668 767 l 679 778 l 689 792 l 701 804 l 711 818 l 722 831 l 735 843 l 746 856 l 758 868 l 790 907 l 801 921 l 814 932 l 822 947 l 833 960 l 835 960 l 853 961 l 853 961 q 854 960 854 961 l 865 947 l 876 935 l 886 921 l 896 906 l 904 892 l 918 860 l 918 858 l 921 842 l 924 825 l 925 807 l 924 790 l 918 774 l 914 757 l 901 725 q 900 724 900 725 l 889 711 l 881 696 l 869 682 l 858 669 l 849 654 l 838 640 l 815 613 l 803 600 l 792 586 l 782 571 l 769 558 l 749 531 l 738 517 l 726 503 l 715 489 l 692 463 l 683 447 l 671 435 l 660 421 l 649 407 l 638 394 l 628 381 l 626 364 l 625 347 l 625 329 l 626 313 l 625 296 l 625 278 l 625 261 l 628 244 l 625 226 l 625 210 l 626 192 l 626 175 l 625 158 l 625 124 l 639 114 l 651 101 l 651 100 l 638 85 l 626 68 l 625 53 l 626 38 l 626 22 l 626 6 l 626 -8 l 643 -10 l 661 -11 l 661 -11 l 678 -12 l 694 -15 l 713 -17 l 729 -18 l 746 -15 l 764 -17 l 781 -17 l 797 -17 l 815 -15 l 832 -12 l 865 -7 l 882 -4 l 899 0 l 915 7 l 932 11 l 946 19 l 963 26 l 978 33 l 993 42 l 1007 51 l 1019 63 l 1032 75 l 1043 88 l 1053 101 l 1063 115 q 1064 117 1063 117 l 1065 117 l 1083 106 m 626 617 l 625 599 l 626 564 l 626 546 l 626 528 l 626 510 l 625 474 l 628 457 l 628 439 l 626 421 l 626 408 l 635 418 l 644 433 l 657 447 l 669 460 l 682 474 l 692 489 l 704 503 l 717 517 l 726 531 l 738 546 l 750 558 l 758 572 l 765 588 l 774 603 l 782 618 l 788 635 l 793 651 l 796 668 l 799 685 l 801 701 l 799 718 l 797 736 l 792 751 l 785 768 l 775 782 l 767 797 l 756 810 l 743 821 l 733 807 l 721 794 l 710 779 l 696 768 l 686 753 l 674 740 l 661 728 l 650 714 l 628 688 l 628 671 l 625 653 l 625 635 l 626 617 m 604 24 l 606 39 l 604 69 l 578 93 q 578 96 576 94 l 590 113 l 604 128 l 604 144 l 603 163 l 603 181 l 604 199 l 604 217 l 604 235 l 603 253 l 603 271 l 606 289 l 606 306 l 604 324 l 606 342 l 606 356 l 597 346 l 588 333 l 586 318 l 586 301 l 588 285 l 588 268 l 586 251 l 585 185 l 581 168 l 579 151 l 575 135 l 574 118 l 571 101 l 567 85 l 560 69 l 551 54 l 542 40 l 542 40 l 533 28 l 533 26 l 519 18 l 510 7 l 501 0 l 515 -1 l 533 -1 l 551 -3 l 588 -4 l 606 -7 l 606 7 l 604 24 m 582 822 l 581 804 l 581 788 l 581 769 l 582 753 l 582 736 l 582 718 l 582 701 l 583 683 l 583 649 l 582 632 l 583 614 l 585 544 l 586 528 l 586 510 l 585 493 l 585 458 l 588 442 l 588 424 l 586 407 l 586 389 l 586 372 l 588 360 l 593 369 l 604 382 l 603 397 l 604 415 l 604 432 l 604 449 l 604 467 l 603 483 l 604 500 l 604 518 l 606 535 l 606 568 l 604 586 l 604 603 l 604 619 l 604 636 l 604 654 l 604 671 l 606 688 l 603 704 l 604 722 l 606 756 l 604 772 l 604 790 l 603 806 l 592 815 l 582 826 l 582 822 z "},"M":{"ha":1151,"x_min":58,"x_max":1182,"o":"m 224 668 l 213 681 q 211 683 211 682 l 221 697 l 244 722 q 245 724 244 724 q 246 722 246 724 l 260 713 l 272 701 l 285 690 q 286 689 286 689 l 286 688 l 274 675 l 265 661 l 253 649 l 251 649 l 250 649 l 238 658 l 224 668 m 211 400 l 211 401 l 211 403 l 232 429 l 244 442 q 245 443 244 443 q 246 442 246 443 l 261 433 l 272 421 l 283 410 q 285 407 285 410 l 276 393 l 276 393 l 264 381 l 253 369 q 251 368 253 368 l 250 369 l 238 379 l 225 390 l 211 400 m 224 110 l 211 122 l 211 125 l 222 138 l 244 164 l 246 164 l 260 154 l 272 142 l 283 132 q 283 129 286 129 l 276 115 l 264 103 l 253 89 l 251 89 l 251 89 l 250 89 l 236 99 l 224 110 m 1181 7 q 1181 4 1182 6 l 1171 -10 l 1160 -22 l 1150 -37 l 1138 -50 l 1126 -62 l 1118 -78 l 1118 -79 l 1106 -90 l 1097 -106 l 1096 -106 l 1083 -117 l 1068 -125 l 1053 -133 l 1035 -137 l 1035 -137 l 1017 -135 l 1000 -135 l 983 -132 l 965 -131 l 949 -126 l 932 -126 l 914 -122 l 897 -121 l 881 -121 l 864 -118 l 847 -121 l 814 -128 l 797 -133 l 783 -143 l 769 -151 l 754 -160 l 743 -172 l 742 -172 l 740 -172 l 733 -165 q 732 -162 732 -165 l 753 -137 l 763 -124 l 774 -112 l 782 -99 l 794 -86 l 806 -72 l 831 -46 l 844 -35 l 860 -25 l 874 -15 l 875 -14 l 892 -8 l 908 -4 l 910 -4 l 910 -4 l 943 -4 l 960 -4 l 969 31 l 971 49 l 975 67 l 975 85 l 976 101 l 975 118 l 976 136 l 975 153 l 976 169 l 974 186 l 974 204 l 976 221 l 975 238 l 974 256 l 976 272 l 975 290 l 974 307 l 975 321 l 960 322 l 942 324 l 925 324 l 926 307 l 928 290 l 925 274 l 926 257 l 928 239 l 925 222 l 925 206 l 938 196 l 949 185 q 950 184 950 185 q 949 183 950 183 l 939 167 l 926 153 l 926 136 l 926 119 l 925 101 l 928 50 l 926 33 l 926 32 l 922 26 q 921 25 921 25 q 919 26 919 26 l 918 26 l 911 25 l 910 26 l 908 28 l 906 32 l 904 32 l 903 50 l 904 67 l 903 101 l 904 119 l 906 136 l 904 151 l 890 164 l 876 176 l 876 178 l 885 190 l 896 201 l 906 213 l 904 229 l 903 247 l 904 265 l 904 282 l 906 300 l 904 335 l 904 353 l 904 371 l 904 388 l 904 406 l 906 424 l 904 440 l 903 476 l 903 494 l 906 511 l 906 547 l 904 581 l 892 593 l 876 604 l 876 606 l 876 607 l 886 618 l 894 631 l 904 642 l 904 676 l 906 694 l 904 713 l 904 731 l 906 749 l 892 758 l 878 767 l 864 776 l 854 785 l 854 771 l 854 754 l 856 736 l 854 719 l 856 701 l 854 685 l 856 667 l 856 650 l 857 632 l 856 615 l 857 597 l 857 581 l 858 546 l 858 511 l 857 493 l 860 476 l 858 458 l 858 442 l 860 425 l 860 407 l 860 390 l 860 372 l 861 356 l 860 338 l 860 321 l 860 303 l 861 286 l 858 268 l 858 251 l 857 235 l 858 218 l 856 200 l 856 183 l 851 165 l 849 149 l 846 132 l 842 115 l 839 99 l 839 99 l 832 83 l 825 68 l 817 53 l 817 51 l 804 40 l 792 29 l 778 18 l 765 7 l 753 -6 l 739 -15 l 726 -26 l 714 -39 l 700 -49 l 688 -60 l 674 -71 l 672 -71 l 671 -69 l 671 -67 l 671 -65 l 682 -53 l 693 -40 l 701 -26 l 707 -11 l 715 4 l 721 19 l 724 35 l 726 51 l 729 68 l 728 83 l 729 101 l 731 118 l 729 135 l 728 153 l 729 169 l 729 186 l 728 204 l 729 221 l 729 239 l 728 256 l 729 272 l 729 290 l 731 307 l 729 322 l 711 322 l 693 321 l 674 324 l 656 324 l 656 307 l 658 274 l 658 257 l 657 240 l 657 222 l 658 207 l 669 197 l 681 185 l 681 182 l 668 168 l 657 153 l 657 101 l 656 83 l 656 67 l 657 50 l 656 32 l 656 32 l 653 29 q 650 26 653 26 l 650 26 l 649 28 l 643 28 l 642 26 q 640 25 642 25 q 639 26 639 25 l 635 32 q 633 33 633 32 l 633 50 l 635 68 l 635 85 l 636 101 l 635 119 l 633 136 l 635 153 l 621 163 l 608 176 q 607 177 607 176 q 608 178 607 178 l 615 190 l 625 201 l 635 211 l 633 229 l 633 246 l 635 264 l 635 317 l 633 335 l 633 353 l 636 371 l 633 388 l 633 406 l 636 424 l 636 442 l 633 458 l 636 476 l 633 493 l 633 494 l 636 513 l 633 529 l 633 547 l 636 565 l 636 582 l 622 593 l 608 604 q 608 607 606 607 l 615 619 l 625 631 l 636 640 l 635 656 l 635 672 l 636 689 l 635 706 l 635 721 l 636 738 l 633 754 l 635 769 l 622 778 l 610 790 l 596 800 l 583 810 l 574 817 l 574 804 l 574 788 l 575 769 l 575 753 l 574 735 l 574 718 l 574 700 l 574 683 l 574 665 l 575 649 l 574 631 l 576 614 l 576 596 l 575 579 l 576 561 l 576 528 l 576 510 l 578 493 l 578 475 l 576 440 l 579 424 l 579 354 l 578 338 l 578 321 l 578 303 l 578 286 l 578 268 l 578 251 l 578 235 l 576 217 l 575 200 l 574 183 l 571 165 l 567 149 l 567 132 l 567 132 l 560 115 l 557 99 l 551 83 l 543 68 l 533 54 l 524 40 l 511 28 l 497 18 l 483 7 l 472 -4 l 461 -14 l 476 -15 l 494 -15 l 513 -18 l 546 -14 l 563 -7 l 590 11 l 593 11 l 599 7 l 600 7 l 600 4 l 588 -7 l 579 -21 l 567 -33 l 556 -44 l 543 -56 l 532 -68 l 521 -81 l 497 -104 l 486 -117 l 486 -118 l 471 -125 l 454 -131 l 436 -133 l 419 -137 l 403 -137 l 385 -136 l 368 -133 l 351 -132 l 317 -128 l 300 -126 l 283 -122 l 267 -121 l 250 -121 l 233 -118 l 217 -121 l 200 -121 l 183 -124 l 167 -126 l 151 -131 l 136 -139 l 121 -144 l 106 -151 l 92 -161 l 79 -171 q 76 -171 78 -172 l 69 -165 l 69 -164 l 69 -162 l 81 -150 l 92 -137 l 106 -125 l 115 -111 l 139 -85 l 153 -72 l 165 -60 l 179 -50 l 194 -39 l 208 -29 l 224 -21 l 242 -15 l 258 -10 l 275 -7 l 281 11 l 286 29 l 290 47 l 292 65 l 292 83 l 290 100 l 290 118 l 289 135 l 292 151 l 289 168 l 289 185 l 289 200 l 272 204 l 254 207 l 236 210 l 200 215 l 183 218 l 168 210 l 154 200 l 143 188 l 132 175 l 131 175 l 122 179 l 122 182 l 129 196 l 139 211 l 150 225 l 158 240 l 169 256 l 181 268 l 190 283 l 211 311 l 225 324 l 239 333 l 254 340 l 271 344 l 288 346 l 285 364 l 285 382 l 286 401 l 285 419 l 285 438 l 285 456 l 285 472 l 269 474 l 251 476 l 235 482 l 218 483 l 201 489 l 183 486 l 168 481 l 154 472 l 143 458 l 133 444 q 131 444 131 444 l 122 449 l 121 450 l 121 451 l 131 467 l 140 482 l 149 497 l 168 526 l 179 540 l 190 554 l 200 568 l 211 582 l 211 582 l 225 593 l 238 604 l 239 604 l 254 611 l 269 615 l 286 618 l 285 635 l 288 653 l 289 668 l 289 685 l 292 701 l 292 717 l 292 718 l 293 721 l 296 738 l 301 754 l 308 771 l 308 771 l 317 779 l 301 775 l 283 775 l 265 775 l 228 778 l 210 782 l 192 785 l 174 789 l 156 792 l 138 794 l 121 796 l 106 788 l 92 778 l 79 767 l 71 753 q 68 751 69 751 l 58 756 l 58 757 q 58 758 58 758 l 69 772 l 79 788 l 90 801 l 100 815 l 110 831 l 119 844 l 131 858 l 142 872 l 150 886 l 163 900 l 175 911 l 192 919 l 208 925 l 226 926 l 243 925 l 261 921 l 278 918 l 294 914 l 310 910 l 326 908 l 343 904 l 360 906 l 378 904 l 394 906 l 411 908 l 426 915 l 442 921 l 457 928 l 471 938 l 483 949 q 486 949 486 951 l 490 944 q 492 944 492 944 q 490 943 492 943 l 469 915 l 457 903 l 447 889 l 429 860 l 424 843 l 421 826 l 418 807 l 417 788 l 417 771 l 418 753 l 418 735 l 418 699 l 418 681 l 419 664 l 418 646 l 417 628 l 419 611 l 419 593 l 418 575 l 418 557 l 418 539 l 418 522 l 419 504 l 418 486 l 417 468 l 419 451 l 418 433 l 419 415 l 417 397 l 418 379 l 418 361 l 417 343 l 418 326 l 419 308 l 417 290 l 419 272 l 419 254 l 418 236 l 418 218 l 418 200 l 419 183 l 419 182 l 417 165 l 417 149 l 415 131 l 411 114 l 407 97 l 389 68 l 379 53 l 354 28 l 340 17 l 329 4 l 318 -3 l 332 -4 l 350 -1 l 368 -3 l 386 -3 l 424 -7 l 428 -8 l 433 6 l 440 19 l 442 36 l 447 68 l 447 85 l 447 101 l 447 118 l 446 136 l 447 154 l 447 171 l 447 189 l 446 206 l 449 240 l 447 258 l 449 275 l 449 293 l 446 328 l 447 346 l 446 363 l 449 381 l 447 397 l 449 415 l 447 432 l 446 450 l 447 467 l 449 485 l 447 501 l 449 536 l 449 554 l 449 571 l 446 589 l 449 624 l 447 640 l 449 657 l 447 674 l 447 692 l 449 708 l 450 725 l 449 742 l 453 775 l 458 792 l 463 808 l 468 825 l 475 840 l 483 856 l 504 883 l 517 896 l 526 911 l 538 924 l 551 935 l 561 949 l 575 960 l 588 972 l 599 985 l 624 1010 l 636 1021 q 638 1022 638 1022 q 639 1021 639 1021 l 643 1015 l 643 1013 l 631 997 l 618 983 l 631 974 l 646 965 l 658 953 l 674 944 l 688 935 l 700 922 l 715 915 l 729 904 l 744 894 l 757 883 l 772 874 l 783 865 l 792 878 l 804 892 l 814 907 l 825 922 l 839 936 l 849 950 l 849 951 l 864 963 l 878 974 l 879 974 l 894 964 l 922 942 l 936 931 l 951 922 l 965 910 l 979 901 l 994 890 l 1008 881 l 1022 869 l 1036 860 l 1051 850 l 1065 838 l 1079 828 l 1103 829 l 1104 829 q 1106 828 1106 828 l 1101 806 l 1101 789 l 1101 771 l 1100 754 l 1100 736 l 1100 719 l 1101 701 l 1101 632 l 1101 615 l 1103 597 l 1103 581 l 1103 563 l 1104 546 l 1104 528 l 1106 511 l 1106 493 l 1106 476 l 1104 458 l 1107 442 l 1107 442 l 1104 424 l 1107 407 l 1107 390 l 1106 372 l 1107 356 l 1107 338 l 1104 303 l 1106 286 l 1104 269 l 1104 251 l 1106 235 l 1104 217 l 1101 200 l 1101 183 l 1097 165 l 1096 149 l 1093 132 l 1089 115 l 1083 99 l 1078 83 l 1072 67 l 1072 67 l 1061 54 l 1050 40 l 1036 28 l 1024 15 l 1011 4 l 999 -4 l 1014 -7 l 1032 -8 l 1050 -11 l 1089 -17 l 1107 -18 l 1125 -15 l 1143 -10 l 1160 -1 l 1172 11 q 1175 11 1175 14 l 1181 7 m 976 646 l 976 663 l 976 679 l 976 696 l 963 704 l 950 714 l 938 725 l 926 732 l 925 718 l 928 685 l 926 668 l 925 635 l 938 625 l 949 614 q 949 611 950 613 l 939 596 l 926 582 l 928 565 l 928 547 l 925 529 l 925 511 l 928 494 l 926 478 l 942 478 l 960 476 l 975 476 l 976 493 l 974 510 l 974 510 l 976 528 l 975 543 l 974 561 l 976 578 l 975 594 l 975 611 l 976 646 m 728 526 l 728 544 l 731 561 l 728 578 l 728 578 l 731 594 l 728 611 l 728 628 l 729 646 l 729 663 l 729 679 l 729 696 l 718 706 l 704 715 l 692 725 l 679 735 l 667 744 l 657 751 l 656 739 l 657 721 l 656 704 l 658 669 l 656 651 l 656 636 l 668 625 l 681 614 l 682 613 q 681 611 682 611 l 668 596 l 657 581 l 657 564 l 658 546 l 657 529 l 656 511 l 656 493 l 657 478 l 674 478 l 693 478 l 711 476 l 729 476 l 729 493 l 728 510 l 728 526 z "},"N":{"ha":953,"x_min":64,"x_max":990,"o":"m 222 651 l 210 661 q 210 664 208 663 l 219 678 l 240 703 l 243 703 l 257 693 l 269 682 l 281 671 l 281 668 l 272 654 l 260 643 l 250 631 l 249 631 l 247 631 l 235 640 l 222 651 m 235 371 l 208 392 l 208 393 l 208 394 l 221 406 l 231 418 l 240 431 q 243 431 243 433 l 257 424 l 269 413 l 281 400 l 281 399 l 271 386 l 261 372 l 250 360 l 249 360 l 249 360 l 247 360 l 235 371 m 222 113 l 211 124 q 210 124 210 124 q 211 125 210 125 l 221 138 l 231 150 l 240 164 l 243 164 l 257 154 l 257 154 l 268 142 l 279 132 q 279 129 281 131 l 272 117 l 261 104 l 250 90 l 249 90 l 249 90 l 247 90 l 235 103 l 222 113 m 874 813 l 888 806 l 907 811 q 910 810 908 811 l 910 808 l 908 792 l 904 774 l 904 740 l 904 724 l 904 707 l 904 690 l 904 672 l 906 639 l 906 622 l 907 606 l 906 588 l 907 571 l 906 554 l 908 538 l 907 519 l 907 503 l 908 486 l 908 468 l 908 451 l 908 435 l 908 418 l 910 401 l 910 385 l 911 367 l 908 350 l 908 333 l 910 317 l 911 300 l 910 282 l 910 265 l 910 249 l 910 232 l 907 215 l 907 199 l 906 182 l 903 165 l 900 149 l 896 132 l 894 117 l 890 100 l 883 85 l 876 71 l 867 57 l 856 43 l 818 10 l 807 1 l 817 1 l 832 -1 l 846 -1 l 864 -6 l 882 -8 l 900 -11 l 936 -11 l 953 -4 l 968 4 l 982 15 q 983 17 983 17 l 990 13 l 990 11 l 990 10 l 981 -4 l 968 -17 l 958 -31 l 949 -43 l 939 -57 l 917 -82 l 908 -96 l 907 -97 l 881 -117 l 881 -118 l 865 -124 l 864 -124 l 849 -125 l 832 -125 l 815 -125 l 799 -122 l 782 -119 l 765 -118 l 749 -115 l 732 -112 l 715 -111 l 699 -110 l 667 -111 l 650 -115 l 635 -119 l 619 -124 l 604 -131 l 590 -139 l 579 -150 l 567 -158 q 564 -158 564 -161 l 558 -154 l 558 -151 l 567 -140 l 575 -126 l 586 -115 l 604 -90 l 617 -78 l 626 -64 l 639 -51 l 651 -39 l 665 -29 l 679 -19 l 694 -11 l 710 -3 l 726 1 l 749 1 l 768 1 l 774 18 l 776 35 l 781 51 l 783 69 l 783 86 l 785 103 l 783 119 l 783 136 l 783 171 l 783 188 l 783 204 l 785 221 l 785 238 l 783 254 l 782 272 l 785 289 l 785 306 l 783 322 l 783 339 l 782 356 l 783 390 l 785 407 l 782 424 l 785 440 l 783 457 l 782 474 l 783 492 l 783 508 l 782 525 l 783 542 l 783 558 l 782 575 l 785 593 l 783 610 l 783 626 l 782 643 l 783 675 l 771 685 l 757 694 l 744 704 l 732 715 l 719 726 l 707 736 l 693 744 l 681 756 l 667 764 l 656 776 l 642 785 l 628 794 l 615 804 l 606 813 l 606 799 l 606 782 l 604 764 l 606 731 l 606 713 l 606 696 l 604 678 l 604 661 l 606 649 l 613 658 l 622 671 l 633 683 l 644 694 l 656 706 l 658 706 l 671 697 l 686 689 l 686 689 l 699 678 l 711 667 l 724 656 l 736 644 l 749 633 l 760 621 l 760 619 l 751 606 l 739 593 l 729 579 l 721 565 l 710 553 l 697 540 l 686 528 l 675 517 l 672 517 l 658 528 l 643 538 l 629 549 l 617 561 l 606 571 l 607 558 l 606 542 l 606 525 l 607 508 l 607 492 l 604 475 l 606 460 l 606 443 l 604 431 l 614 440 l 633 465 l 644 478 l 656 489 q 658 489 656 492 l 671 479 l 686 471 l 699 460 l 711 450 l 725 439 l 738 428 l 747 415 l 760 404 q 761 401 761 403 l 751 388 l 742 374 l 731 361 l 718 349 l 708 336 l 697 322 l 686 311 l 675 299 l 672 299 l 658 310 l 644 321 l 629 331 l 615 343 l 604 353 l 604 340 l 606 308 l 606 292 l 606 275 l 606 260 l 606 243 l 607 228 l 606 217 l 613 225 l 622 238 l 633 250 l 644 263 l 656 274 q 658 274 656 276 l 685 254 l 699 246 l 711 235 l 724 222 l 735 211 l 747 200 l 761 189 l 761 186 l 751 172 l 740 160 l 731 146 l 719 133 l 710 119 l 699 107 l 686 96 l 675 85 q 672 85 674 83 l 658 94 l 643 104 l 631 118 l 615 126 l 607 136 l 606 124 l 604 106 l 606 88 l 607 69 l 607 53 l 606 35 l 606 33 l 601 28 l 600 28 l 590 28 l 590 28 l 589 28 l 583 33 l 583 35 l 585 53 l 586 69 l 583 104 l 585 122 l 583 139 l 586 157 l 571 168 q 571 171 568 171 l 583 190 l 586 206 l 583 239 l 583 256 l 583 306 l 585 322 l 586 339 l 583 356 l 585 371 l 571 383 q 569 386 569 386 l 585 406 l 585 421 l 586 439 l 583 456 l 583 456 l 586 472 l 585 489 l 585 506 l 583 522 l 586 539 l 585 556 l 586 574 l 586 589 l 569 601 q 568 603 568 603 l 568 604 l 583 624 l 583 639 l 585 657 l 583 674 l 585 692 l 585 708 l 583 726 l 585 761 l 585 778 l 585 796 l 585 829 l 572 838 l 563 846 l 561 828 l 563 811 l 563 778 l 561 761 l 561 746 l 561 729 l 561 713 l 561 696 l 564 679 l 564 663 l 564 646 l 564 629 l 561 613 l 563 596 l 565 579 l 565 579 l 563 563 l 565 546 l 565 529 l 565 513 l 564 496 l 564 479 l 567 463 l 565 446 l 565 429 l 568 413 l 567 396 l 567 379 l 568 364 l 565 347 l 565 331 l 567 314 l 567 297 l 568 281 l 567 264 l 564 247 l 565 231 l 564 214 l 564 197 l 563 181 l 557 149 l 554 132 l 549 117 l 544 101 l 540 85 l 533 69 l 533 69 l 524 57 l 513 44 l 500 33 l 488 24 l 476 11 l 464 0 l 454 -7 l 468 -8 l 485 -11 l 503 -12 l 519 -12 l 535 -7 l 550 -1 l 565 7 l 578 15 l 581 15 l 586 13 l 586 11 l 586 10 l 576 -1 l 565 -14 l 556 -26 l 543 -37 l 535 -50 l 522 -61 l 510 -72 l 501 -85 l 489 -96 l 478 -108 l 476 -108 l 463 -117 l 463 -117 l 446 -119 l 431 -125 l 429 -125 l 413 -126 l 397 -128 l 381 -126 l 364 -122 l 347 -121 l 331 -118 l 314 -118 l 297 -117 l 282 -114 l 265 -111 l 250 -111 l 233 -110 l 217 -108 l 185 -114 l 169 -117 l 154 -122 l 139 -126 l 125 -135 l 110 -142 l 96 -149 l 85 -158 q 83 -160 85 -160 l 82 -158 l 76 -154 l 76 -151 l 86 -139 l 99 -128 l 108 -115 l 121 -103 l 131 -90 l 143 -78 l 156 -65 l 181 -43 l 196 -33 l 210 -25 l 225 -17 l 240 -8 l 257 -4 l 272 0 l 286 33 l 286 50 l 289 68 l 289 86 l 290 103 l 289 118 l 290 135 l 289 151 l 289 168 l 288 183 l 286 199 l 271 203 l 254 204 l 236 208 l 219 211 l 201 214 l 185 214 l 169 210 l 156 200 l 144 188 l 136 172 l 136 171 l 135 171 l 126 178 q 126 181 124 178 l 135 193 l 144 208 l 153 222 l 161 238 l 161 238 l 172 250 l 181 265 l 203 292 l 213 306 l 213 306 l 226 315 l 253 335 l 253 336 l 269 340 l 269 340 l 286 339 l 286 356 l 285 374 l 283 392 l 283 410 l 283 426 l 285 444 l 283 460 l 268 464 l 251 467 l 235 468 l 218 474 l 201 476 l 185 476 l 169 471 l 157 460 l 147 447 l 136 435 q 135 433 135 433 l 126 438 l 125 439 l 125 440 l 133 456 l 153 483 l 161 499 l 171 513 l 181 526 l 192 539 l 201 553 l 213 565 l 225 578 l 239 588 l 253 596 l 253 597 l 268 601 l 283 601 l 285 617 l 286 635 l 286 650 l 290 682 l 292 697 l 292 700 l 293 717 l 297 733 l 297 733 l 307 747 l 314 756 l 300 753 l 282 751 l 264 751 l 246 753 l 228 756 l 211 757 l 193 763 l 176 764 l 158 769 l 142 772 l 125 772 l 110 767 l 97 756 l 86 743 l 76 729 l 74 729 l 65 735 l 64 735 q 65 736 64 736 l 75 750 l 85 764 l 94 779 l 106 792 l 115 806 l 125 819 l 133 833 l 144 847 l 154 860 l 165 874 l 178 885 l 193 893 l 193 893 l 210 897 l 226 899 l 243 899 l 260 893 l 276 892 l 292 886 l 308 883 l 324 881 l 340 879 l 356 879 l 372 876 l 388 881 l 404 883 l 419 888 l 449 900 l 463 910 l 475 921 l 478 921 l 482 915 q 483 914 483 915 l 482 913 l 471 901 l 450 875 l 439 863 l 431 849 l 422 833 l 417 818 l 414 803 l 414 785 l 411 765 l 413 749 l 413 731 l 411 714 l 413 697 l 413 679 l 413 644 l 413 628 l 411 611 l 413 594 l 411 576 l 414 560 l 414 560 l 411 542 l 411 525 l 413 508 l 411 492 l 413 457 l 411 440 l 413 424 l 413 406 l 413 389 l 411 371 l 413 354 l 411 336 l 411 319 l 411 301 l 413 285 l 413 268 l 411 250 l 413 233 l 413 199 l 411 182 l 413 165 l 411 147 l 408 132 l 404 115 l 401 99 l 401 99 l 393 83 l 385 69 l 375 56 l 363 43 l 350 32 l 336 22 l 324 11 l 317 3 l 328 1 l 346 4 l 364 3 l 382 0 l 399 0 l 421 -3 l 426 10 l 432 25 l 435 40 l 439 56 l 439 71 l 440 86 l 440 103 l 439 119 l 440 136 l 440 153 l 440 169 l 439 186 l 439 204 l 442 238 l 440 254 l 442 271 l 440 288 l 440 304 l 439 321 l 440 339 l 439 354 l 440 372 l 439 389 l 440 406 l 440 422 l 439 439 l 440 456 l 440 472 l 440 489 l 439 506 l 440 522 l 440 539 l 440 556 l 440 572 l 439 589 l 439 607 l 439 622 l 440 639 l 439 656 l 442 672 l 440 704 l 443 721 l 447 753 l 456 785 l 460 800 l 467 815 l 474 831 l 485 843 l 493 858 l 493 858 l 506 869 l 518 882 l 528 894 l 539 907 l 551 919 l 561 932 l 574 944 l 588 954 l 599 965 l 610 979 l 622 989 q 625 989 624 990 l 631 985 l 643 975 l 657 965 l 669 956 l 683 946 l 710 926 l 724 917 l 750 899 l 764 890 l 778 881 l 790 869 l 803 860 l 817 851 l 831 842 l 843 831 l 857 822 l 874 813 z "},"O":{"ha":1003,"x_min":49,"x_max":985,"o":"m 363 226 l 350 238 l 350 240 l 360 254 l 369 267 l 382 278 l 385 278 l 397 269 l 411 260 l 424 247 l 424 244 l 413 231 l 403 218 l 390 206 l 389 206 l 389 206 l 375 215 l 363 226 m 424 764 l 436 751 l 436 749 l 425 735 l 414 722 l 403 710 l 401 708 l 400 708 l 386 719 l 374 731 l 361 742 l 361 744 l 371 758 l 382 771 l 393 785 l 396 785 l 410 774 l 424 764 m 894 782 l 903 767 l 921 736 l 928 718 l 936 704 l 949 671 l 951 653 l 958 638 l 968 603 l 971 585 l 974 568 l 976 550 l 978 533 l 981 515 l 982 497 l 985 481 l 985 463 l 983 444 l 983 428 l 982 410 l 981 392 l 976 375 l 974 357 l 971 340 l 968 322 l 965 306 l 961 288 l 956 271 l 950 254 l 946 238 l 940 221 l 933 204 l 928 188 l 921 171 l 911 156 l 906 140 l 897 125 l 888 110 l 876 96 l 868 81 l 858 65 l 849 51 l 835 39 l 824 26 l 811 14 l 799 0 l 786 -11 l 772 -22 l 758 -33 l 744 -43 l 729 -53 l 713 -61 l 697 -68 l 681 -75 l 664 -81 l 632 -93 l 631 -93 l 614 -94 l 596 -99 l 579 -101 l 561 -103 l 544 -104 l 526 -106 l 508 -104 l 490 -103 l 474 -103 l 456 -99 l 439 -97 l 422 -93 l 404 -89 l 388 -83 l 371 -81 l 338 -71 l 322 -62 l 306 -56 l 290 -49 l 260 -32 l 244 -24 l 231 -12 l 217 -3 l 203 8 l 190 19 l 178 32 l 167 46 l 156 58 l 143 71 l 132 85 l 125 101 l 114 114 l 104 129 l 99 146 l 85 178 l 78 193 l 74 211 l 68 226 l 65 244 l 58 260 l 58 261 l 58 279 l 56 296 l 53 313 l 51 331 l 50 347 l 50 365 l 49 382 l 50 400 l 49 417 l 51 435 l 53 451 l 56 469 l 56 486 l 60 504 l 64 521 l 69 539 l 72 556 l 78 572 l 86 589 l 93 606 l 101 621 l 108 636 l 118 651 l 129 667 l 139 681 l 147 696 l 147 696 l 160 708 l 171 722 l 181 738 l 194 750 l 207 761 l 218 775 l 232 786 l 246 797 l 258 810 l 286 831 l 300 843 l 315 851 l 328 863 l 360 881 l 375 889 l 389 900 l 389 900 l 406 907 l 419 917 l 451 932 l 468 939 l 483 946 l 499 953 l 515 961 q 518 960 517 961 l 524 951 q 522 949 524 949 l 507 939 l 492 931 l 478 919 l 461 911 l 447 900 l 433 889 l 418 881 l 404 868 l 389 858 l 375 849 l 361 838 l 346 828 l 333 815 l 321 803 l 307 792 l 294 779 l 260 739 l 251 724 l 242 708 l 232 694 l 225 679 l 218 663 l 210 646 l 204 631 l 199 614 l 194 596 l 190 579 l 185 544 l 183 526 l 183 510 l 181 492 l 182 475 l 181 439 l 182 422 l 183 406 l 188 388 l 190 371 l 192 354 l 197 338 l 201 321 l 206 303 l 211 288 l 219 272 l 226 256 l 236 242 l 244 226 l 256 213 l 267 199 l 278 186 l 289 172 l 301 161 l 315 150 l 329 139 l 343 129 l 358 119 l 374 113 l 389 103 l 403 97 l 410 113 l 417 129 l 426 165 l 426 183 l 429 201 l 429 219 l 429 239 l 429 257 l 429 275 l 428 294 l 428 311 l 413 313 l 396 317 l 363 324 l 346 324 l 331 329 l 314 329 l 299 321 l 283 313 l 272 300 l 263 286 q 260 285 263 285 l 251 290 l 250 290 l 250 292 l 258 308 l 269 322 l 279 338 l 288 353 l 299 367 l 307 382 l 319 394 l 331 408 l 342 421 l 354 435 l 382 451 l 382 451 l 397 456 l 413 460 l 414 460 l 428 458 l 426 474 l 428 493 l 426 510 l 428 528 l 426 544 l 413 547 l 396 549 l 379 553 l 363 556 l 346 560 l 331 561 l 314 561 l 297 556 l 272 533 l 263 518 l 260 518 l 250 522 l 250 524 l 250 525 l 271 556 l 281 569 l 289 585 l 299 600 l 310 614 l 321 628 l 331 642 l 342 656 l 356 667 l 369 676 l 382 686 l 399 692 l 399 692 l 415 692 l 431 692 l 433 707 l 435 722 l 439 739 l 442 756 l 450 771 l 454 788 l 463 803 l 475 815 l 485 829 l 496 843 l 506 857 l 531 883 l 543 894 l 556 906 l 567 919 l 581 931 l 593 942 l 604 956 l 617 968 l 618 968 l 619 968 l 624 961 l 624 958 l 613 944 l 600 932 l 590 917 l 578 903 l 569 888 l 563 871 l 558 853 l 556 836 l 554 818 l 554 800 l 554 782 l 554 765 l 553 747 l 554 731 l 556 714 l 556 696 l 553 679 l 553 661 l 554 644 l 556 626 l 557 575 l 557 558 l 557 540 l 558 524 l 557 507 l 558 489 l 557 454 l 560 438 l 560 421 l 560 403 l 558 369 l 558 351 l 556 335 l 554 300 l 550 267 l 546 250 l 538 217 l 532 200 l 515 171 l 515 169 l 501 158 l 489 146 l 475 135 l 463 121 l 463 121 l 447 111 l 436 97 l 435 97 l 422 88 l 435 83 l 450 78 l 465 72 l 479 67 l 494 61 l 511 58 l 526 54 l 543 53 l 558 47 l 574 46 l 588 46 l 588 60 l 588 76 l 588 93 l 590 110 l 589 126 l 589 143 l 589 158 l 578 167 l 567 176 q 567 179 564 179 l 576 194 l 588 207 l 589 224 l 589 240 l 588 257 l 588 275 l 589 292 l 588 310 l 589 326 l 589 344 l 588 361 l 588 378 l 568 396 q 568 399 567 397 l 579 411 l 588 425 l 588 442 l 590 458 l 590 475 l 589 492 l 588 508 l 589 525 l 590 542 l 588 558 l 589 592 l 588 607 l 579 617 l 568 626 q 567 627 567 626 q 568 628 567 628 l 578 642 l 589 656 l 588 672 l 588 690 l 590 708 l 588 725 l 588 726 l 589 743 l 588 761 l 589 779 l 589 796 l 588 814 l 588 832 l 589 850 l 588 867 q 589 868 588 868 l 593 872 l 594 872 l 604 874 q 606 872 606 874 l 610 868 l 610 867 l 611 850 l 610 833 l 610 817 l 611 801 l 611 800 l 608 785 l 610 772 l 617 783 l 626 797 l 638 810 l 646 824 l 657 838 l 667 850 l 675 865 l 686 878 l 696 892 l 707 906 l 717 919 l 725 933 l 736 946 l 746 960 q 747 961 746 961 l 749 961 l 761 949 l 772 936 l 785 924 l 799 913 l 810 899 l 822 885 l 835 872 l 846 858 l 856 843 l 867 829 l 876 814 l 886 799 l 894 782 m 925 354 l 925 372 l 922 389 l 919 406 l 914 422 l 908 439 l 903 456 l 899 472 l 893 489 l 886 504 l 879 521 l 872 538 l 864 553 l 856 568 l 850 585 l 840 599 l 831 614 l 822 629 l 814 644 l 804 658 l 793 672 l 782 686 l 775 701 l 754 726 l 742 738 l 731 751 l 707 772 l 694 783 l 682 794 l 671 804 l 661 794 l 650 782 l 631 757 l 621 743 l 610 732 l 610 696 l 610 682 l 619 693 l 631 707 l 643 721 l 656 735 q 658 735 658 735 l 674 726 l 688 715 l 701 706 l 714 693 l 726 682 l 739 669 l 751 658 l 764 646 q 765 644 765 644 l 756 629 l 733 603 l 722 589 l 689 549 l 675 538 l 674 538 l 646 557 l 633 568 l 619 579 l 610 589 l 610 574 l 611 538 l 610 519 l 611 501 l 611 483 l 610 465 l 610 451 l 619 463 l 632 476 l 644 490 l 656 504 q 658 506 658 506 l 672 494 l 688 486 l 688 486 l 700 474 l 713 463 l 726 451 l 739 440 l 753 429 l 763 417 q 764 414 764 415 l 756 400 l 743 386 l 733 372 l 722 360 l 711 346 l 699 333 l 689 319 l 676 308 q 674 307 674 307 l 660 317 l 647 329 l 633 338 l 619 349 l 611 358 l 611 346 l 610 329 l 611 313 l 611 294 l 610 278 l 610 261 l 611 246 l 611 244 l 610 233 l 619 243 l 631 258 l 643 272 l 657 285 l 658 285 l 674 278 l 688 267 l 700 256 l 714 246 l 739 221 l 753 210 l 763 197 q 764 196 764 196 l 756 181 l 733 154 l 721 140 l 713 126 l 713 126 l 699 114 l 689 100 l 676 88 l 674 88 l 660 99 l 647 110 l 633 121 l 621 132 l 611 139 l 611 126 l 610 110 l 611 93 l 613 76 l 611 60 l 611 44 l 643 46 l 660 46 l 676 49 l 694 50 l 710 54 l 728 58 l 744 63 l 760 69 l 775 76 l 790 82 l 806 92 l 819 100 l 835 110 l 849 118 l 861 131 l 874 142 l 886 154 l 897 168 l 907 182 l 914 199 l 919 215 l 922 232 l 925 250 l 926 267 l 929 301 l 926 336 l 925 354 z "},"P":{"ha":924,"x_min":40,"x_max":904,"o":"m 199 658 l 186 671 q 186 674 183 671 l 196 686 l 208 699 l 218 711 l 221 711 l 235 703 l 247 692 l 260 679 l 260 678 l 238 651 l 228 638 l 226 638 l 226 638 l 225 638 l 213 650 l 199 658 m 199 383 l 188 394 q 188 397 185 394 l 197 408 l 207 422 l 218 435 l 221 435 l 233 425 l 247 415 l 260 403 q 261 402 261 403 q 260 401 261 401 l 249 388 l 238 375 l 228 364 l 226 363 l 225 363 l 213 374 l 199 383 m 200 108 l 186 118 l 185 119 q 186 121 185 121 l 197 135 l 208 147 l 218 161 q 221 161 221 161 l 235 151 l 249 140 l 258 128 l 258 125 l 249 113 l 239 100 l 239 99 l 228 89 q 226 88 226 88 q 225 89 225 89 l 213 97 l 200 108 m 904 594 l 901 578 l 903 561 l 901 543 l 904 526 l 904 508 l 901 492 l 903 475 l 900 457 l 903 440 l 900 407 l 901 389 l 901 372 l 900 356 l 900 338 l 899 321 l 899 304 l 900 288 l 897 253 l 896 251 l 883 243 l 871 232 l 857 222 l 843 213 l 817 192 l 806 179 l 790 169 l 779 158 l 768 146 l 754 136 l 744 122 l 732 111 l 721 99 l 713 85 l 700 72 q 699 72 700 71 l 683 78 l 668 86 l 653 94 l 638 101 l 621 107 l 606 115 l 592 119 l 590 83 l 604 75 l 617 63 l 617 60 l 603 46 l 592 31 l 593 14 l 592 -3 l 606 -6 l 621 -4 l 636 -7 l 651 -8 l 669 -11 l 686 -12 l 740 -18 l 774 -14 l 789 -8 l 803 1 l 817 13 l 819 13 l 825 7 q 825 4 828 7 l 815 -8 l 804 -21 l 792 -31 l 782 -44 l 772 -57 l 758 -68 l 739 -93 l 713 -115 l 711 -115 l 694 -121 l 678 -128 l 660 -129 l 642 -132 l 624 -135 l 607 -136 l 589 -135 l 571 -136 l 553 -136 l 535 -133 l 501 -132 l 483 -129 l 450 -125 l 433 -125 l 415 -121 l 399 -119 l 382 -118 l 365 -118 l 347 -112 l 331 -111 l 314 -110 l 297 -110 l 297 -110 l 281 -106 l 264 -104 l 231 -100 l 214 -101 l 197 -101 l 181 -103 l 165 -107 l 149 -108 l 133 -114 l 118 -121 l 103 -125 l 88 -133 l 74 -142 l 63 -151 l 61 -151 l 60 -151 l 54 -146 q 53 -144 53 -146 l 53 -143 l 64 -132 l 75 -119 l 88 -107 l 97 -93 l 110 -81 l 121 -67 l 146 -43 l 160 -32 l 176 -24 l 190 -12 l 206 -6 l 222 1 l 238 10 l 254 13 l 261 28 l 267 46 l 269 64 l 272 82 l 271 100 l 271 118 l 272 138 l 271 156 l 271 174 l 269 192 l 271 210 l 256 213 l 240 215 l 225 217 l 210 221 l 194 222 l 178 224 l 161 218 l 147 208 l 138 194 l 126 182 l 125 182 l 115 185 l 115 186 q 114 187 114 186 q 115 188 114 188 l 124 203 l 135 218 l 144 232 l 154 246 l 161 261 l 172 276 l 185 289 l 194 303 l 206 315 l 218 328 l 235 338 l 250 347 l 250 349 l 267 351 l 268 367 l 268 383 l 265 400 l 264 417 l 267 433 l 265 450 l 265 465 l 231 471 l 213 475 l 194 478 l 178 478 l 161 474 l 149 461 l 138 450 l 128 436 q 125 435 126 435 l 115 440 l 115 442 q 115 443 115 442 l 126 457 l 133 472 l 143 488 l 153 501 l 164 515 l 172 531 l 172 531 l 183 544 l 194 558 l 207 571 l 218 583 l 218 583 l 233 593 l 249 601 l 249 603 l 265 606 l 267 624 l 265 643 l 265 661 l 269 694 l 274 710 l 272 725 q 274 726 272 726 l 275 729 l 275 746 l 275 747 l 282 763 l 288 779 l 288 779 l 294 785 l 282 781 l 282 781 l 246 783 l 228 785 l 208 786 l 190 788 l 174 792 l 156 794 l 138 799 l 119 803 l 103 801 l 88 796 l 74 786 l 63 774 l 53 760 q 50 760 51 758 l 43 764 q 43 767 40 767 l 51 781 l 61 794 l 72 808 l 81 824 l 93 838 l 101 851 l 113 865 l 122 879 l 133 893 l 143 907 l 156 918 l 172 928 l 172 928 l 189 931 l 207 933 l 207 933 l 224 931 l 240 926 l 257 924 l 274 919 l 290 918 l 339 910 l 372 914 l 389 917 l 421 926 l 435 933 l 449 943 l 461 954 l 464 954 l 469 950 q 471 949 471 949 q 469 947 469 947 l 456 936 l 446 922 l 438 908 l 426 894 l 417 881 l 408 865 l 401 851 l 399 835 l 397 796 l 399 725 l 397 708 l 397 690 l 399 672 l 397 656 l 397 638 l 399 621 l 396 603 l 396 568 l 396 550 l 397 533 l 396 515 l 396 497 l 397 481 l 396 463 l 397 444 l 397 428 l 399 410 l 399 392 l 396 374 l 397 357 l 397 339 l 396 321 l 396 304 l 396 286 l 396 268 l 396 250 l 396 233 l 399 215 l 396 181 l 396 164 l 393 147 l 389 131 l 383 114 l 376 99 l 368 83 l 358 69 l 344 57 l 333 43 l 318 32 l 306 19 l 294 11 l 307 10 l 324 10 l 340 8 l 357 10 l 390 6 l 406 7 l 411 21 l 417 36 l 422 51 l 425 68 l 425 100 l 426 118 l 426 135 l 425 151 l 426 169 l 426 186 l 425 203 l 426 221 l 426 238 l 425 254 l 425 272 l 426 289 l 426 307 l 426 324 l 426 340 l 426 358 l 426 375 l 425 393 l 425 410 l 424 426 l 426 444 l 424 461 l 425 479 l 425 496 l 426 513 l 425 529 l 426 564 l 426 582 l 426 599 l 424 615 l 426 650 l 425 667 l 425 683 l 428 700 l 428 717 l 426 733 l 426 733 l 429 750 l 431 767 l 432 783 l 436 800 l 442 815 l 444 832 l 451 849 l 460 863 l 471 876 l 482 889 l 493 903 l 504 915 l 515 929 l 526 942 l 540 953 l 551 965 l 563 979 l 575 990 l 588 1001 l 601 1014 l 613 1025 l 614 1026 l 615 1025 l 619 1019 l 619 1018 l 607 1004 l 594 990 l 586 975 l 574 963 l 567 946 l 558 931 l 553 913 l 550 896 l 549 860 l 549 843 l 558 856 l 571 868 l 568 899 l 569 914 l 571 929 l 572 931 l 575 935 q 576 936 575 936 l 586 936 l 586 936 q 588 935 588 936 l 590 931 l 590 929 l 590 914 l 592 897 l 590 882 l 592 867 l 604 856 l 617 844 q 618 842 618 843 l 606 825 l 590 810 l 592 794 l 593 778 l 593 761 l 593 746 l 592 735 l 599 743 l 610 757 l 624 768 l 633 781 l 667 819 l 679 832 l 689 844 l 713 871 l 724 882 l 735 896 l 746 908 l 757 921 l 767 935 l 778 947 l 781 947 l 797 942 l 797 942 l 813 933 l 828 925 l 842 913 l 854 900 l 867 886 l 876 871 l 883 854 l 890 838 l 893 819 l 897 801 l 900 783 l 899 767 l 900 750 l 900 732 l 901 715 l 900 697 l 901 681 l 900 664 l 903 646 l 901 629 l 904 613 l 904 594 m 569 797 l 571 814 l 560 824 l 551 831 l 550 817 l 549 800 l 551 782 l 551 765 l 550 747 l 551 731 l 550 713 l 550 696 l 550 678 l 553 661 l 553 643 l 551 625 l 551 608 l 554 590 l 553 574 l 553 556 l 553 538 l 553 521 l 553 504 l 554 486 l 553 468 l 556 451 l 556 451 l 554 435 l 556 417 l 554 400 l 554 365 l 554 347 l 554 331 l 554 313 l 556 296 l 554 278 l 554 261 l 554 247 l 569 250 l 571 265 l 569 282 l 569 300 l 571 317 l 571 335 l 571 351 l 571 369 l 569 386 l 571 404 l 569 421 l 569 438 l 571 456 l 569 472 l 563 478 l 563 481 l 569 488 l 568 504 l 571 522 l 569 539 l 568 556 l 571 574 l 571 590 l 571 642 l 571 660 l 571 676 l 571 711 l 571 728 l 571 744 l 571 763 l 571 779 l 569 797 m 560 79 l 571 89 l 571 108 l 571 126 l 554 131 l 538 132 l 533 117 l 528 100 l 521 85 l 511 69 l 488 47 l 475 36 l 450 14 l 440 6 l 453 4 l 471 3 l 488 4 l 504 1 l 521 1 l 538 1 l 556 -1 l 569 -1 l 569 14 l 569 31 l 556 40 l 543 54 l 543 56 l 551 68 l 560 79 m 761 232 l 763 250 l 764 268 l 761 285 l 764 303 l 764 319 l 761 336 l 763 354 l 764 371 l 763 389 l 764 406 l 764 422 l 764 440 l 764 457 l 763 475 l 763 492 l 761 508 l 764 526 l 761 543 l 763 561 l 763 578 l 764 596 l 761 613 l 763 647 l 763 664 l 764 682 l 761 699 l 763 715 l 764 733 l 761 750 l 757 768 l 746 782 l 732 790 l 717 797 l 703 808 l 690 817 l 681 803 l 669 790 l 657 778 l 647 764 l 636 751 l 625 739 l 614 726 l 601 714 l 590 701 l 592 683 l 593 665 l 593 647 l 590 631 l 592 613 l 593 594 l 592 576 l 592 560 l 590 542 l 592 524 l 592 510 l 600 519 l 613 531 l 622 544 l 624 544 l 638 554 l 647 567 l 661 578 l 663 578 l 675 567 l 701 543 l 725 519 l 738 507 l 747 493 l 760 482 l 760 479 l 749 465 l 738 453 l 724 442 l 714 428 l 701 415 l 688 406 l 675 394 l 663 382 l 661 382 l 661 382 l 660 382 l 649 394 l 635 404 l 624 417 l 611 428 l 600 440 l 592 449 l 592 436 l 593 419 l 593 403 l 593 385 l 592 368 l 593 351 l 593 335 l 590 317 l 592 300 l 592 251 l 625 251 l 643 249 l 661 246 l 679 242 l 696 239 l 749 224 l 763 218 l 761 232 z "},"Q":{"ha":1010,"x_min":43,"x_max":1165,"o":"m 351 190 l 340 203 l 340 206 l 350 218 l 360 232 l 371 244 q 374 246 374 246 l 388 235 l 400 224 l 413 213 l 413 210 l 403 196 l 393 183 l 381 169 l 379 169 l 378 169 l 365 181 l 351 190 m 413 729 l 425 717 l 425 714 l 414 701 l 403 688 l 392 675 q 390 674 392 674 l 390 674 l 389 675 l 376 686 l 364 697 l 350 707 l 349 708 q 350 710 349 710 l 371 738 l 383 749 q 385 750 385 750 l 413 729 m 1165 74 l 1165 71 l 1156 57 l 1144 44 l 1135 31 l 1124 18 l 1114 4 l 1103 -10 l 1090 -22 l 1081 -35 l 1069 -47 l 1056 -58 l 1043 -71 l 1018 -93 l 1004 -103 l 990 -114 l 975 -121 l 960 -129 l 944 -136 l 943 -136 l 926 -137 l 910 -139 l 892 -137 l 874 -133 l 857 -128 l 839 -122 l 822 -117 l 807 -108 l 790 -100 l 776 -87 l 761 -79 l 749 -68 l 735 -76 l 719 -85 l 706 -94 l 690 -103 l 674 -108 l 657 -114 l 640 -119 l 607 -129 l 590 -131 l 572 -133 l 556 -136 l 521 -136 l 503 -135 l 486 -133 l 469 -133 l 451 -132 l 435 -129 l 417 -126 l 400 -121 l 383 -117 l 367 -111 l 350 -107 l 333 -101 l 318 -94 l 301 -89 l 286 -81 l 271 -74 l 256 -62 l 242 -53 l 226 -44 l 213 -33 l 199 -24 l 186 -11 l 174 0 l 161 13 l 149 25 l 140 40 l 128 53 l 128 53 l 119 68 l 110 83 l 101 99 l 92 113 l 86 129 l 72 161 l 68 179 l 64 196 l 60 213 l 56 229 l 53 246 l 51 264 l 47 281 l 46 299 l 44 315 l 46 333 l 44 350 l 43 368 l 44 385 l 46 403 l 49 419 l 49 438 l 51 456 l 56 472 l 64 507 l 68 524 l 75 540 l 82 557 l 88 574 l 94 589 l 104 606 l 113 621 l 124 635 l 133 649 l 143 664 l 165 692 l 179 704 l 189 718 l 201 731 l 215 742 l 228 754 l 240 767 l 253 778 l 268 789 l 282 799 l 296 810 l 325 829 l 340 839 l 353 850 l 369 860 l 385 868 l 400 876 l 415 883 l 446 901 l 463 907 l 478 915 l 494 922 l 511 928 q 514 926 513 928 l 517 918 q 518 917 518 918 q 517 917 518 917 l 504 906 l 489 896 l 443 868 l 414 847 l 399 838 l 372 815 l 343 794 l 329 782 l 315 771 l 303 760 l 290 747 l 278 735 l 267 721 l 256 707 l 247 692 l 238 678 l 228 663 l 219 647 l 213 631 l 206 614 l 200 597 l 193 582 l 190 564 l 185 547 l 182 531 l 181 513 l 179 494 l 175 460 l 178 443 l 176 425 l 176 408 l 179 390 l 179 374 l 183 357 l 183 339 l 186 322 l 190 304 l 194 288 l 201 272 l 207 256 l 217 240 l 224 225 l 232 210 l 240 194 l 261 167 l 274 154 l 285 142 l 297 129 l 311 119 l 324 107 l 339 99 l 353 88 l 368 79 l 385 74 l 399 65 l 406 81 l 413 97 l 421 133 l 424 151 l 424 169 l 424 207 l 422 225 l 424 244 l 424 263 l 424 279 l 408 281 l 392 285 l 375 286 l 358 290 l 342 294 l 325 297 l 308 296 l 293 289 l 279 279 l 268 268 l 258 253 q 256 253 256 253 l 246 257 q 244 258 246 258 q 246 260 244 260 l 254 276 l 265 290 l 285 319 l 293 335 l 314 364 l 326 376 l 336 390 l 349 403 l 363 413 l 376 421 l 393 424 l 408 428 l 408 428 l 424 426 l 424 443 l 422 460 l 424 478 l 424 496 l 424 513 l 408 515 l 392 518 l 375 522 l 358 522 l 342 526 l 325 531 l 308 531 l 293 522 l 281 513 l 268 500 l 258 486 q 256 486 256 486 l 246 490 l 246 492 q 246 493 244 493 l 254 510 l 265 524 l 274 539 l 285 553 l 294 567 l 306 582 l 325 610 l 338 622 l 351 635 l 378 654 l 378 654 l 411 661 l 426 661 l 429 675 l 431 692 l 432 707 l 438 724 l 443 740 l 450 756 l 458 771 l 468 785 l 481 797 l 490 811 l 501 825 l 515 838 l 525 851 l 538 864 l 550 876 l 563 888 l 575 900 l 600 922 l 613 935 q 614 936 613 936 l 615 935 l 618 929 q 619 928 619 929 q 618 928 619 928 l 608 913 l 594 900 l 583 886 l 574 871 l 565 854 l 560 838 l 554 821 l 551 804 l 551 786 l 549 768 l 549 750 l 549 733 l 549 717 l 549 699 l 550 682 l 550 664 l 549 647 l 550 613 l 550 594 l 550 560 l 551 508 l 553 440 l 556 424 l 554 406 l 556 389 l 554 371 l 554 354 l 554 338 l 554 319 l 551 303 l 551 286 l 550 268 l 547 251 l 544 235 l 542 218 l 538 201 l 533 185 l 528 168 l 519 153 l 499 125 l 499 125 l 483 114 l 471 103 l 458 89 l 458 89 l 443 79 l 431 67 l 418 57 l 431 51 l 444 44 l 458 42 l 472 38 l 483 47 l 494 61 l 518 86 l 531 97 l 543 111 l 557 121 l 572 129 l 586 139 l 583 157 l 585 175 l 586 193 l 583 211 l 585 231 l 585 249 l 586 283 l 574 293 l 564 303 l 564 306 l 575 319 l 585 333 l 585 350 l 583 367 l 583 385 l 583 401 l 585 418 l 585 436 l 586 486 l 585 504 l 583 519 l 563 539 q 563 542 560 542 l 574 556 l 585 569 l 585 588 l 583 604 l 585 622 l 586 640 l 586 657 l 586 675 l 585 710 l 583 728 l 585 746 l 586 763 l 585 781 l 585 815 l 583 832 q 584 833 583 833 q 585 835 585 833 l 589 838 l 590 838 l 601 838 q 603 838 603 838 l 606 833 l 606 833 l 606 814 l 607 794 l 606 775 l 607 757 l 607 743 l 614 754 l 625 768 l 636 782 l 647 796 l 657 811 l 667 826 l 688 856 l 699 869 l 708 885 l 719 900 l 731 914 l 740 929 l 742 929 l 743 929 l 768 904 l 781 892 l 793 879 l 804 865 l 818 854 l 829 840 l 840 825 l 851 811 l 861 796 l 871 781 l 882 767 l 882 767 l 890 750 l 900 736 l 908 719 l 917 704 l 929 671 l 936 654 l 943 639 l 958 588 l 961 571 l 967 554 l 968 536 l 974 519 l 974 518 l 974 501 l 975 483 l 976 467 l 976 449 l 979 431 l 979 431 l 976 413 l 978 396 l 975 360 l 975 343 l 972 325 l 968 308 l 965 290 l 960 274 l 957 256 l 953 239 l 946 222 l 942 206 l 936 189 l 931 172 l 922 156 l 917 140 l 885 82 l 876 68 l 868 56 l 879 49 l 892 40 l 904 33 l 918 25 l 932 15 l 949 11 l 981 1 l 996 -1 l 1013 -1 l 1029 1 l 1046 3 l 1063 8 l 1078 15 l 1092 24 l 1106 32 l 1119 42 l 1132 54 l 1146 65 l 1158 79 l 1160 79 l 1161 79 l 1165 74 m 621 157 l 640 163 l 660 164 l 660 164 l 660 164 l 679 158 l 679 158 l 694 151 l 711 144 l 728 139 l 743 131 l 758 121 l 774 115 l 789 104 l 804 96 l 818 86 l 832 78 l 844 88 l 858 97 l 871 108 l 882 121 l 893 135 l 901 150 l 908 167 l 918 200 l 921 218 l 924 235 l 925 253 l 926 269 l 924 288 l 921 322 l 918 339 l 917 357 l 913 374 l 910 390 l 903 407 l 900 424 l 896 442 l 883 474 l 875 490 l 868 506 l 860 521 l 851 536 l 846 553 l 835 567 l 826 582 l 818 597 l 808 611 l 800 626 l 789 640 l 779 656 l 768 669 l 757 683 l 746 699 l 733 711 l 721 725 l 707 738 l 681 763 l 667 774 l 656 760 l 643 744 l 619 715 l 606 703 l 608 685 l 608 665 l 607 647 l 607 629 l 607 597 l 615 607 l 626 621 l 640 635 l 651 649 q 654 650 651 650 l 669 640 l 682 628 l 696 619 l 710 607 l 722 594 l 736 585 l 736 585 l 747 571 l 761 560 q 763 559 763 560 q 761 558 763 558 l 750 543 l 740 529 l 717 503 l 707 489 l 696 475 l 671 450 l 669 450 l 656 460 l 643 472 l 629 481 l 617 493 l 607 501 l 606 488 l 606 472 l 606 456 l 606 439 l 607 422 l 606 406 l 607 389 l 606 372 l 606 361 l 614 372 l 626 386 l 639 399 l 651 414 l 654 414 l 668 403 l 683 394 l 696 382 l 710 371 l 722 360 l 736 349 l 749 338 l 760 324 l 760 321 l 750 307 l 728 281 l 694 240 l 683 226 l 671 214 l 669 214 l 656 225 l 642 235 l 629 244 l 617 257 l 608 264 l 608 251 l 607 233 l 606 217 l 606 200 l 607 183 l 607 165 l 607 151 l 621 157 m 611 17 l 594 24 l 578 28 l 563 33 l 544 36 l 528 38 l 513 36 l 497 29 l 507 26 l 524 22 l 540 19 l 558 18 l 575 14 l 592 14 l 610 14 l 619 13 l 611 17 z "}}}
